SeanSlab-NormalThin.ufo
<glyph name="exclam" format="1">
  <advance width="222"/>
  <unicode hex="0021"/>
  <outline>
    <contour>
      <point x="124" y="229" type="line"/>
      <point x="128" y="722" type="line"/>
      <point x="95" y="722" type="line"/>
      <point x="99" y="229" type="line"/>
    </contour>
    <contour>
      <point x="131" y="13" type="curve"/>
      <point x="131" y="24"/>
      <point x="123" y="31"/>
      <point x="112" y="31" type="curve"/>
      <point x="100" y="31"/>
      <point x="93" y="23"/>
      <point x="93" y="13" type="curve"/>
      <point x="119" y="13"/>
      <point x="106" y="13"/>
      <point x="131" y="13" type="curve"/>
      <point x="131" y="1"/>
      <point x="123" y="-6"/>
      <point x="112" y="-6" type="curve"/>
      <point x="100" y="-6"/>
      <point x="93" y="1"/>
      <point x="93" y="13" type="curve"/>
      <point x="119" y="13"/>
      <point x="106" y="13"/>
    </contour>
  </outline>
</glyph>
<glyph name="quotedbl" format="1">
  <advance width="403"/>
  <unicode hex="0022"/>
  <outline>
    <contour>
      <point x="122" y="600" type="line"/>
      <point x="125" y="788" type="line"/>
      <point x="94" y="788" type="line"/>
      <point x="97" y="600" type="line"/>
    </contour>
    <contour>
      <point x="306" y="600" type="line"/>
      <point x="309" y="788" type="line"/>
      <point x="277" y="788" type="line"/>
      <point x="280" y="600" type="line"/>
    </contour>
  </outline>
</glyph>
<glyph name="numbersign" format="1">
  <advance width="694"/>
  <unicode hex="0023"/>
  <outline>
    <contour>
      <point x="49" y="247" type="curve"/>
      <point x="561" y="247" type="curve"/>
      <point x="567" y="270" type="curve"/>
      <point x="56" y="270" type="curve"/>
    </contour>
    <contour>
      <point x="125" y="491" type="curve"/>
      <point x="637" y="491" type="curve"/>
      <point x="644" y="513" type="curve"/>
      <point x="132" y="513" type="curve"/>
    </contour>
    <contour>
      <point x="399" y="39" type="curve"/>
      <point x="625" y="722" type="curve"/>
      <point x="600" y="722" type="curve"/>
      <point x="373" y="39" type="curve"/>
    </contour>
    <contour>
      <point x="116" y="46" type="curve"/>
      <point x="338" y="722" type="curve"/>
      <point x="313" y="722" type="curve"/>
      <point x="92" y="46" type="curve"/>
    </contour>
  </outline>
</glyph>
<glyph name="dollar" format="1">
  <advance width="563"/>
  <unicode hex="0024"/>
  <outline>
    <contour>
      <point x="85" y="99" type="curve"/>
      <point x="85" y="219"/>
      <point x="85" y="99"/>
      <point x="85" y="219" type="curve"/>
      <point x="62" y="219"/>
      <point x="85" y="219"/>
      <point x="62" y="219" type="curve"/>
      <point x="62" y="99"/>
      <point x="62" y="219"/>
      <point x="62" y="99" type="curve"/>
      <point x="85" y="99"/>
      <point x="62" y="99"/>
    </contour>
    <contour>
      <point x="463" y="631" type="curve"/>
      <point x="463" y="511"/>
      <point x="463" y="631"/>
      <point x="463" y="511" type="curve"/>
      <point x="486" y="511"/>
      <point x="463" y="511"/>
      <point x="486" y="511" type="curve"/>
      <point x="486" y="631"/>
      <point x="486" y="511"/>
      <point x="486" y="631" type="curve"/>
      <point x="463" y="631"/>
      <point x="486" y="631"/>
    </contour>
    <contour>
      <point x="279" y="-43" type="curve"/>
      <point x="279" y="-9"/>
      <point x="279" y="25"/>
      <point x="279" y="59" type="curve"/>
      <point x="253" y="59"/>
      <point x="279" y="59"/>
      <point x="253" y="59" type="curve"/>
      <point x="253" y="25"/>
      <point x="253" y="-9"/>
      <point x="253" y="-43" type="curve"/>
      <point x="279" y="-43"/>
      <point x="253" y="-43"/>
    </contour>
    <contour>
      <point x="291" y="671" type="curve"/>
      <point x="291" y="705"/>
      <point x="291" y="739"/>
      <point x="291" y="773" type="curve"/>
      <point x="266" y="773"/>
      <point x="291" y="773"/>
      <point x="266" y="773" type="curve"/>
      <point x="266" y="739"/>
      <point x="266" y="705"/>
      <point x="266" y="671" type="curve"/>
      <point x="291" y="671"/>
      <point x="266" y="671"/>
    </contour>
    <contour>
      <point x="62" y="99" type="curve"/>
      <point x="118" y="72"/>
      <point x="186" y="48"/>
      <point x="265" y="48" type="curve"/>
      <point x="396" y="48"/>
      <point x="503" y="91"/>
      <point x="503" y="198" type="curve"/>
      <point x="503" y="302"/>
      <point x="398" y="340"/>
      <point x="288" y="385" type="curve"/>
      <point x="192" y="426"/>
      <point x="113" y="456"/>
      <point x="113" y="543" type="curve"/>
      <point x="113" y="622"/>
      <point x="186" y="661"/>
      <point x="283" y="661" type="curve"/>
      <point x="358" y="661"/>
      <point x="409" y="644"/>
      <point x="473" y="612" type="curve"/>
      <point x="486" y="631"/>
      <point x="473" y="612"/>
      <point x="486" y="631" type="curve"/>
      <point x="418" y="665"/>
      <point x="363" y="683"/>
      <point x="285" y="683" type="curve"/>
      <point x="171" y="683"/>
      <point x="87" y="637"/>
      <point x="87" y="543" type="curve"/>
      <point x="87" y="444"/>
      <point x="170" y="408"/>
      <point x="274" y="365" type="curve"/>
      <point x="376" y="324"/>
      <point x="478" y="289"/>
      <point x="478" y="197" type="curve"/>
      <point x="478" y="108"/>
      <point x="384" y="70"/>
      <point x="267" y="70" type="curve"/>
      <point x="193" y="70"/>
      <point x="129" y="95"/>
      <point x="75" y="119" type="curve"/>
      <point x="62" y="99"/>
      <point x="75" y="119"/>
    </contour>
  </outline>
</glyph>
<glyph name="percent" format="1">
  <advance width="1069"/>
  <unicode hex="0025"/>
  <outline>
    <contour>
      <point x="344" y="-92" type="line"/>
      <point x="789" y="756" type="line"/>
      <point x="760" y="756" type="line"/>
      <point x="315" y="-92" type="line"/>
    </contour>
    <contour>
      <point x="66" y="554" type="curve"/>
      <point x="66" y="663"/>
      <point x="114" y="739"/>
      <point x="217" y="739" type="curve"/>
      <point x="321" y="740"/>
      <point x="368" y="664"/>
      <point x="368" y="555" type="curve"/>
      <point x="368" y="446"/>
      <point x="323" y="367"/>
      <point x="220" y="367" type="curve"/>
      <point x="114" y="367"/>
      <point x="66" y="444"/>
      <point x="66" y="554" type="curve"/>
      <point x="57" y="554"/>
      <point x="51" y="554"/>
      <point x="42" y="554" type="curve"/>
      <point x="42" y="430"/>
      <point x="100" y="345"/>
      <point x="218" y="345" type="curve"/>
      <point x="336" y="345"/>
      <point x="393" y="431"/>
      <point x="393" y="556" type="curve"/>
      <point x="393" y="678"/>
      <point x="336" y="762"/>
      <point x="219" y="762" type="curve"/>
      <point x="100" y="762"/>
      <point x="42" y="677"/>
      <point x="42" y="554" type="curve"/>
      <point x="51" y="554"/>
      <point x="57" y="554"/>
    </contour>
    <contour>
      <point x="700" y="109" type="curve"/>
      <point x="700" y="218"/>
      <point x="748" y="295"/>
      <point x="851" y="295" type="curve"/>
      <point x="955" y="296"/>
      <point x="1002" y="219"/>
      <point x="1002" y="110" type="curve"/>
      <point x="1002" y="1"/>
      <point x="957" y="-77"/>
      <point x="853" y="-77" type="curve"/>
      <point x="748" y="-77"/>
      <point x="700" y="-1"/>
      <point x="700" y="109" type="curve"/>
      <point x="691" y="109"/>
      <point x="685" y="109"/>
      <point x="676" y="109" type="curve"/>
      <point x="676" y="-14"/>
      <point x="734" y="-99"/>
      <point x="852" y="-99" type="curve"/>
      <point x="970" y="-99"/>
      <point x="1027" y="-13"/>
      <point x="1027" y="111" type="curve"/>
      <point x="1027" y="233"/>
      <point x="970" y="317"/>
      <point x="852" y="317" type="curve"/>
      <point x="734" y="317"/>
      <point x="676" y="232"/>
      <point x="676" y="109" type="curve"/>
      <point x="685" y="109"/>
      <point x="691" y="109"/>
    </contour>
  </outline>
</glyph>
<glyph name="ampersand" format="1">
  <advance width="683"/>
  <unicode hex="0026"/>
  <outline>
    <contour>
      <point x="660" y="9" type="line"/>
      <point x="541" y="124"/>
      <point x="430" y="234"/>
      <point x="311" y="349" type="curve"/>
      <point x="244" y="421"/>
      <point x="161" y="475"/>
      <point x="161" y="577" type="curve"/>
      <point x="161" y="652"/>
      <point x="209" y="704"/>
      <point x="283" y="704" type="curve"/>
      <point x="363" y="704"/>
      <point x="418" y="657"/>
      <point x="418" y="579" type="curve"/>
      <point x="418" y="480"/>
      <point x="338" y="437"/>
      <point x="250" y="388" type="curve"/>
      <point x="152" y="332"/>
      <point x="64" y="287"/>
      <point x="64" y="177" type="curve"/>
      <point x="64" y="60"/>
      <point x="154" y="-5"/>
      <point x="277" y="-5" type="curve"/>
      <point x="465" y="-5"/>
      <point x="562" y="132"/>
      <point x="623" y="318" type="curve"/>
      <point x="601" y="323"/>
      <point x="623" y="318"/>
      <point x="601" y="323" type="curve"/>
      <point x="543" y="149"/>
      <point x="450" y="18"/>
      <point x="278" y="18" type="curve"/>
      <point x="170" y="18"/>
      <point x="90" y="73"/>
      <point x="90" y="177" type="curve"/>
      <point x="90" y="279"/>
      <point x="173" y="318"/>
      <point x="262" y="369" type="curve"/>
      <point x="357" y="424"/>
      <point x="442" y="471"/>
      <point x="443" y="579" type="curve"/>
      <point x="443" y="672"/>
      <point x="378" y="726"/>
      <point x="284" y="726" type="curve"/>
      <point x="194" y="726"/>
      <point x="136" y="667"/>
      <point x="136" y="577" type="curve"/>
      <point x="136" y="469"/>
      <point x="220" y="411"/>
      <point x="293" y="336" type="curve"/>
      <point x="409" y="222"/>
      <point x="528" y="106"/>
      <point x="643" y="-7" type="curve"/>
    </contour>
  </outline>
</glyph>
<glyph name="quotesingle" format="1">
  <advance width="219"/>
  <unicode hex="0027"/>
  <outline>
    <contour>
      <point x="122" y="600" type="line"/>
      <point x="125" y="788" type="line"/>
      <point x="94" y="788" type="line"/>
      <point x="97" y="600" type="line"/>
    </contour>
  </outline>
</glyph>
<glyph name="parenleft" format="1">
  <advance width="347"/>
  <unicode hex="0028"/>
  <outline>
    <contour>
      <point x="332" y="-236" type="curve"/>
      <point x="162" y="-71"/>
      <point x="86" y="88"/>
      <point x="86" y="326" type="curve"/>
      <point x="86" y="564"/>
      <point x="163" y="721"/>
      <point x="331" y="889" type="curve"/>
      <point x="315" y="903"/>
      <point x="331" y="889"/>
      <point x="315" y="903" type="curve"/>
      <point x="140" y="734"/>
      <point x="59" y="572"/>
      <point x="59" y="326" type="curve"/>
      <point x="59" y="80"/>
      <point x="141" y="-81"/>
      <point x="316" y="-251" type="curve"/>
      <point x="332" y="-236"/>
      <point x="316" y="-251"/>
    </contour>
  </outline>
</glyph>
<glyph name="parenright" format="1">
  <advance width="360"/>
  <unicode hex="0029"/>
  <outline>
    <contour>
      <point x="30" y="-267" type="curve"/>
      <point x="208" y="-89"/>
      <point x="301" y="72"/>
      <point x="301" y="327" type="curve"/>
      <point x="301" y="575"/>
      <point x="215" y="736"/>
      <point x="35" y="903" type="curve"/>
      <point x="18" y="888"/>
      <point x="35" y="903"/>
      <point x="18" y="888" type="curve"/>
      <point x="192" y="722"/>
      <point x="274" y="566"/>
      <point x="274" y="326" type="curve"/>
      <point x="274" y="80"/>
      <point x="182" y="-76"/>
      <point x="13" y="-252" type="curve"/>
      <point x="30" y="-267"/>
      <point x="13" y="-252"/>
    </contour>
  </outline>
</glyph>
<glyph name="asterisk" format="1">
  <advance width="667"/>
  <unicode hex="002A"/>
  <outline>
    <contour>
      <point x="343" y="594" type="line"/>
      <point x="346" y="782" type="line"/>
      <point x="315" y="782" type="line"/>
      <point x="318" y="594" type="line"/>
    </contour>
    <contour>
      <point x="400" y="541" type="line"/>
      <point x="580" y="597" type="line"/>
      <point x="571" y="626" type="line"/>
      <point x="393" y="565" type="line"/>
    </contour>
    <contour>
      <point x="368" y="471" type="line"/>
      <point x="476" y="317" type="line"/>
      <point x="501" y="336" type="line"/>
      <point x="388" y="486" type="line"/>
    </contour>
    <contour>
      <point x="290" y="480" type="line"/>
      <point x="177" y="330" type="line"/>
      <point x="202" y="311" type="line"/>
      <point x="311" y="466" type="line"/>
    </contour>
    <contour>
      <point x="275" y="556" type="line"/>
      <point x="97" y="617" type="line"/>
      <point x="88" y="588" type="line"/>
      <point x="268" y="532" type="line"/>
    </contour>
  </outline>
</glyph>
<glyph name="comma" format="1">
  <advance width="193"/>
  <unicode hex="002C"/>
  <outline>
    <contour>
      <point x="48" y="-113" type="line"/>
      <point x="77" y="-88"/>
      <point x="102" y="-56"/>
      <point x="102" y="-4" type="curve"/>
      <point x="102" y="17"/>
      <point x="98" y="35"/>
      <point x="79" y="35" type="curve"/>
      <point x="65" y="35"/>
      <point x="58" y="28"/>
      <point x="58" y="16" type="curve"/>
      <point x="58" y="6"/>
      <point x="62" y="0"/>
      <point x="74" y="-5" type="curve"/>
      <point x="74" y="-29"/>
      <point x="62" y="-69"/>
      <point x="32" y="-94" type="curve"/>
    </contour>
  </outline>
</glyph>
<glyph name="hyphen" format="1">
  <advance width="481"/>
  <unicode hex="002D"/>
  <outline>
    <contour>
      <point x="89" y="260" type="curve"/>
      <point x="190" y="260"/>
      <point x="292" y="260"/>
      <point x="393" y="260" type="curve"/>
      <point x="393" y="285"/>
      <point x="393" y="260"/>
      <point x="393" y="285" type="curve"/>
      <point x="292" y="285"/>
      <point x="190" y="285"/>
      <point x="89" y="285" type="curve"/>
      <point x="89" y="260"/>
      <point x="89" y="285"/>
    </contour>
  </outline>
</glyph>
<glyph name="period" format="1">
  <advance width="210"/>
  <unicode hex="002E"/>
  <outline>
    <contour>
      <point x="124" y="13" type="curve"/>
      <point x="124" y="24"/>
      <point x="116" y="31"/>
      <point x="104" y="31" type="curve"/>
      <point x="93" y="31"/>
      <point x="86" y="23"/>
      <point x="86" y="13" type="curve"/>
      <point x="111" y="13"/>
      <point x="99" y="13"/>
      <point x="124" y="13" type="curve"/>
      <point x="124" y="1"/>
      <point x="116" y="-6"/>
      <point x="104" y="-6" type="curve"/>
      <point x="93" y="-6"/>
      <point x="86" y="1"/>
      <point x="86" y="13" type="curve"/>
      <point x="111" y="13"/>
      <point x="99" y="13"/>
    </contour>
  </outline>
</glyph>
<glyph name="slash" format="1">
  <advance width="549"/>
  <unicode hex="002F"/>
  <outline>
    <contour>
      <point x="65" y="-66" type="curve"/>
      <point x="213" y="236"/>
      <point x="362" y="540"/>
      <point x="510" y="842" type="curve"/>
      <point x="485" y="842"/>
      <point x="510" y="842"/>
      <point x="485" y="842" type="curve"/>
      <point x="336" y="540"/>
      <point x="188" y="236"/>
      <point x="39" y="-66" type="curve"/>
      <point x="65" y="-66"/>
      <point x="39" y="-66"/>
    </contour>
  </outline>
</glyph>
<glyph name="zero" format="1">
  <advance width="726"/>
  <unicode hex="0030"/>
  <outline>
    <contour>
      <point x="96" y="360" type="curve"/>
      <point x="96" y="561"/>
      <point x="175" y="703"/>
      <point x="363" y="703" type="curve"/>
      <point x="550" y="703"/>
      <point x="629" y="561"/>
      <point x="629" y="362" type="curve"/>
      <point x="629" y="163"/>
      <point x="549" y="20"/>
      <point x="366" y="20" type="curve"/>
      <point x="181" y="20"/>
      <point x="96" y="160"/>
      <point x="96" y="360" type="curve"/>
      <point x="71" y="360"/>
      <point x="94" y="360"/>
      <point x="69" y="360" type="curve"/>
      <point x="69" y="144"/>
      <point x="160" y="-5"/>
      <point x="365" y="-5" type="curve"/>
      <point x="568" y="-5"/>
      <point x="655" y="147"/>
      <point x="655" y="363" type="curve"/>
      <point x="655" y="578"/>
      <point x="567" y="727"/>
      <point x="365" y="727" type="curve"/>
      <point x="159" y="727"/>
      <point x="69" y="577"/>
      <point x="69" y="360" type="curve"/>
      <point x="94" y="360"/>
      <point x="71" y="360"/>
    </contour>
  </outline>
</glyph>
<glyph name="one" format="1">
  <advance width="442"/>
  <unicode hex="0031"/>
  <outline>
    <contour>
      <point x="271" y="0" type="curve"/>
      <point x="319" y="0"/>
      <point x="366" y="0"/>
      <point x="415" y="0" type="curve"/>
      <point x="415" y="23"/>
      <point x="415" y="0"/>
      <point x="415" y="23" type="curve"/>
      <point x="271" y="23"/>
      <point x="415" y="23"/>
      <point x="271" y="23" type="curve"/>
      <point x="271" y="0"/>
      <point x="271" y="23"/>
    </contour>
    <contour>
      <point x="271" y="23" type="curve"/>
      <point x="124" y="23"/>
      <point x="271" y="23"/>
      <point x="124" y="23" type="curve"/>
      <point x="124" y="0"/>
      <point x="124" y="23"/>
      <point x="124" y="0" type="curve"/>
      <point x="173" y="0"/>
      <point x="222" y="0"/>
      <point x="271" y="0" type="curve"/>
      <point x="271" y="23"/>
      <point x="271" y="0"/>
    </contour>
    <contour>
      <point x="63" y="535" type="curve"/>
      <point x="278" y="709"/>
      <point x="63" y="535"/>
      <point x="278" y="709" type="curve"/>
      <point x="257" y="722"/>
      <point x="278" y="709"/>
      <point x="257" y="722" type="curve"/>
      <point x="47" y="553"/>
      <point x="257" y="722"/>
      <point x="47" y="553" type="curve"/>
      <point x="63" y="535"/>
      <point x="47" y="553"/>
    </contour>
    <contour>
      <point x="282" y="0" type="curve"/>
      <point x="282" y="241"/>
      <point x="282" y="481"/>
      <point x="282" y="722" type="curve"/>
      <point x="257" y="722"/>
      <point x="282" y="722"/>
      <point x="257" y="722" type="curve"/>
      <point x="257" y="481"/>
      <point x="257" y="241"/>
      <point x="257" y="0" type="curve"/>
      <point x="282" y="0"/>
      <point x="257" y="0"/>
    </contour>
  </outline>
</glyph>
<glyph name="two" format="1">
  <advance width="588"/>
  <unicode hex="0032"/>
  <outline>
    <contour>
      <point x="513" y="23" type="curve"/>
      <point x="513" y="143"/>
      <point x="513" y="23"/>
      <point x="513" y="143" type="curve"/>
      <point x="490" y="143"/>
      <point x="513" y="143"/>
      <point x="490" y="143" type="curve"/>
      <point x="490" y="23"/>
      <point x="490" y="143"/>
      <point x="490" y="23" type="curve"/>
      <point x="513" y="23"/>
      <point x="490" y="23"/>
    </contour>
    <contour>
      <point x="51" y="0" type="curve"/>
      <point x="215" y="0"/>
      <point x="354" y="0"/>
      <point x="513" y="0" type="curve"/>
      <point x="513" y="23"/>
      <point x="513" y="0"/>
      <point x="513" y="23" type="curve"/>
      <point x="350" y="23"/>
      <point x="214" y="23"/>
      <point x="51" y="23" type="curve"/>
      <point x="51" y="0"/>
      <point x="51" y="23"/>
    </contour>
    <contour>
      <point x="93" y="562" type="curve"/>
      <point x="142" y="646"/>
      <point x="195" y="702"/>
      <point x="290" y="702" type="curve"/>
      <point x="400" y="702"/>
      <point x="464" y="639"/>
      <point x="464" y="526" type="curve"/>
      <point x="464" y="398"/>
      <point x="373" y="306"/>
      <point x="289" y="238" type="curve"/>
      <point x="210" y="166"/>
      <point x="130" y="94"/>
      <point x="51" y="23" type="curve"/>
      <point x="62" y="0"/>
      <point x="51" y="23"/>
      <point x="62" y="0" type="curve"/>
      <point x="143" y="73"/>
      <point x="224" y="146"/>
      <point x="305" y="220" type="curve"/>
      <point x="395" y="293"/>
      <point x="489" y="385"/>
      <point x="489" y="527" type="curve"/>
      <point x="489" y="654"/>
      <point x="417" y="727"/>
      <point x="292" y="727" type="curve"/>
      <point x="187" y="727"/>
      <point x="120" y="667"/>
      <point x="72" y="575" type="curve"/>
      <point x="93" y="562"/>
      <point x="72" y="575"/>
    </contour>
  </outline>
</glyph>
<glyph name="three" format="1">
  <advance width="553"/>
  <unicode hex="0033"/>
  <outline>
    <contour>
      <point x="62" y="56" type="curve"/>
      <point x="125" y="17"/>
      <point x="177" y="-5"/>
      <point x="253" y="-5" type="curve"/>
      <point x="395" y="-5"/>
      <point x="487" y="55"/>
      <point x="487" y="195" type="curve"/>
      <point x="487" y="330"/>
      <point x="349" y="390"/>
      <point x="159" y="390" type="curve"/>
      <point x="159" y="376"/>
      <point x="159" y="385"/>
      <point x="159" y="370" type="curve"/>
      <point x="317" y="370"/>
      <point x="462" y="318"/>
      <point x="462" y="194" type="curve"/>
      <point x="462" y="70"/>
      <point x="366" y="21"/>
      <point x="254" y="21" type="curve"/>
      <point x="185" y="21"/>
      <point x="139" y="40"/>
      <point x="75" y="75" type="curve"/>
      <point x="62" y="56"/>
      <point x="75" y="75"/>
    </contour>
    <contour>
      <point x="86" y="626" type="curve"/>
      <point x="123" y="665"/>
      <point x="180" y="701"/>
      <point x="250" y="701" type="curve"/>
      <point x="357" y="701"/>
      <point x="428" y="655"/>
      <point x="428" y="553" type="curve"/>
      <point x="428" y="446"/>
      <point x="302" y="394"/>
      <point x="159" y="394" type="curve"/>
      <point x="159" y="380"/>
      <point x="159" y="389"/>
      <point x="159" y="375" type="curve"/>
      <point x="323" y="375"/>
      <point x="453" y="429"/>
      <point x="453" y="554" type="curve"/>
      <point x="453" y="670"/>
      <point x="373" y="727"/>
      <point x="252" y="727" type="curve"/>
      <point x="174" y="727"/>
      <point x="108" y="685"/>
      <point x="69" y="641" type="curve"/>
      <point x="86" y="626"/>
      <point x="69" y="641"/>
    </contour>
  </outline>
</glyph>
<glyph name="four" format="1">
  <advance width="646"/>
  <unicode hex="0034"/>
  <outline>
    <contour>
      <point x="387" y="23" type="line"/>
      <point x="245" y="23" type="line"/>
      <point x="245" y="0" type="line"/>
      <point x="387" y="0" type="line"/>
    </contour>
    <contour>
      <point x="387" y="0" type="line"/>
      <point x="525" y="0" type="line"/>
      <point x="525" y="23" type="line"/>
      <point x="387" y="23" type="line"/>
    </contour>
    <contour>
      <point x="51" y="271" type="line"/>
      <point x="397" y="713" type="line"/>
      <point x="376" y="722" type="line"/>
      <point x="33" y="288" type="line"/>
    </contour>
    <contour>
      <point x="593" y="288" type="line"/>
      <point x="33" y="288" type="line"/>
      <point x="33" y="264" type="line"/>
      <point x="593" y="264" type="line"/>
    </contour>
    <contour>
      <point x="401" y="1" type="line"/>
      <point x="401" y="722" type="line"/>
      <point x="376" y="722" type="line"/>
      <point x="376" y="1" type="line"/>
    </contour>
  </outline>
</glyph>
<glyph name="six" format="1">
  <advance width="590"/>
  <unicode hex="0036"/>
  <outline>
    <contour>
      <point x="85" y="230" type="curve"/>
      <point x="124" y="323"/>
      <point x="198" y="385"/>
      <point x="301" y="385" type="curve"/>
      <point x="420" y="385"/>
      <point x="491" y="320"/>
      <point x="491" y="202" type="curve"/>
      <point x="491" y="93"/>
      <point x="420" y="21"/>
      <point x="306" y="21" type="curve"/>
      <point x="169" y="21"/>
      <point x="89" y="104"/>
      <point x="89" y="242" type="curve"/>
      <point x="89" y="506"/>
      <point x="272" y="639"/>
      <point x="528" y="715" type="curve"/>
      <point x="521" y="736"/>
      <point x="528" y="715"/>
      <point x="521" y="736" type="curve"/>
      <point x="251" y="660"/>
      <point x="62" y="519"/>
      <point x="62" y="241" type="curve"/>
      <point x="62" y="88"/>
      <point x="153" y="-5"/>
      <point x="305" y="-5" type="curve"/>
      <point x="438" y="-5"/>
      <point x="518" y="73"/>
      <point x="518" y="203" type="curve"/>
      <point x="518" y="335"/>
      <point x="436" y="409"/>
      <point x="303" y="409" type="curve"/>
      <point x="185" y="409"/>
      <point x="105" y="344"/>
      <point x="66" y="241" type="curve"/>
      <point x="84" y="230"/>
      <point x="67" y="241"/>
    </contour>
  </outline>
</glyph>
<glyph name="seven" format="1">
  <advance width="569"/>
  <unicode hex="0037"/>
  <outline>
    <contour>
      <point x="75" y="589" type="curve"/>
      <point x="75" y="709" type="curve"/>
      <point x="52" y="709" type="curve"/>
      <point x="52" y="589" type="curve"/>
    </contour>
    <contour>
      <point x="52" y="699" type="curve"/>
      <point x="549" y="699" type="curve"/>
      <point x="549" y="722" type="curve"/>
      <point x="52" y="722" type="curve"/>
    </contour>
    <contour>
      <point x="534" y="722" type="curve"/>
      <point x="97" y="0" type="curve"/>
      <point x="127" y="0" type="curve"/>
      <point x="549" y="699" type="curve"/>
    </contour>
  </outline>
</glyph>
<glyph name="eight" format="1">
  <advance width="563"/>
  <unicode hex="0038"/>
  <outline>
    <contour>
      <point x="88" y="563" type="curve"/>
      <point x="88" y="451"/>
      <point x="171" y="419"/>
      <point x="274" y="369" type="curve"/>
      <point x="381" y="317"/>
      <point x="469" y="280"/>
      <point x="469" y="169" type="curve"/>
      <point x="469" y="63"/>
      <point x="393" y="19"/>
      <point x="279" y="19" type="curve"/>
      <point x="166" y="19"/>
      <point x="93" y="64"/>
      <point x="93" y="169" type="curve"/>
      <point x="93" y="283"/>
      <point x="182" y="316"/>
      <point x="291" y="369" type="curve"/>
      <point x="391" y="420"/>
      <point x="474" y="451"/>
      <point x="474" y="561" type="curve"/>
      <point x="474" y="675"/>
      <point x="401" y="727"/>
      <point x="279" y="727" type="curve"/>
      <point x="163" y="727"/>
      <point x="88" y="673"/>
      <point x="88" y="563" type="curve"/>
      <point x="113" y="563"/>
      <point x="88" y="563"/>
      <point x="113" y="563" type="curve"/>
      <point x="113" y="657"/>
      <point x="178" y="703"/>
      <point x="278" y="703" type="curve"/>
      <point x="384" y="703"/>
      <point x="449" y="660"/>
      <point x="449" y="561" type="curve"/>
      <point x="449" y="463"/>
      <point x="369" y="432"/>
      <point x="274" y="387" type="curve"/>
      <point x="160" y="330"/>
      <point x="68" y="295"/>
      <point x="68" y="169" type="curve"/>
      <point x="68" y="50"/>
      <point x="150" y="-5"/>
      <point x="278" y="-5" type="curve"/>
      <point x="408" y="-5"/>
      <point x="495" y="47"/>
      <point x="495" y="169" type="curve"/>
      <point x="495" y="292"/>
      <point x="404" y="331"/>
      <point x="291" y="387" type="curve"/>
      <point x="195" y="435"/>
      <point x="113" y="462"/>
      <point x="113" y="563" type="curve"/>
      <point x="88" y="563"/>
      <point x="113" y="563"/>
    </contour>
  </outline>
</glyph>
<glyph name="nine" format="1">
  <advance width="589"/>
  <unicode hex="0039"/>
  <outline>
    <contour>
      <point x="506" y="491" type="curve"/>
      <point x="462" y="398"/>
      <point x="398" y="337"/>
      <point x="289" y="337" type="curve"/>
      <point x="170" y="337"/>
      <point x="99" y="402"/>
      <point x="99" y="520" type="curve"/>
      <point x="99" y="634"/>
      <point x="169" y="702"/>
      <point x="283" y="702" type="curve"/>
      <point x="421" y="702"/>
      <point x="501" y="617"/>
      <point x="501" y="480" type="curve"/>
      <point x="501" y="216"/>
      <point x="328" y="73"/>
      <point x="64" y="9" type="curve"/>
      <point x="71" y="-15"/>
      <point x="64" y="9"/>
      <point x="71" y="-15" type="curve"/>
      <point x="348" y="50"/>
      <point x="526" y="203"/>
      <point x="526" y="481" type="curve"/>
      <point x="526" y="634"/>
      <point x="438" y="727"/>
      <point x="284" y="727" type="curve"/>
      <point x="152" y="727"/>
      <point x="73" y="649"/>
      <point x="73" y="519" type="curve"/>
      <point x="73" y="387"/>
      <point x="153" y="313"/>
      <point x="287" y="313" type="curve"/>
      <point x="405" y="313"/>
      <point x="480" y="374"/>
      <point x="520" y="483" type="curve"/>
      <point x="506" y="491"/>
      <point x="520" y="483"/>
    </contour>
  </outline>
</glyph>
<glyph name="colon" format="1">
  <advance width="216"/>
  <unicode hex="003A"/>
  <outline>
    <contour>
      <point x="127" y="419" type="curve"/>
      <point x="127" y="430"/>
      <point x="119" y="437"/>
      <point x="107" y="437" type="curve"/>
      <point x="96" y="437"/>
      <point x="89" y="430"/>
      <point x="89" y="419" type="curve"/>
      <point x="114" y="419"/>
      <point x="102" y="419"/>
      <point x="127" y="419" type="curve"/>
      <point x="127" y="408"/>
      <point x="119" y="401"/>
      <point x="107" y="401" type="curve"/>
      <point x="96" y="401"/>
      <point x="89" y="408"/>
      <point x="89" y="419" type="curve"/>
      <point x="114" y="419"/>
      <point x="102" y="419"/>
    </contour>
    <contour>
      <point x="127" y="13" type="curve"/>
      <point x="127" y="24"/>
      <point x="119" y="31"/>
      <point x="107" y="31" type="curve"/>
      <point x="96" y="31"/>
      <point x="89" y="24"/>
      <point x="89" y="13" type="curve"/>
      <point x="114" y="13"/>
      <point x="102" y="13"/>
      <point x="127" y="13" type="curve"/>
      <point x="127" y="2"/>
      <point x="119" y="-5"/>
      <point x="107" y="-5" type="curve"/>
      <point x="96" y="-5"/>
      <point x="89" y="2"/>
      <point x="89" y="13" type="curve"/>
      <point x="114" y="13"/>
      <point x="102" y="13"/>
    </contour>
  </outline>
</glyph>
<glyph name="semicolon" format="1">
  <advance width="259"/>
  <unicode hex="003B"/>
  <outline>
    <contour>
      <point x="95" y="-87" type="line"/>
      <point x="124" y="-62"/>
      <point x="149" y="-30"/>
      <point x="149" y="22" type="curve"/>
      <point x="149" y="43"/>
      <point x="145" y="61"/>
      <point x="126" y="61" type="curve"/>
      <point x="113" y="61"/>
      <point x="106" y="55"/>
      <point x="106" y="42" type="curve"/>
      <point x="106" y="32"/>
      <point x="110" y="26"/>
      <point x="121" y="21" type="curve"/>
      <point x="121" y="-3"/>
      <point x="110" y="-42"/>
      <point x="80" y="-68" type="curve"/>
    </contour>
    <contour>
      <point x="147" y="427" type="curve"/>
      <point x="147" y="439"/>
      <point x="139" y="446"/>
      <point x="128" y="446" type="curve"/>
      <point x="116" y="446"/>
      <point x="109" y="438"/>
      <point x="109" y="427" type="curve"/>
      <point x="135" y="427"/>
      <point x="122" y="427"/>
      <point x="147" y="427" type="curve"/>
      <point x="147" y="416"/>
      <point x="139" y="409"/>
      <point x="128" y="409" type="curve"/>
      <point x="116" y="409"/>
      <point x="109" y="416"/>
      <point x="109" y="427" type="curve"/>
      <point x="135" y="427"/>
      <point x="122" y="427"/>
    </contour>
  </outline>
</glyph>
<glyph name="equal" format="1">
  <advance width="837"/>
  <unicode hex="003D"/>
  <outline>
    <contour>
      <point x="90" y="206" type="curve"/>
      <point x="309" y="206"/>
      <point x="528" y="206"/>
      <point x="747" y="206" type="curve"/>
      <point x="747" y="229"/>
      <point x="747" y="206"/>
      <point x="747" y="229" type="curve"/>
      <point x="528" y="229"/>
      <point x="309" y="229"/>
      <point x="90" y="229" type="curve"/>
      <point x="90" y="206"/>
      <point x="90" y="229"/>
    </contour>
    <contour>
      <point x="90" y="428" type="curve"/>
      <point x="309" y="428"/>
      <point x="528" y="428"/>
      <point x="747" y="428" type="curve"/>
      <point x="747" y="451"/>
      <point x="747" y="428"/>
      <point x="747" y="451" type="curve"/>
      <point x="528" y="451"/>
      <point x="309" y="451"/>
      <point x="90" y="451" type="curve"/>
      <point x="90" y="428"/>
      <point x="90" y="451"/>
    </contour>
  </outline>
</glyph>
<glyph name="greater" format="1">
  <advance width="747"/>
  <unicode hex="003E"/>
  <outline>
    <contour>
      <point x="69" y="23" type="curve"/>
      <point x="281" y="113"/>
      <point x="493" y="203"/>
      <point x="705" y="293" type="curve"/>
      <point x="705" y="319"/>
      <point x="705" y="293"/>
      <point x="705" y="319" type="curve"/>
      <point x="493" y="229"/>
      <point x="281" y="139"/>
      <point x="69" y="49" type="curve"/>
      <point x="69" y="23"/>
      <point x="69" y="49"/>
    </contour>
    <contour>
      <point x="58" y="557" type="curve"/>
      <point x="274" y="469"/>
      <point x="490" y="381"/>
      <point x="705" y="293" type="curve"/>
      <point x="705" y="319"/>
      <point x="705" y="293"/>
      <point x="705" y="319" type="curve"/>
      <point x="490" y="407"/>
      <point x="274" y="495"/>
      <point x="58" y="583" type="curve"/>
      <point x="58" y="557"/>
      <point x="58" y="583"/>
    </contour>
  </outline>
</glyph>
<glyph name="question" format="1">
  <advance width="497"/>
  <unicode hex="003F"/>
  <outline>
    <contour>
      <point x="202" y="334" type="curve"/>
      <point x="202" y="297"/>
      <point x="202" y="259"/>
      <point x="202" y="222" type="curve"/>
      <point x="228" y="222"/>
      <point x="202" y="222"/>
      <point x="228" y="222" type="curve"/>
      <point x="228" y="259"/>
      <point x="228" y="297"/>
      <point x="228" y="334" type="curve"/>
      <point x="202" y="334"/>
      <point x="228" y="334"/>
    </contour>
    <contour>
      <point x="82" y="625" type="line"/>
      <point x="114" y="659"/>
      <point x="163" y="687"/>
      <point x="225" y="687" type="curve"/>
      <point x="333" y="687"/>
      <point x="405" y="625"/>
      <point x="405" y="519" type="curve"/>
      <point x="405" y="402"/>
      <point x="325" y="334"/>
      <point x="204" y="334" type="curve"/>
      <point x="204" y="319"/>
      <point x="204" y="326"/>
      <point x="204" y="311" type="curve"/>
      <point x="339" y="311"/>
      <point x="430" y="388"/>
      <point x="430" y="519" type="curve"/>
      <point x="430" y="639"/>
      <point x="348" y="710"/>
      <point x="227" y="710" type="curve"/>
      <point x="155" y="710"/>
      <point x="103" y="680"/>
      <point x="65" y="641" type="curve"/>
    </contour>
    <contour>
      <point x="231" y="12" type="curve"/>
      <point x="231" y="22"/>
      <point x="225" y="28"/>
      <point x="214" y="28" type="curve"/>
      <point x="204" y="28"/>
      <point x="198" y="21"/>
      <point x="198" y="12" type="curve"/>
      <point x="231" y="12"/>
      <point x="198" y="12"/>
      <point x="231" y="12" type="curve"/>
      <point x="231" y="1"/>
      <point x="225" y="-4"/>
      <point x="214" y="-4" type="curve"/>
      <point x="204" y="-4"/>
      <point x="198" y="2"/>
      <point x="198" y="12" type="curve"/>
      <point x="231" y="12"/>
      <point x="198" y="12"/>
    </contour>
  </outline>
</glyph>
<glyph name="at" format="1">
  <advance width="834"/>
  <unicode hex="0040"/>
  <outline>
    <contour>
      <point x="596" y="-87" type="curve"/>
      <point x="538" y="-118"/>
      <point x="495" y="-124"/>
      <point x="430" y="-124" type="curve"/>
      <point x="213" y="-124"/>
      <point x="87" y="-7"/>
      <point x="87" y="205" type="curve"/>
      <point x="87" y="414"/>
      <point x="215" y="530"/>
      <point x="428" y="530" type="curve"/>
      <point x="628" y="530"/>
      <point x="744" y="414"/>
      <point x="744" y="216" type="curve"/>
      <point x="744" y="130"/>
      <point x="725" y="60"/>
      <point x="659" y="60" type="curve"/>
      <point x="588" y="60"/>
      <point x="567" y="127"/>
      <point x="567" y="210" type="curve"/>
      <point x="567" y="315"/>
      <point x="515" y="383"/>
      <point x="413" y="383" type="curve"/>
      <point x="305" y="383"/>
      <point x="247" y="318"/>
      <point x="247" y="211" type="curve"/>
      <point x="247" y="99"/>
      <point x="301" y="27"/>
      <point x="409" y="27" type="curve"/>
      <point x="507" y="27"/>
      <point x="547" y="98"/>
      <point x="562" y="200" type="curve"/>
      <point x="547" y="204"/>
      <point x="562" y="200"/>
      <point x="547" y="204" type="curve"/>
      <point x="526" y="117"/>
      <point x="494" y="50"/>
      <point x="413" y="50" type="curve"/>
      <point x="316" y="50"/>
      <point x="272" y="113"/>
      <point x="272" y="212" type="curve"/>
      <point x="272" y="305"/>
      <point x="320" y="360"/>
      <point x="410" y="360" type="curve"/>
      <point x="500" y="360"/>
      <point x="544" y="302"/>
      <point x="544" y="209" type="curve"/>
      <point x="544" y="113"/>
      <point x="569" y="39"/>
      <point x="657" y="39" type="curve"/>
      <point x="746" y="39"/>
      <point x="769" y="116"/>
      <point x="769" y="218" type="curve"/>
      <point x="769" y="431"/>
      <point x="646" y="554"/>
      <point x="430" y="554" type="curve"/>
      <point x="199" y="554"/>
      <point x="61" y="431"/>
      <point x="61" y="204" type="curve"/>
      <point x="61" y="-22"/>
      <point x="198" y="-147"/>
      <point x="428" y="-147" type="curve"/>
      <point x="498" y="-147"/>
      <point x="545" y="-139"/>
      <point x="607" y="-108" type="curve"/>
      <point x="596" y="-87"/>
      <point x="607" y="-108"/>
    </contour>
  </outline>
</glyph>
<glyph name="B" format="1">
  <advance width="677"/>
  <unicode hex="0042"/>
  <outline>
    <contour>
      <point x="184" y="722" type="curve"/>
      <point x="133" y="722"/>
      <point x="92" y="722"/>
      <point x="41" y="722" type="curve"/>
      <point x="41" y="699"/>
      <point x="41" y="722"/>
      <point x="41" y="699" type="curve"/>
      <point x="193" y="699"/>
      <point x="32" y="699"/>
      <point x="184" y="699" type="curve"/>
      <point x="184" y="722"/>
      <point x="184" y="699"/>
    </contour>
    <contour>
      <point x="183" y="23" type="curve"/>
      <point x="31" y="23"/>
      <point x="192" y="23"/>
      <point x="40" y="23" type="curve"/>
      <point x="40" y="0"/>
      <point x="40" y="23"/>
      <point x="40" y="0" type="curve"/>
      <point x="91" y="0"/>
      <point x="132" y="0"/>
      <point x="183" y="0" type="curve"/>
      <point x="183" y="23"/>
      <point x="183" y="0"/>
    </contour>
    <contour>
      <point x="172" y="699" type="curve"/>
      <point x="245" y="699"/>
      <point x="310" y="699"/>
      <point x="382" y="699" type="curve"/>
      <point x="476" y="699"/>
      <point x="539" y="649"/>
      <point x="539" y="555" type="curve"/>
      <point x="539" y="460"/>
      <point x="454" y="421"/>
      <point x="354" y="421" type="curve"/>
      <point x="291" y="421"/>
      <point x="235" y="421"/>
      <point x="172" y="421" type="curve"/>
      <point x="172" y="405"/>
      <point x="172" y="415"/>
      <point x="172" y="398" type="curve"/>
      <point x="231" y="398"/>
      <point x="284" y="398"/>
      <point x="343" y="398" type="curve"/>
      <point x="464" y="398"/>
      <point x="564" y="443"/>
      <point x="564" y="555" type="curve"/>
      <point x="564" y="663"/>
      <point x="493" y="722"/>
      <point x="382" y="722" type="curve"/>
      <point x="310" y="722"/>
      <point x="245" y="722"/>
      <point x="172" y="722" type="curve"/>
      <point x="172" y="706"/>
      <point x="172" y="715"/>
    </contour>
    <contour>
      <point x="195" y="0" type="curve"/>
      <point x="195" y="241"/>
      <point x="195" y="481"/>
      <point x="195" y="722" type="curve"/>
      <point x="168" y="722"/>
      <point x="195" y="722"/>
      <point x="168" y="722" type="curve"/>
      <point x="168" y="481"/>
      <point x="168" y="241"/>
      <point x="168" y="0" type="curve"/>
      <point x="195" y="0"/>
      <point x="168" y="0"/>
    </contour>
    <contour>
      <point x="172" y="398" type="curve"/>
      <point x="235" y="398"/>
      <point x="291" y="398"/>
      <point x="354" y="398" type="curve"/>
      <point x="491" y="398"/>
      <point x="588" y="337"/>
      <point x="588" y="204" type="curve"/>
      <point x="588" y="84"/>
      <point x="507" y="23"/>
      <point x="381" y="23" type="curve"/>
      <point x="309" y="23"/>
      <point x="244" y="23"/>
      <point x="172" y="23" type="curve"/>
      <point x="172" y="7"/>
      <point x="172" y="16"/>
      <point x="172" y="0" type="curve"/>
      <point x="245" y="0"/>
      <point x="309" y="0"/>
      <point x="381" y="0" type="curve"/>
      <point x="522" y="0"/>
      <point x="613" y="69"/>
      <point x="613" y="204" type="curve"/>
      <point x="613" y="355"/>
      <point x="500" y="421"/>
      <point x="344" y="421" type="curve"/>
      <point x="285" y="421"/>
      <point x="231" y="421"/>
      <point x="172" y="421" type="curve"/>
      <point x="172" y="405"/>
      <point x="172" y="415"/>
    </contour>
  </outline>
</glyph>
<glyph name="D" format="1">
  <advance width="787"/>
  <unicode hex="0044"/>
  <outline>
    <contour>
      <point x="185" y="23" type="curve"/>
      <point x="33" y="23"/>
      <point x="194" y="23"/>
      <point x="42" y="23" type="curve"/>
      <point x="42" y="0"/>
      <point x="42" y="23"/>
      <point x="42" y="0" type="curve"/>
      <point x="93" y="0"/>
      <point x="134" y="0"/>
      <point x="185" y="0" type="curve"/>
      <point x="185" y="23"/>
      <point x="185" y="0"/>
    </contour>
    <contour>
      <point x="185" y="722" type="curve"/>
      <point x="134" y="722"/>
      <point x="93" y="722"/>
      <point x="42" y="722" type="curve"/>
      <point x="42" y="699"/>
      <point x="42" y="722"/>
      <point x="42" y="699" type="curve"/>
      <point x="194" y="699"/>
      <point x="33" y="699"/>
      <point x="185" y="699" type="curve"/>
      <point x="185" y="722"/>
      <point x="185" y="699"/>
    </contour>
    <contour>
      <point x="170" y="722" type="curve"/>
      <point x="170" y="481"/>
      <point x="170" y="241"/>
      <point x="170" y="0" type="curve"/>
      <point x="196" y="0"/>
      <point x="170" y="0"/>
      <point x="196" y="0" type="curve"/>
      <point x="196" y="241"/>
      <point x="196" y="481"/>
      <point x="196" y="722" type="curve"/>
      <point x="170" y="722"/>
      <point x="196" y="722"/>
    </contour>
    <contour>
      <point x="185" y="0" type="curve"/>
      <point x="254" y="0"/>
      <point x="314" y="0"/>
      <point x="383" y="0" type="curve"/>
      <point x="607" y="0"/>
      <point x="723" y="128"/>
      <point x="723" y="353" type="curve"/>
      <point x="723" y="588"/>
      <point x="602" y="722"/>
      <point x="370" y="722" type="curve"/>
      <point x="306" y="722"/>
      <point x="248" y="722"/>
      <point x="185" y="722" type="curve"/>
      <point x="185" y="706"/>
      <point x="185" y="715"/>
      <point x="185" y="699" type="curve"/>
      <point x="248" y="699"/>
      <point x="305" y="699"/>
      <point x="369" y="699" type="curve"/>
      <point x="587" y="699"/>
      <point x="698" y="573"/>
      <point x="698" y="352" type="curve"/>
      <point x="698" y="143"/>
      <point x="593" y="23"/>
      <point x="386" y="23" type="curve"/>
      <point x="317" y="23"/>
      <point x="254" y="23"/>
      <point x="185" y="23" type="curve"/>
      <point x="185" y="7"/>
      <point x="185" y="16"/>
    </contour>
    <contour>
      <point x="351" y="824" type="move" name="top"/>
    </contour>
  </outline>
</glyph>
<glyph name="F" format="1">
  <advance width="653"/>
  <unicode hex="0046"/>
  <outline>
    <contour>
      <point x="184" y="0" type="curve"/>
      <point x="234" y="0"/>
      <point x="184" y="0"/>
      <point x="335" y="0" type="curve"/>
      <point x="335" y="23"/>
      <point x="335" y="0"/>
      <point x="335" y="23" type="curve"/>
      <point x="184" y="23"/>
      <point x="335" y="23"/>
      <point x="184" y="23" type="curve"/>
      <point x="184" y="0"/>
      <point x="184" y="23"/>
    </contour>
    <contour>
      <point x="184" y="722" type="curve"/>
      <point x="133" y="722"/>
      <point x="92" y="722"/>
      <point x="41" y="722" type="curve"/>
      <point x="41" y="699"/>
      <point x="41" y="722"/>
      <point x="41" y="699" type="curve"/>
      <point x="193" y="699"/>
      <point x="32" y="699"/>
      <point x="184" y="699" type="curve"/>
      <point x="184" y="722"/>
      <point x="184" y="699"/>
    </contour>
    <contour>
      <point x="184" y="23" type="curve"/>
      <point x="32" y="23"/>
      <point x="193" y="23"/>
      <point x="41" y="23" type="curve"/>
      <point x="41" y="0"/>
      <point x="41" y="23"/>
      <point x="41" y="0" type="curve"/>
      <point x="92" y="0"/>
      <point x="133" y="0"/>
      <point x="184" y="0" type="curve"/>
      <point x="184" y="23"/>
      <point x="184" y="0"/>
    </contour>
    <contour>
      <point x="577" y="711" type="curve"/>
      <point x="577" y="591"/>
      <point x="577" y="715"/>
      <point x="577" y="595" type="curve"/>
      <point x="600" y="595"/>
      <point x="577" y="595"/>
      <point x="600" y="595" type="curve"/>
      <point x="600" y="715"/>
      <point x="600" y="591"/>
      <point x="600" y="711" type="curve"/>
      <point x="577" y="711"/>
      <point x="600" y="711"/>
    </contour>
    <contour>
      <point x="188" y="363" type="curve"/>
      <point x="300" y="363"/>
      <point x="412" y="363"/>
      <point x="524" y="363" type="curve"/>
      <point x="524" y="385"/>
      <point x="524" y="363"/>
      <point x="524" y="385" type="curve"/>
      <point x="412" y="385"/>
      <point x="300" y="385"/>
      <point x="188" y="385" type="curve"/>
      <point x="188" y="363"/>
      <point x="188" y="385"/>
    </contour>
    <contour>
      <point x="196" y="0" type="curve"/>
      <point x="196" y="722" type="line"/>
      <point x="171" y="722"/>
      <point x="196" y="722"/>
      <point x="171" y="722" type="curve"/>
      <point x="171" y="481"/>
      <point x="171" y="241"/>
      <point x="171" y="0" type="curve"/>
      <point x="196" y="0"/>
      <point x="171" y="0"/>
    </contour>
    <contour>
      <point x="172" y="699" type="curve"/>
      <point x="315" y="699"/>
      <point x="457" y="699"/>
      <point x="600" y="699" type="curve"/>
      <point x="600" y="722"/>
      <point x="600" y="699"/>
      <point x="600" y="722" type="curve"/>
      <point x="457" y="722"/>
      <point x="315" y="722"/>
      <point x="172" y="722" type="curve"/>
      <point x="172" y="699"/>
      <point x="172" y="722"/>
    </contour>
  </outline>
</glyph>
<glyph name="G" format="1">
  <advance width="789"/>
  <unicode hex="0047"/>
  <outline>
    <contour>
      <point x="676" y="642" type="curve"/>
      <point x="676" y="522"/>
      <point x="676" y="646"/>
      <point x="676" y="526" type="curve"/>
      <point x="699" y="526"/>
      <point x="676" y="526"/>
      <point x="699" y="526" type="curve"/>
      <point x="699" y="646"/>
      <point x="699" y="522"/>
      <point x="699" y="642" type="curve"/>
      <point x="676" y="642"/>
      <point x="699" y="642"/>
    </contour>
    <contour>
      <point x="708" y="320" type="curve"/>
      <point x="631" y="320"/>
      <point x="554" y="320"/>
      <point x="478" y="320" type="curve"/>
      <point x="478" y="297"/>
      <point x="478" y="320"/>
      <point x="478" y="297" type="curve"/>
      <point x="554" y="297"/>
      <point x="631" y="297"/>
      <point x="708" y="297" type="curve"/>
      <point x="708" y="320"/>
      <point x="708" y="297"/>
    </contour>
    <contour>
      <point x="717" y="77" type="curve"/>
      <point x="717" y="158"/>
      <point x="717" y="238"/>
      <point x="717" y="320" type="curve"/>
      <point x="694" y="320"/>
      <point x="717" y="320"/>
      <point x="694" y="320" type="curve"/>
      <point x="694" y="238"/>
      <point x="694" y="158"/>
      <point x="694" y="77" type="curve"/>
      <point x="717" y="77"/>
      <point x="694" y="77"/>
    </contour>
    <contour>
      <point x="699" y="642" type="curve"/>
      <point x="606" y="700"/>
      <point x="520" y="727"/>
      <point x="410" y="727" type="curve"/>
      <point x="188" y="727"/>
      <point x="66" y="592"/>
      <point x="66" y="365" type="curve"/>
      <point x="66" y="132"/>
      <point x="193" y="-5"/>
      <point x="422" y="-5" type="curve"/>
      <point x="540" y="-5"/>
      <point x="614" y="21"/>
      <point x="717" y="77" type="curve"/>
      <point x="703" y="96"/>
      <point x="717" y="77"/>
      <point x="703" y="96" type="curve"/>
      <point x="614" y="47"/>
      <point x="532" y="20"/>
      <point x="422" y="20" type="curve"/>
      <point x="208" y="20"/>
      <point x="92" y="149"/>
      <point x="92" y="367" type="curve"/>
      <point x="92" y="575"/>
      <point x="205" y="703"/>
      <point x="410" y="703" type="curve"/>
      <point x="515" y="703"/>
      <point x="597" y="677"/>
      <point x="686" y="623" type="curve"/>
      <point x="699" y="642"/>
      <point x="686" y="623"/>
    </contour>
    <contour>
      <point x="410" y="825" type="move" name="top"/>
    </contour>
    <contour>
      <point x="428" y="-35" type="move" name="bottom"/>
    </contour>
  </outline>
</glyph>
<glyph name="H" format="1">
  <advance width="894"/>
  <unicode hex="0048"/>
  <outline>
    <contour>
      <point x="712" y="699" type="curve"/>
      <point x="863" y="699"/>
      <point x="702" y="699"/>
      <point x="854" y="699" type="curve"/>
      <point x="854" y="722"/>
      <point x="854" y="699"/>
      <point x="854" y="722" type="curve"/>
      <point x="804" y="722"/>
      <point x="762" y="722"/>
      <point x="712" y="722" type="curve"/>
      <point x="712" y="699"/>
      <point x="712" y="722"/>
    </contour>
    <contour>
      <point x="712" y="0" type="curve"/>
      <point x="762" y="0"/>
      <point x="804" y="0"/>
      <point x="854" y="0" type="curve"/>
      <point x="854" y="23"/>
      <point x="854" y="0"/>
      <point x="854" y="23" type="curve"/>
      <point x="702" y="23"/>
      <point x="863" y="23"/>
      <point x="712" y="23" type="curve"/>
      <point x="712" y="0"/>
      <point x="712" y="23"/>
    </contour>
    <contour>
      <point x="712" y="23" type="curve"/>
      <point x="560" y="23"/>
      <point x="721" y="23"/>
      <point x="569" y="23" type="curve"/>
      <point x="569" y="0"/>
      <point x="569" y="23"/>
      <point x="569" y="0" type="curve"/>
      <point x="620" y="0"/>
      <point x="661" y="0"/>
      <point x="712" y="0" type="curve"/>
      <point x="712" y="23"/>
      <point x="712" y="0"/>
    </contour>
    <contour>
      <point x="712" y="722" type="curve"/>
      <point x="661" y="722"/>
      <point x="620" y="722"/>
      <point x="569" y="722" type="curve"/>
      <point x="569" y="699"/>
      <point x="569" y="722"/>
      <point x="569" y="699" type="curve"/>
      <point x="721" y="699"/>
      <point x="560" y="699"/>
      <point x="712" y="699" type="curve"/>
      <point x="712" y="722"/>
      <point x="712" y="699"/>
    </contour>
    <contour>
      <point x="183" y="699" type="curve"/>
      <point x="335" y="699"/>
      <point x="174" y="699"/>
      <point x="326" y="699" type="curve"/>
      <point x="326" y="722"/>
      <point x="326" y="699"/>
      <point x="326" y="722" type="curve"/>
      <point x="275" y="722"/>
      <point x="234" y="722"/>
      <point x="183" y="722" type="curve"/>
      <point x="183" y="699"/>
      <point x="183" y="722"/>
    </contour>
    <contour>
      <point x="183" y="722" type="curve"/>
      <point x="133" y="722"/>
      <point x="91" y="722"/>
      <point x="41" y="722" type="curve"/>
      <point x="41" y="699"/>
      <point x="41" y="722"/>
      <point x="41" y="699" type="curve"/>
      <point x="193" y="699"/>
      <point x="32" y="699"/>
      <point x="183" y="699" type="curve"/>
      <point x="183" y="722"/>
      <point x="183" y="699"/>
    </contour>
    <contour>
      <point x="183" y="0" type="curve"/>
      <point x="234" y="0"/>
      <point x="174" y="0"/>
      <point x="326" y="0" type="curve"/>
      <point x="326" y="23"/>
      <point x="326" y="0"/>
      <point x="326" y="23" type="curve"/>
      <point x="174" y="23"/>
      <point x="335" y="23"/>
      <point x="183" y="23" type="curve"/>
      <point x="183" y="0"/>
      <point x="183" y="23"/>
    </contour>
    <contour>
      <point x="183" y="23" type="curve"/>
      <point x="32" y="23"/>
      <point x="193" y="23"/>
      <point x="41" y="23" type="curve"/>
      <point x="41" y="0"/>
      <point x="41" y="23"/>
      <point x="41" y="0" type="curve"/>
      <point x="91" y="0"/>
      <point x="133" y="0"/>
      <point x="183" y="0" type="curve"/>
      <point x="183" y="23"/>
      <point x="183" y="0"/>
    </contour>
    <contour>
      <point x="196" y="0" type="curve"/>
      <point x="196" y="722" type="line"/>
      <point x="171" y="722"/>
      <point x="196" y="722"/>
      <point x="171" y="722" type="curve"/>
      <point x="171" y="481"/>
      <point x="171" y="241"/>
      <point x="171" y="0" type="curve"/>
      <point x="196" y="0"/>
      <point x="171" y="0"/>
    </contour>
    <contour>
      <point x="709" y="374" type="curve"/>
      <point x="533" y="374"/>
      <point x="358" y="374"/>
      <point x="183" y="374" type="curve"/>
      <point x="183" y="352"/>
      <point x="183" y="374"/>
      <point x="183" y="352" type="curve"/>
      <point x="358" y="352"/>
      <point x="533" y="352"/>
      <point x="709" y="352" type="curve"/>
      <point x="709" y="374"/>
      <point x="709" y="352"/>
    </contour>
    <contour>
      <point x="723" y="1" type="curve"/>
      <point x="723" y="241"/>
      <point x="723" y="481"/>
      <point x="723" y="721" type="curve"/>
      <point x="698" y="721"/>
      <point x="723" y="721"/>
      <point x="698" y="721" type="curve"/>
      <point x="698" y="1" type="line"/>
      <point x="723" y="1"/>
      <point x="698" y="1"/>
    </contour>
  </outline>
</glyph>
<glyph name="K" format="1">
  <advance width="740"/>
  <unicode hex="004B"/>
  <outline>
    <contour>
      <point x="571" y="722" type="curve"/>
      <point x="520" y="722"/>
      <point x="487" y="722"/>
      <point x="437" y="722" type="curve"/>
      <point x="437" y="699"/>
      <point x="437" y="722"/>
      <point x="437" y="699" type="curve"/>
      <point x="589" y="699"/>
      <point x="419" y="699"/>
      <point x="571" y="699" type="curve"/>
      <point x="571" y="722"/>
      <point x="571" y="699"/>
    </contour>
    <contour>
      <point x="597" y="0" type="curve"/>
      <point x="646" y="0"/>
      <point x="680" y="0"/>
      <point x="729" y="0" type="curve"/>
      <point x="729" y="23"/>
      <point x="729" y="0"/>
      <point x="729" y="23" type="curve"/>
      <point x="583" y="23"/>
      <point x="744" y="23"/>
      <point x="597" y="23" type="curve"/>
      <point x="597" y="0"/>
      <point x="597" y="23"/>
    </contour>
    <contour>
      <point x="571" y="699" type="curve"/>
      <point x="717" y="699"/>
      <point x="556" y="699"/>
      <point x="703" y="699" type="curve"/>
      <point x="703" y="722"/>
      <point x="703" y="699"/>
      <point x="703" y="722" type="curve"/>
      <point x="653" y="722"/>
      <point x="619" y="722"/>
      <point x="571" y="722" type="curve"/>
      <point x="571" y="699"/>
      <point x="571" y="722"/>
    </contour>
    <contour>
      <point x="183" y="722" type="curve"/>
      <point x="133" y="722"/>
      <point x="92" y="722"/>
      <point x="41" y="722" type="curve"/>
      <point x="41" y="699"/>
      <point x="41" y="722"/>
      <point x="41" y="699" type="curve"/>
      <point x="193" y="699"/>
      <point x="32" y="699"/>
      <point x="183" y="699" type="curve"/>
      <point x="183" y="722"/>
      <point x="183" y="699"/>
    </contour>
    <contour>
      <point x="183" y="699" type="curve"/>
      <point x="336" y="699"/>
      <point x="169" y="699"/>
      <point x="321" y="699" type="curve"/>
      <point x="321" y="722"/>
      <point x="321" y="699"/>
      <point x="321" y="722" type="curve"/>
      <point x="270" y="722"/>
      <point x="234" y="722"/>
      <point x="183" y="722" type="curve"/>
      <point x="183" y="699"/>
      <point x="183" y="722"/>
    </contour>
    <contour>
      <point x="183" y="0" type="curve"/>
      <point x="234" y="0"/>
      <point x="169" y="0"/>
      <point x="321" y="0" type="curve"/>
      <point x="321" y="23"/>
      <point x="321" y="0"/>
      <point x="321" y="23" type="curve"/>
      <point x="169" y="23"/>
      <point x="336" y="23"/>
      <point x="183" y="23" type="curve"/>
      <point x="183" y="0"/>
      <point x="183" y="23"/>
    </contour>
    <contour>
      <point x="183" y="23" type="curve"/>
      <point x="32" y="23"/>
      <point x="193" y="23"/>
      <point x="41" y="23" type="curve"/>
      <point x="41" y="0"/>
      <point x="41" y="23"/>
      <point x="41" y="0" type="curve"/>
      <point x="92" y="0"/>
      <point x="133" y="0"/>
      <point x="183" y="0" type="curve"/>
      <point x="183" y="23"/>
      <point x="183" y="0"/>
    </contour>
    <contour>
      <point x="569" y="722" type="curve"/>
      <point x="182" y="380" type="line"/>
      <point x="220" y="380"/>
      <point x="183" y="380"/>
      <point x="220" y="380" type="curve"/>
      <point x="608" y="721" type="line"/>
      <point x="568" y="721"/>
      <point x="609" y="722"/>
    </contour>
    <contour>
      <point x="197" y="0" type="curve"/>
      <point x="197" y="722" type="line"/>
      <point x="171" y="722"/>
      <point x="197" y="722"/>
      <point x="171" y="722" type="curve"/>
      <point x="171" y="481"/>
      <point x="171" y="241"/>
      <point x="171" y="0" type="curve"/>
      <point x="197" y="0"/>
      <point x="171" y="0"/>
    </contour>
    <contour>
      <point x="635" y="1" type="curve"/>
      <point x="220" y="380" type="line"/>
      <point x="183" y="380"/>
      <point x="220" y="380"/>
      <point x="182" y="380" type="curve"/>
      <point x="593" y="0" type="line"/>
      <point x="635" y="0"/>
      <point x="592" y="1"/>
    </contour>
    <contour>
      <point x="420" y="-36" type="move" name="bottom"/>
    </contour>
  </outline>
</glyph>
<glyph name="L" format="1">
  <advance width="664"/>
  <unicode hex="004C"/>
  <outline>
    <contour>
      <point x="624" y="11" type="curve"/>
      <point x="624" y="131"/>
      <point x="624" y="7"/>
      <point x="624" y="127" type="curve"/>
      <point x="601" y="127"/>
      <point x="624" y="127"/>
      <point x="601" y="127" type="curve"/>
      <point x="601" y="7"/>
      <point x="601" y="131"/>
      <point x="601" y="11" type="curve"/>
      <point x="624" y="11"/>
      <point x="601" y="11"/>
    </contour>
    <contour>
      <point x="182" y="23" type="curve"/>
      <point x="31" y="23"/>
      <point x="192" y="23"/>
      <point x="40" y="23" type="curve"/>
      <point x="40" y="0"/>
      <point x="40" y="23"/>
      <point x="40" y="0" type="curve"/>
      <point x="90" y="0"/>
      <point x="132" y="0"/>
      <point x="182" y="0" type="curve"/>
      <point x="182" y="23"/>
      <point x="182" y="0"/>
    </contour>
    <contour>
      <point x="182" y="722" type="curve"/>
      <point x="132" y="722"/>
      <point x="90" y="722"/>
      <point x="40" y="722" type="curve"/>
      <point x="40" y="699"/>
      <point x="40" y="722"/>
      <point x="40" y="699" type="curve"/>
      <point x="192" y="699"/>
      <point x="31" y="699"/>
      <point x="182" y="699" type="curve"/>
      <point x="182" y="722"/>
      <point x="182" y="699"/>
    </contour>
    <contour>
      <point x="182" y="699" type="curve"/>
      <point x="334" y="699"/>
      <point x="173" y="699"/>
      <point x="325" y="699" type="curve"/>
      <point x="325" y="722"/>
      <point x="325" y="699"/>
      <point x="325" y="722" type="curve"/>
      <point x="274" y="722"/>
      <point x="233" y="722"/>
      <point x="182" y="722" type="curve"/>
      <point x="182" y="699"/>
      <point x="182" y="722"/>
    </contour>
    <contour>
      <point x="197" y="0" type="curve"/>
      <point x="197" y="241"/>
      <point x="197" y="481"/>
      <point x="197" y="722" type="curve"/>
      <point x="171" y="722"/>
      <point x="197" y="722"/>
      <point x="171" y="722" type="curve"/>
      <point x="171" y="481"/>
      <point x="171" y="241"/>
      <point x="171" y="0" type="curve"/>
      <point x="197" y="0"/>
      <point x="171" y="0"/>
    </contour>
    <contour>
      <point x="182" y="0" type="curve"/>
      <point x="330" y="0"/>
      <point x="476" y="0"/>
      <point x="624" y="0" type="curve"/>
      <point x="624" y="23"/>
      <point x="624" y="0"/>
      <point x="624" y="23" type="curve"/>
      <point x="476" y="23"/>
      <point x="330" y="23"/>
      <point x="182" y="23" type="curve"/>
      <point x="182" y="0"/>
      <point x="182" y="23"/>
    </contour>
    <contour>
      <point x="185" y="825" type="move" name="top"/>
    </contour>
    <contour>
      <point x="365" y="-34" type="move" name="bottom"/>
    </contour>
  </outline>
</glyph>
<glyph name="M" format="1">
  <advance width="1057"/>
  <unicode hex="004D"/>
  <outline>
    <contour>
      <point x="888" y="0" type="curve"/>
      <point x="939" y="0"/>
      <point x="980" y="0"/>
      <point x="1031" y="0" type="curve"/>
      <point x="1031" y="23"/>
      <point x="1031" y="0"/>
      <point x="1031" y="23" type="curve"/>
      <point x="879" y="23"/>
      <point x="1040" y="23"/>
      <point x="888" y="23" type="curve"/>
      <point x="888" y="0"/>
      <point x="888" y="23"/>
    </contour>
    <contour>
      <point x="888" y="23" type="curve"/>
      <point x="736" y="23"/>
      <point x="898" y="23"/>
      <point x="746" y="23" type="curve"/>
      <point x="746" y="0"/>
      <point x="746" y="23"/>
      <point x="746" y="0" type="curve"/>
      <point x="797" y="0"/>
      <point x="838" y="0"/>
      <point x="888" y="0" type="curve"/>
      <point x="888" y="23"/>
      <point x="888" y="0"/>
    </contour>
    <contour>
      <point x="169" y="23" type="curve"/>
      <point x="17" y="23"/>
      <point x="178" y="23"/>
      <point x="26" y="23" type="curve"/>
      <point x="26" y="0"/>
      <point x="26" y="23"/>
      <point x="26" y="0" type="curve"/>
      <point x="77" y="0"/>
      <point x="118" y="0"/>
      <point x="169" y="0" type="curve"/>
      <point x="169" y="23"/>
      <point x="169" y="0"/>
    </contour>
    <contour>
      <point x="231" y="722" type="curve"/>
      <point x="179" y="722"/>
      <point x="138" y="722"/>
      <point x="88" y="722" type="curve"/>
      <point x="88" y="699"/>
      <point x="88" y="722"/>
      <point x="88" y="699" type="curve"/>
      <point x="240" y="699"/>
      <point x="79" y="699"/>
      <point x="231" y="699" type="curve"/>
      <point x="231" y="722"/>
      <point x="231" y="699"/>
    </contour>
    <contour>
      <point x="825" y="699" type="curve"/>
      <point x="977" y="699"/>
      <point x="815" y="699"/>
      <point x="967" y="699" type="curve"/>
      <point x="967" y="722"/>
      <point x="967" y="699"/>
      <point x="967" y="722" type="curve"/>
      <point x="917" y="722"/>
      <point x="875" y="722"/>
      <point x="825" y="722" type="curve"/>
      <point x="825" y="699"/>
      <point x="825" y="722"/>
    </contour>
    <contour>
      <point x="169" y="0" type="curve"/>
      <point x="219" y="0"/>
      <point x="159" y="0"/>
      <point x="311" y="0" type="curve"/>
      <point x="311" y="23"/>
      <point x="311" y="0"/>
      <point x="311" y="23" type="curve"/>
      <point x="159" y="23"/>
      <point x="320" y="23"/>
      <point x="169" y="23" type="curve"/>
      <point x="169" y="0"/>
      <point x="169" y="23"/>
    </contour>
    <contour>
      <point x="900" y="0" type="curve"/>
      <point x="878" y="241"/>
      <point x="857" y="481"/>
      <point x="836" y="722" type="curve"/>
      <point x="812" y="722"/>
      <point x="836" y="722"/>
      <point x="812" y="722" type="curve"/>
      <point x="833" y="481"/>
      <point x="854" y="241"/>
      <point x="875" y="0" type="curve"/>
      <point x="900" y="0"/>
      <point x="875" y="0"/>
    </contour>
    <contour>
      <point x="181" y="0" type="curve"/>
      <point x="201" y="241"/>
      <point x="220" y="481"/>
      <point x="240" y="722" type="curve"/>
      <point x="217" y="722"/>
      <point x="240" y="722"/>
      <point x="217" y="722" type="curve"/>
      <point x="196" y="481"/>
      <point x="175" y="241"/>
      <point x="155" y="0" type="curve"/>
      <point x="181" y="0"/>
      <point x="155" y="0"/>
    </contour>
    <contour>
      <point x="537" y="0" type="curve"/>
      <point x="440" y="241"/>
      <point x="342" y="481"/>
      <point x="243" y="722" type="curve"/>
      <point x="220" y="722"/>
      <point x="242" y="722"/>
      <point x="219" y="722" type="curve"/>
      <point x="317" y="481"/>
      <point x="414" y="241"/>
      <point x="511" y="0" type="curve"/>
      <point x="536" y="0"/>
      <point x="512" y="0"/>
    </contour>
    <contour>
      <point x="546" y="0" type="curve"/>
      <point x="642" y="241"/>
      <point x="738" y="481"/>
      <point x="833" y="722" type="curve"/>
      <point x="810" y="722"/>
      <point x="832" y="722"/>
      <point x="809" y="722" type="curve"/>
      <point x="711" y="481"/>
      <point x="616" y="241"/>
      <point x="519" y="0" type="curve"/>
      <point x="545" y="0"/>
      <point x="520" y="0"/>
    </contour>
  </outline>
</glyph>
<glyph name="O" format="1">
  <advance width="766"/>
  <unicode hex="004F"/>
  <outline>
    <contour>
      <point x="94" y="360" type="curve"/>
      <point x="94" y="560"/>
      <point x="190" y="704"/>
      <point x="382" y="704" type="curve"/>
      <point x="574" y="704"/>
      <point x="672" y="562"/>
      <point x="672" y="363" type="curve"/>
      <point x="672" y="164"/>
      <point x="577" y="19"/>
      <point x="385" y="19" type="curve"/>
      <point x="191" y="19"/>
      <point x="94" y="160"/>
      <point x="94" y="360" type="curve"/>
      <point x="68" y="360"/>
      <point x="94" y="360"/>
      <point x="68" y="360" type="curve"/>
      <point x="68" y="144"/>
      <point x="176" y="-5"/>
      <point x="384" y="-5" type="curve"/>
      <point x="591" y="-5"/>
      <point x="698" y="146"/>
      <point x="698" y="363" type="curve"/>
      <point x="698" y="578"/>
      <point x="590" y="727"/>
      <point x="383" y="727" type="curve"/>
      <point x="175" y="727"/>
      <point x="68" y="576"/>
      <point x="68" y="360" type="curve"/>
      <point x="94" y="360"/>
      <point x="68" y="360"/>
    </contour>
    <contour>
      <point x="382" y="825" type="move" name="top"/>
    </contour>
  </outline>
</glyph>
<glyph name="P" format="1">
  <advance width="634"/>
  <unicode hex="0050"/>
  <outline>
    <contour>
      <point x="185" y="722" type="curve"/>
      <point x="134" y="722"/>
      <point x="93" y="722"/>
      <point x="42" y="722" type="curve"/>
      <point x="42" y="699"/>
      <point x="42" y="722"/>
      <point x="42" y="699" type="curve"/>
      <point x="194" y="699"/>
      <point x="33" y="699"/>
      <point x="185" y="699" type="curve"/>
      <point x="185" y="722"/>
      <point x="185" y="699"/>
    </contour>
    <contour>
      <point x="185" y="23" type="curve"/>
      <point x="33" y="23"/>
      <point x="194" y="23"/>
      <point x="42" y="23" type="curve"/>
      <point x="42" y="0"/>
      <point x="42" y="23"/>
      <point x="42" y="0" type="curve"/>
      <point x="93" y="0"/>
      <point x="134" y="0"/>
      <point x="185" y="0" type="curve"/>
      <point x="185" y="23"/>
      <point x="185" y="0"/>
    </contour>
    <contour>
      <point x="185" y="0" type="curve"/>
      <point x="234" y="0"/>
      <point x="175" y="0"/>
      <point x="326" y="0" type="curve"/>
      <point x="326" y="23"/>
      <point x="326" y="0"/>
      <point x="326" y="23" type="curve"/>
      <point x="175" y="23"/>
      <point x="335" y="23"/>
      <point x="185" y="23" type="curve"/>
      <point x="185" y="0"/>
      <point x="185" y="23"/>
    </contour>
    <contour>
      <point x="182" y="325" type="curve"/>
      <point x="235" y="299"/>
      <point x="286" y="280"/>
      <point x="346" y="280" type="curve"/>
      <point x="484" y="282"/>
      <point x="575" y="357"/>
      <point x="575" y="494" type="curve"/>
      <point x="575" y="639"/>
      <point x="471" y="722"/>
      <point x="321" y="722" type="curve"/>
      <point x="277" y="722"/>
      <point x="232" y="722"/>
      <point x="188" y="722" type="curve"/>
      <point x="188" y="699"/>
      <point x="188" y="722"/>
      <point x="188" y="699" type="curve"/>
      <point x="231" y="699"/>
      <point x="275" y="699"/>
      <point x="318" y="699" type="curve"/>
      <point x="456" y="699"/>
      <point x="550" y="625"/>
      <point x="550" y="493" type="curve"/>
      <point x="550" y="373"/>
      <point x="469" y="303"/>
      <point x="348" y="303" type="curve"/>
      <point x="287" y="303"/>
      <point x="244" y="319"/>
      <point x="190" y="346" type="curve"/>
      <point x="182" y="326"/>
      <point x="190" y="346"/>
    </contour>
    <contour>
      <point x="196" y="0" type="curve"/>
      <point x="196" y="241"/>
      <point x="196" y="481"/>
      <point x="196" y="722" type="curve"/>
      <point x="170" y="722"/>
      <point x="196" y="722"/>
      <point x="170" y="722" type="curve"/>
      <point x="170" y="481"/>
      <point x="170" y="241"/>
      <point x="170" y="0" type="curve"/>
      <point x="196" y="0"/>
      <point x="170" y="0"/>
    </contour>
  </outline>
</glyph>
<glyph name="Q" format="1">
  <advance width="809"/>
  <unicode hex="0051"/>
  <outline>
    <contour>
      <point x="382" y="4" type="curve"/>
      <point x="488" y="-175"/>
      <point x="610" y="-240"/>
      <point x="808" y="-240" type="curve"/>
      <point x="808" y="-216"/>
      <point x="808" y="-240"/>
      <point x="808" y="-216" type="curve"/>
      <point x="621" y="-216"/>
      <point x="507" y="-154"/>
      <point x="405" y="16" type="curve"/>
      <point x="382" y="4"/>
      <point x="405" y="16"/>
    </contour>
    <contour>
      <point x="94" y="360" type="curve"/>
      <point x="94" y="560"/>
      <point x="191" y="702"/>
      <point x="384" y="702" type="curve"/>
      <point x="576" y="702"/>
      <point x="674" y="562"/>
      <point x="674" y="363" type="curve"/>
      <point x="674" y="163"/>
      <point x="579" y="20"/>
      <point x="387" y="20" type="curve"/>
      <point x="193" y="20"/>
      <point x="94" y="160"/>
      <point x="94" y="360" type="curve"/>
      <point x="69" y="360"/>
      <point x="94" y="360"/>
      <point x="69" y="360" type="curve"/>
      <point x="69" y="144"/>
      <point x="178" y="-5"/>
      <point x="386" y="-5" type="curve"/>
      <point x="594" y="-5"/>
      <point x="700" y="147"/>
      <point x="700" y="364" type="curve"/>
      <point x="700" y="579"/>
      <point x="592" y="727"/>
      <point x="385" y="727" type="curve"/>
      <point x="178" y="727"/>
      <point x="69" y="576"/>
      <point x="69" y="360" type="curve"/>
      <point x="94" y="360"/>
      <point x="69" y="360"/>
    </contour>
  </outline>
</glyph>
<glyph name="S" format="1">
  <advance width="587"/>
  <unicode hex="0053"/>
  <outline>
    <contour>
      <point x="464" y="663" type="curve"/>
      <point x="464" y="543"/>
      <point x="464" y="667"/>
      <point x="464" y="547" type="curve"/>
      <point x="487" y="547"/>
      <point x="464" y="547"/>
      <point x="487" y="547" type="curve"/>
      <point x="487" y="667"/>
      <point x="487" y="543"/>
      <point x="487" y="663" type="curve"/>
      <point x="464" y="663"/>
      <point x="487" y="663"/>
    </contour>
    <contour>
      <point x="95" y="58" type="curve"/>
      <point x="95" y="178"/>
      <point x="95" y="54"/>
      <point x="95" y="174" type="curve"/>
      <point x="72" y="174"/>
      <point x="95" y="174"/>
      <point x="72" y="174" type="curve"/>
      <point x="72" y="54"/>
      <point x="72" y="178"/>
      <point x="72" y="58" type="curve"/>
      <point x="95" y="58"/>
      <point x="72" y="58"/>
    </contour>
    <contour>
      <point x="72" y="58" type="curve"/>
      <point x="135" y="20"/>
      <point x="206" y="-5"/>
      <point x="286" y="-5" type="curve"/>
      <point x="421" y="-5"/>
      <point x="513" y="45"/>
      <point x="513" y="169" type="curve"/>
      <point x="513" y="290"/>
      <point x="419" y="332"/>
      <point x="308" y="385" type="curve" smooth="yes"/>
      <point x="211" y="430"/>
      <point x="123" y="462"/>
      <point x="123" y="563" type="curve"/>
      <point x="123" y="655"/>
      <point x="195" y="704"/>
      <point x="293" y="704" type="curve"/>
      <point x="363" y="704"/>
      <point x="420" y="677"/>
      <point x="474" y="645" type="curve"/>
      <point x="483" y="658"/>
      <point x="478" y="650"/>
      <point x="487" y="663" type="curve"/>
      <point x="425" y="701"/>
      <point x="370" y="726"/>
      <point x="294" y="726" type="curve"/>
      <point x="179" y="726"/>
      <point x="97" y="670"/>
      <point x="97" y="562" type="curve"/>
      <point x="97" y="450"/>
      <point x="189" y="414"/>
      <point x="292" y="365" type="curve" smooth="yes"/>
      <point x="396" y="316"/>
      <point x="488" y="277"/>
      <point x="488" y="169" type="curve"/>
      <point x="488" y="64"/>
      <point x="403" y="19"/>
      <point x="288" y="19" type="curve"/>
      <point x="212" y="19"/>
      <point x="145" y="45"/>
      <point x="86" y="79" type="curve"/>
      <point x="76" y="64"/>
      <point x="82" y="73"/>
    </contour>
    <contour>
      <point x="295" y="825" type="move" name="top"/>
    </contour>
    <contour>
      <point x="295" y="-36" type="move" name="bottom"/>
    </contour>
  </outline>
</glyph>
<glyph name="U" format="1">
  <advance width="860"/>
  <unicode hex="0055"/>
  <outline>
    <contour>
      <point x="691" y="699" type="curve"/>
      <point x="838" y="699"/>
      <point x="687" y="699"/>
      <point x="834" y="699" type="curve"/>
      <point x="834" y="722"/>
      <point x="834" y="699"/>
      <point x="834" y="722" type="curve"/>
      <point x="785" y="722"/>
      <point x="740" y="722"/>
      <point x="691" y="722" type="curve"/>
      <point x="691" y="699"/>
      <point x="691" y="722"/>
    </contour>
    <contour>
      <point x="691" y="722" type="curve"/>
      <point x="642" y="722"/>
      <point x="598" y="722"/>
      <point x="549" y="722" type="curve"/>
      <point x="549" y="699"/>
      <point x="549" y="722"/>
      <point x="549" y="699" type="curve"/>
      <point x="696" y="699"/>
      <point x="545" y="699"/>
      <point x="691" y="699" type="curve"/>
      <point x="691" y="722"/>
      <point x="691" y="699"/>
    </contour>
    <contour>
      <point x="169" y="722" type="curve"/>
      <point x="120" y="722"/>
      <point x="75" y="722"/>
      <point x="27" y="722" type="curve"/>
      <point x="27" y="699"/>
      <point x="27" y="722"/>
      <point x="27" y="699" type="curve"/>
      <point x="173" y="699"/>
      <point x="23" y="699"/>
      <point x="169" y="699" type="curve"/>
      <point x="169" y="722"/>
      <point x="169" y="699"/>
    </contour>
    <contour>
      <point x="169" y="699" type="curve"/>
      <point x="316" y="699"/>
      <point x="165" y="699"/>
      <point x="311" y="699" type="curve"/>
      <point x="311" y="722"/>
      <point x="311" y="699"/>
      <point x="311" y="722" type="curve"/>
      <point x="263" y="722"/>
      <point x="218" y="722"/>
      <point x="169" y="722" type="curve"/>
      <point x="169" y="699"/>
      <point x="169" y="722"/>
    </contour>
    <contour>
      <point x="154" y="721" type="curve"/>
      <point x="154" y="554"/>
      <point x="154" y="437"/>
      <point x="154" y="271" type="curve"/>
      <point x="154" y="86"/>
      <point x="245" y="-5"/>
      <point x="431" y="-5" type="curve"/>
      <point x="614" y="-5"/>
      <point x="704" y="83"/>
      <point x="704" y="263" type="curve"/>
      <point x="704" y="432"/>
      <point x="704" y="552"/>
      <point x="704" y="721" type="curve"/>
      <point x="688" y="721"/>
      <point x="696" y="721"/>
      <point x="680" y="721" type="curve"/>
      <point x="680" y="550"/>
      <point x="680" y="430"/>
      <point x="680" y="259" type="curve"/>
      <point x="680" y="100"/>
      <point x="596" y="20"/>
      <point x="433" y="20" type="curve"/>
      <point x="261" y="20"/>
      <point x="178" y="104"/>
      <point x="178" y="275" type="curve"/>
      <point x="178" y="440"/>
      <point x="178" y="556"/>
      <point x="178" y="721" type="curve"/>
      <point x="162" y="721"/>
      <point x="170" y="721"/>
    </contour>
    <contour>
      <point x="435" y="825" type="move" name="top"/>
    </contour>
    <contour>
      <point x="439" y="-38" type="move" name="bottom"/>
    </contour>
  </outline>
</glyph>
<glyph name="V" format="1">
  <advance width="850"/>
  <unicode hex="0056"/>
  <outline>
    <contour>
      <point x="689" y="722" type="curve"/>
      <point x="639" y="722"/>
      <point x="592" y="722"/>
      <point x="541" y="722" type="curve"/>
      <point x="541" y="699"/>
      <point x="541" y="722"/>
      <point x="541" y="699" type="curve"/>
      <point x="693" y="699"/>
      <point x="537" y="699"/>
      <point x="689" y="699" type="curve"/>
      <point x="689" y="722"/>
      <point x="689" y="699"/>
    </contour>
    <contour>
      <point x="123" y="722" type="curve"/>
      <point x="74" y="722"/>
      <point x="30" y="722"/>
      <point x="-19" y="722" type="curve"/>
      <point x="-19" y="699"/>
      <point x="-19" y="722"/>
      <point x="-19" y="699" type="curve"/>
      <point x="128" y="699"/>
      <point x="-23" y="699"/>
      <point x="123" y="699" type="curve"/>
      <point x="123" y="722"/>
      <point x="123" y="699"/>
    </contour>
    <contour>
      <point x="689" y="699" type="curve"/>
      <point x="836" y="699"/>
      <point x="685" y="699"/>
      <point x="831" y="699" type="curve"/>
      <point x="831" y="722"/>
      <point x="831" y="699"/>
      <point x="831" y="722" type="curve"/>
      <point x="782" y="722"/>
      <point x="738" y="722"/>
      <point x="689" y="722" type="curve"/>
      <point x="689" y="699"/>
      <point x="689" y="722"/>
    </contour>
    <contour>
      <point x="123" y="699" type="curve"/>
      <point x="275" y="699"/>
      <point x="119" y="699"/>
      <point x="271" y="699" type="curve"/>
      <point x="271" y="722"/>
      <point x="271" y="699"/>
      <point x="271" y="722" type="curve"/>
      <point x="221" y="722"/>
      <point x="174" y="722"/>
      <point x="123" y="722" type="curve"/>
      <point x="123" y="699"/>
      <point x="123" y="722"/>
    </contour>
    <contour>
      <point x="688" y="722" type="curve"/>
      <point x="591" y="481"/>
      <point x="494" y="241"/>
      <point x="398" y="0" type="curve"/>
      <point x="426" y="0"/>
      <point x="398" y="0"/>
      <point x="426" y="0" type="curve"/>
      <point x="523" y="241"/>
      <point x="619" y="481"/>
      <point x="716" y="722" type="curve"/>
      <point x="688" y="722"/>
      <point x="716" y="722"/>
    </contour>
    <contour>
      <point x="96" y="722" type="curve"/>
      <point x="195" y="481"/>
      <point x="293" y="241"/>
      <point x="391" y="0" type="curve"/>
      <point x="420" y="0"/>
      <point x="392" y="0"/>
      <point x="420" y="0" type="curve"/>
      <point x="322" y="241"/>
      <point x="224" y="481"/>
      <point x="126" y="722" type="curve"/>
      <point x="97" y="722"/>
      <point x="126" y="722"/>
    </contour>
  </outline>
</glyph>
<glyph name="X" format="1">
  <advance width="794"/>
  <unicode hex="0058"/>
  <outline>
    <contour>
      <point x="140" y="0" type="curve"/>
      <point x="190" y="0"/>
      <point x="136" y="0"/>
      <point x="283" y="0" type="curve"/>
      <point x="283" y="23"/>
      <point x="283" y="0"/>
      <point x="283" y="23" type="curve"/>
      <point x="136" y="23"/>
      <point x="287" y="23"/>
      <point x="140" y="23" type="curve"/>
      <point x="140" y="0"/>
      <point x="140" y="23"/>
    </contour>
    <contour>
      <point x="140" y="23" type="curve"/>
      <point x="-6" y="23"/>
      <point x="145" y="23"/>
      <point x="-2" y="23" type="curve"/>
      <point x="-2" y="0"/>
      <point x="-2" y="23"/>
      <point x="-2" y="0" type="curve"/>
      <point x="47" y="0"/>
      <point x="92" y="0"/>
      <point x="140" y="0" type="curve"/>
      <point x="140" y="23"/>
      <point x="140" y="0"/>
    </contour>
    <contour>
      <point x="650" y="0" type="curve"/>
      <point x="699" y="0"/>
      <point x="744" y="0"/>
      <point x="793" y="0" type="curve"/>
      <point x="793" y="23"/>
      <point x="793" y="0"/>
      <point x="793" y="23" type="curve"/>
      <point x="646" y="23"/>
      <point x="797" y="23"/>
      <point x="650" y="23" type="curve"/>
      <point x="650" y="0"/>
      <point x="650" y="23"/>
    </contour>
    <contour>
      <point x="650" y="23" type="curve"/>
      <point x="504" y="23"/>
      <point x="654" y="23"/>
      <point x="508" y="23" type="curve"/>
      <point x="508" y="0"/>
      <point x="508" y="23"/>
      <point x="508" y="0" type="curve"/>
      <point x="556" y="0"/>
      <point x="602" y="0"/>
      <point x="650" y="0" type="curve"/>
      <point x="650" y="23"/>
      <point x="650" y="0"/>
    </contour>
    <contour>
      <point x="623" y="699" type="curve"/>
      <point x="770" y="699"/>
      <point x="619" y="699"/>
      <point x="766" y="699" type="curve"/>
      <point x="766" y="722"/>
      <point x="766" y="699"/>
      <point x="766" y="722" type="curve"/>
      <point x="717" y="722"/>
      <point x="672" y="722"/>
      <point x="623" y="722" type="curve"/>
      <point x="623" y="699"/>
      <point x="623" y="722"/>
    </contour>
    <contour>
      <point x="623" y="722" type="curve"/>
      <point x="575" y="722"/>
      <point x="529" y="722"/>
      <point x="481" y="722" type="curve"/>
      <point x="481" y="699"/>
      <point x="481" y="722"/>
      <point x="481" y="699" type="curve"/>
      <point x="628" y="699"/>
      <point x="477" y="699"/>
      <point x="623" y="699" type="curve"/>
      <point x="623" y="722"/>
      <point x="623" y="699"/>
    </contour>
    <contour>
      <point x="172" y="722" type="curve"/>
      <point x="124" y="722"/>
      <point x="78" y="722"/>
      <point x="30" y="722" type="curve"/>
      <point x="30" y="699"/>
      <point x="30" y="722"/>
      <point x="30" y="699" type="curve"/>
      <point x="176" y="699"/>
      <point x="26" y="699"/>
      <point x="172" y="699" type="curve"/>
      <point x="172" y="722"/>
      <point x="172" y="699"/>
    </contour>
    <contour>
      <point x="172" y="699" type="curve"/>
      <point x="319" y="699"/>
      <point x="168" y="699"/>
      <point x="314" y="699" type="curve"/>
      <point x="314" y="722"/>
      <point x="314" y="699"/>
      <point x="314" y="722" type="curve"/>
      <point x="266" y="722"/>
      <point x="221" y="722"/>
      <point x="172" y="722" type="curve"/>
      <point x="172" y="699"/>
      <point x="172" y="722"/>
    </contour>
    <contour>
      <point x="628" y="722" type="curve"/>
      <point x="454" y="481"/>
      <point x="280" y="241"/>
      <point x="107" y="0" type="curve"/>
      <point x="139" y="0"/>
      <point x="107" y="0"/>
      <point x="139" y="0" type="curve"/>
      <point x="312" y="241"/>
      <point x="484" y="481"/>
      <point x="657" y="722" type="curve"/>
      <point x="628" y="722"/>
      <point x="657" y="722"/>
    </contour>
    <contour>
      <point x="141" y="722" type="curve"/>
      <point x="312" y="481"/>
      <point x="483" y="241"/>
      <point x="655" y="0" type="curve"/>
      <point x="686" y="0"/>
      <point x="655" y="0"/>
      <point x="686" y="0" type="curve"/>
      <point x="515" y="241"/>
      <point x="342" y="481"/>
      <point x="171" y="722" type="curve"/>
      <point x="141" y="722"/>
      <point x="171" y="722"/>
    </contour>
  </outline>
</glyph>
<glyph name="Y" format="1">
  <advance width="749"/>
  <unicode hex="0059"/>
  <outline>
    <contour>
      <point x="355" y="23" type="curve"/>
      <point x="209" y="23"/>
      <point x="359" y="23"/>
      <point x="213" y="23" type="curve"/>
      <point x="213" y="0"/>
      <point x="213" y="23"/>
      <point x="213" y="0" type="curve"/>
      <point x="261" y="0"/>
      <point x="307" y="0"/>
      <point x="355" y="0" type="curve"/>
      <point x="355" y="23"/>
      <point x="355" y="0"/>
    </contour>
    <contour>
      <point x="355" y="0" type="curve"/>
      <point x="404" y="0"/>
      <point x="449" y="0"/>
      <point x="497" y="0" type="curve"/>
      <point x="497" y="23"/>
      <point x="497" y="0"/>
      <point x="497" y="23" type="curve"/>
      <point x="351" y="23"/>
      <point x="502" y="23"/>
      <point x="355" y="23" type="curve"/>
      <point x="355" y="0"/>
      <point x="355" y="23"/>
    </contour>
    <contour>
      <point x="591" y="722" type="curve"/>
      <point x="542" y="722"/>
      <point x="497" y="722"/>
      <point x="449" y="722" type="curve"/>
      <point x="449" y="699"/>
      <point x="449" y="722"/>
      <point x="449" y="699" type="curve"/>
      <point x="595" y="699"/>
      <point x="444" y="699"/>
      <point x="591" y="699" type="curve"/>
      <point x="591" y="722"/>
      <point x="591" y="699"/>
    </contour>
    <contour>
      <point x="133" y="722" type="curve"/>
      <point x="85" y="722"/>
      <point x="39" y="722"/>
      <point x="-9" y="722" type="curve"/>
      <point x="-9" y="699"/>
      <point x="-9" y="722"/>
      <point x="-9" y="699" type="curve"/>
      <point x="137" y="699"/>
      <point x="-13" y="699"/>
      <point x="133" y="699" type="curve"/>
      <point x="133" y="722"/>
      <point x="133" y="699"/>
    </contour>
    <contour>
      <point x="133" y="699" type="curve"/>
      <point x="280" y="699"/>
      <point x="129" y="699"/>
      <point x="275" y="699" type="curve"/>
      <point x="275" y="722"/>
      <point x="275" y="699"/>
      <point x="275" y="722" type="curve"/>
      <point x="227" y="722"/>
      <point x="182" y="722"/>
      <point x="133" y="722" type="curve"/>
      <point x="133" y="699"/>
      <point x="133" y="722"/>
    </contour>
    <contour>
      <point x="591" y="699" type="curve"/>
      <point x="737" y="699"/>
      <point x="587" y="699"/>
      <point x="733" y="699" type="curve"/>
      <point x="733" y="722"/>
      <point x="733" y="699"/>
      <point x="733" y="722" type="curve"/>
      <point x="684" y="722"/>
      <point x="639" y="722"/>
      <point x="591" y="722" type="curve"/>
      <point x="591" y="699"/>
      <point x="591" y="722"/>
    </contour>
    <contour>
      <point x="96" y="722" type="curve"/>
      <point x="178" y="594"/>
      <point x="259" y="465"/>
      <point x="341" y="337" type="curve"/>
      <point x="369" y="337"/>
      <point x="341" y="339"/>
      <point x="369" y="339" type="curve"/>
      <point x="287" y="467"/>
      <point x="206" y="595"/>
      <point x="125" y="722" type="curve"/>
      <point x="96" y="722"/>
      <point x="125" y="722"/>
    </contour>
    <contour>
      <point x="599" y="722" type="curve"/>
      <point x="513" y="595"/>
      <point x="428" y="467"/>
      <point x="342" y="339" type="curve"/>
      <point x="369" y="339"/>
      <point x="342" y="337"/>
      <point x="369" y="337" type="curve"/>
      <point x="455" y="465"/>
      <point x="541" y="594"/>
      <point x="628" y="722" type="curve"/>
      <point x="599" y="722"/>
      <point x="628" y="722"/>
    </contour>
    <contour>
      <point x="369" y="0" type="curve"/>
      <point x="369" y="115"/>
      <point x="369" y="231"/>
      <point x="369" y="346" type="curve"/>
      <point x="341" y="346"/>
      <point x="369" y="346"/>
      <point x="341" y="346" type="curve"/>
      <point x="341" y="231"/>
      <point x="341" y="115"/>
      <point x="341" y="0" type="curve"/>
      <point x="369" y="0"/>
      <point x="341" y="0"/>
    </contour>
    <contour>
      <point x="357" y="825" type="move" name="top"/>
    </contour>
  </outline>
</glyph>
<glyph name="Z" format="1">
  <advance width="685"/>
  <unicode hex="005A"/>
  <outline>
    <contour>
      <point x="85" y="711" type="curve"/>
      <point x="85" y="591"/>
      <point x="85" y="715"/>
      <point x="85" y="595" type="curve"/>
      <point x="107" y="595"/>
      <point x="85" y="595"/>
      <point x="107" y="595" type="curve"/>
      <point x="107" y="715"/>
      <point x="107" y="591"/>
      <point x="107" y="711" type="curve"/>
      <point x="85" y="711"/>
      <point x="107" y="711"/>
    </contour>
    <contour>
      <point x="642" y="11" type="curve"/>
      <point x="642" y="131"/>
      <point x="642" y="7"/>
      <point x="642" y="127" type="curve"/>
      <point x="620" y="127"/>
      <point x="642" y="127"/>
      <point x="620" y="127" type="curve"/>
      <point x="620" y="7"/>
      <point x="620" y="131"/>
      <point x="620" y="11" type="curve"/>
      <point x="642" y="11"/>
      <point x="620" y="11"/>
    </contour>
    <contour>
      <point x="85" y="699" type="curve"/>
      <point x="253" y="699"/>
      <point x="422" y="699"/>
      <point x="592" y="699" type="curve"/>
      <point x="590" y="702"/>
      <point x="586" y="704"/>
      <point x="584" y="706" type="curve"/>
      <point x="582" y="708"/>
      <point x="581" y="710"/>
      <point x="579" y="712" type="curve"/>
      <point x="576" y="708"/>
      <point x="573" y="705"/>
      <point x="570" y="701" type="curve"/>
      <point x="42" y="23" type="line"/>
      <point x="42" y="10"/>
      <point x="42" y="23"/>
      <point x="42" y="10" type="curve"/>
      <point x="42" y="0"/>
      <point x="42" y="10"/>
      <point x="42" y="0" type="curve"/>
      <point x="49" y="0"/>
      <point x="42" y="0"/>
      <point x="49" y="0" type="curve"/>
      <point x="653" y="0"/>
      <point x="441" y="0"/>
      <point x="642" y="0" type="curve"/>
      <point x="642" y="23"/>
      <point x="642" y="0"/>
      <point x="642" y="23" type="curve"/>
      <point x="441" y="23"/>
      <point x="250" y="23"/>
      <point x="49" y="23" type="curve"/>
      <point x="51" y="21"/>
      <point x="53" y="19"/>
      <point x="55" y="17" type="curve"/>
      <point x="57" y="15"/>
      <point x="60" y="12"/>
      <point x="62" y="10" type="curve"/>
      <point x="65" y="14"/>
      <point x="68" y="17"/>
      <point x="72" y="21" type="curve"/>
      <point x="600" y="699" type="line"/>
      <point x="600" y="712"/>
      <point x="600" y="699"/>
      <point x="600" y="712" type="curve"/>
      <point x="600" y="722"/>
      <point x="600" y="712"/>
      <point x="600" y="722" type="curve"/>
      <point x="592" y="722"/>
      <point x="600" y="722"/>
      <point x="592" y="722" type="curve"/>
      <point x="422" y="722"/>
      <point x="253" y="722"/>
      <point x="85" y="722" type="curve"/>
      <point x="85" y="699"/>
      <point x="85" y="722"/>
    </contour>
    <contour>
      <point x="347" y="825" type="move" name="top"/>
    </contour>
  </outline>
</glyph>
<glyph name="bracketleft" format="1">
  <advance width="289"/>
  <unicode hex="005B"/>
  <outline>
    <contour>
      <point x="249" y="771" type="curve"/>
      <point x="196" y="771"/>
      <point x="142" y="771"/>
      <point x="89" y="771" type="curve"/>
      <point x="87" y="771"/>
      <point x="86" y="771"/>
      <point x="83" y="771" type="curve"/>
      <point x="83" y="769"/>
      <point x="83" y="767"/>
      <point x="83" y="764" type="curve"/>
      <point x="83" y="470"/>
      <point x="83" y="175"/>
      <point x="83" y="-119" type="curve"/>
      <point x="83" y="-121"/>
      <point x="83" y="-123"/>
      <point x="83" y="-124" type="curve"/>
      <point x="85" y="-124"/>
      <point x="86" y="-124"/>
      <point x="88" y="-124" type="curve"/>
      <point x="141" y="-124"/>
      <point x="195" y="-124"/>
      <point x="249" y="-124" type="curve"/>
      <point x="249" y="-99"/>
      <point x="249" y="-124"/>
      <point x="249" y="-99" type="curve"/>
      <point x="195" y="-99"/>
      <point x="141" y="-99"/>
      <point x="88" y="-99" type="curve"/>
      <point x="109" y="-99"/>
      <point x="88" y="-99"/>
      <point x="109" y="-99" type="curve"/>
      <point x="109" y="-119"/>
      <point x="109" y="-99"/>
      <point x="109" y="-119" type="curve"/>
      <point x="109" y="175"/>
      <point x="109" y="470"/>
      <point x="109" y="764" type="curve"/>
      <point x="109" y="746"/>
      <point x="109" y="764"/>
      <point x="109" y="746" type="curve"/>
      <point x="89" y="746"/>
      <point x="109" y="746"/>
      <point x="89" y="746" type="curve"/>
      <point x="142" y="746"/>
      <point x="196" y="746"/>
      <point x="249" y="746" type="curve"/>
      <point x="249" y="771"/>
      <point x="249" y="746"/>
    </contour>
  </outline>
</glyph>
<glyph name="backslash" format="1">
  <advance width="520"/>
  <unicode hex="005C"/>
  <outline>
    <contour>
      <point x="478" y="-68" type="curve"/>
      <point x="342" y="236"/>
      <point x="205" y="540"/>
      <point x="69" y="844" type="curve"/>
      <point x="42" y="844"/>
      <point x="69" y="844"/>
      <point x="42" y="844" type="curve"/>
      <point x="178" y="540"/>
      <point x="315" y="236"/>
      <point x="452" y="-68" type="curve"/>
      <point x="478" y="-68"/>
      <point x="452" y="-68"/>
    </contour>
  </outline>
</glyph>
<glyph name="asciicircum" format="1">
  <advance width="543"/>
  <unicode hex="005E"/>
  <outline>
    <contour>
      <point x="102" y="466" type="curve"/>
      <point x="162" y="581"/>
      <point x="223" y="695"/>
      <point x="284" y="809" type="curve"/>
      <point x="259" y="809"/>
      <point x="282" y="809"/>
      <point x="258" y="809" type="curve"/>
      <point x="197" y="695"/>
      <point x="136" y="581"/>
      <point x="76" y="466" type="curve"/>
      <point x="101" y="466"/>
      <point x="77" y="466"/>
    </contour>
    <contour>
      <point x="468" y="466" type="curve"/>
      <point x="409" y="577"/>
      <point x="344" y="699"/>
      <point x="285" y="809" type="curve"/>
      <point x="260" y="809"/>
      <point x="284" y="809"/>
      <point x="259" y="809" type="curve"/>
      <point x="318" y="699"/>
      <point x="383" y="577"/>
      <point x="443" y="466" type="curve"/>
      <point x="467" y="466"/>
      <point x="444" y="466"/>
    </contour>
  </outline>
</glyph>
<glyph name="underscore" format="1">
  <advance width="713"/>
  <unicode hex="005F"/>
  <outline>
    <contour>
      <point x="-1" y="-210" type="curve"/>
      <point x="239" y="-210"/>
      <point x="476" y="-210"/>
      <point x="713" y="-210" type="curve"/>
      <point x="713" y="-187"/>
      <point x="713" y="-210"/>
      <point x="713" y="-187" type="curve"/>
      <point x="476" y="-187"/>
      <point x="239" y="-187"/>
      <point x="-1" y="-187" type="curve"/>
      <point x="-1" y="-210"/>
      <point x="-1" y="-187"/>
    </contour>
  </outline>
</glyph>
<glyph name="grave" format="1">
  <advance width="420"/>
  <unicode hex="0060"/>
  <outline>
    <contour>
      <point x="226" y="590" type="line"/>
      <point x="96" y="756" type="line"/>
      <point x="59" y="756" type="line"/>
      <point x="198" y="590" type="line"/>
    </contour>
    <contour>
      <point x="210" y="590" type="move" name="_top"/>
    </contour>
  </outline>
</glyph>
<glyph name="b" format="1">
  <advance width="666"/>
  <unicode hex="0062"/>
  <outline>
    <contour>
      <point x="150" y="800" type="curve"/>
      <point x="101" y="800"/>
      <point x="56" y="800"/>
      <point x="7" y="800" type="curve"/>
      <point x="7" y="777"/>
      <point x="7" y="800"/>
      <point x="7" y="777" type="curve"/>
      <point x="153" y="777"/>
      <point x="4" y="777"/>
      <point x="150" y="777" type="curve"/>
      <point x="150" y="800"/>
      <point x="150" y="777"/>
    </contour>
    <contour>
      <point x="154" y="406" type="curve"/>
      <point x="193" y="457"/>
      <point x="273" y="515"/>
      <point x="367" y="515" type="curve"/>
      <point x="500" y="515"/>
      <point x="575" y="410"/>
      <point x="575" y="266" type="curve"/>
      <point x="575" y="127"/>
      <point x="497" y="17"/>
      <point x="367" y="18" type="curve"/>
      <point x="282" y="18"/>
      <point x="215" y="56"/>
      <point x="157" y="123" type="curve"/>
      <point x="140" y="109"/>
      <point x="158" y="120"/>
      <point x="141" y="107" type="curve"/>
      <point x="203" y="34"/>
      <point x="272" y="-5"/>
      <point x="368" y="-5" type="curve"/>
      <point x="517" y="-5"/>
      <point x="600" y="109"/>
      <point x="600" y="267" type="curve"/>
      <point x="600" y="423"/>
      <point x="519" y="538"/>
      <point x="369" y="538" type="curve"/>
      <point x="267" y="538"/>
      <point x="184" y="481"/>
      <point x="142" y="426" type="curve"/>
      <point x="154" y="409"/>
      <point x="142" y="422"/>
    </contour>
    <contour>
      <point x="160" y="0" type="curve"/>
      <point x="160" y="267"/>
      <point x="160" y="533"/>
      <point x="160" y="800" type="curve"/>
      <point x="135" y="800"/>
      <point x="160" y="800"/>
      <point x="135" y="800" type="curve"/>
      <point x="135" y="533"/>
      <point x="135" y="267"/>
      <point x="135" y="0" type="curve"/>
      <point x="160" y="0"/>
      <point x="135" y="0"/>
    </contour>
    <contour>
      <point x="150" y="23" type="curve"/>
      <point x="4" y="23"/>
      <point x="153" y="23"/>
      <point x="7" y="23" type="curve"/>
      <point x="7" y="0"/>
      <point x="7" y="23"/>
      <point x="7" y="0" type="curve"/>
      <point x="56" y="0"/>
      <point x="101" y="0"/>
      <point x="150" y="0" type="curve"/>
      <point x="150" y="23"/>
      <point x="150" y="0"/>
    </contour>
  </outline>
</glyph>
<glyph name="c" format="1">
  <advance width="548"/>
  <unicode hex="0063"/>
  <outline>
    <contour>
      <point x="458" y="473" type="curve"/>
      <point x="458" y="353"/>
      <point x="458" y="478"/>
      <point x="458" y="357" type="curve"/>
      <point x="481" y="357"/>
      <point x="458" y="357"/>
      <point x="481" y="357" type="curve"/>
      <point x="481" y="478"/>
      <point x="481" y="353"/>
      <point x="481" y="473" type="curve"/>
      <point x="458" y="473"/>
      <point x="481" y="473"/>
    </contour>
    <contour>
      <point x="481" y="473" type="curve"/>
      <point x="434" y="509"/>
      <point x="374" y="538"/>
      <point x="312" y="538" type="curve"/>
      <point x="149" y="538"/>
      <point x="65" y="437"/>
      <point x="65" y="267" type="curve"/>
      <point x="65" y="97"/>
      <point x="146" y="-5"/>
      <point x="310" y="-5" type="curve"/>
      <point x="380" y="-5"/>
      <point x="446" y="30"/>
      <point x="492" y="85" type="curve"/>
      <point x="474" y="99"/>
      <point x="492" y="85"/>
      <point x="474" y="99" type="curve"/>
      <point x="433" y="53"/>
      <point x="374" y="18"/>
      <point x="310" y="18" type="curve"/>
      <point x="165" y="18"/>
      <point x="91" y="112"/>
      <point x="91" y="267" type="curve"/>
      <point x="91" y="422"/>
      <point x="167" y="515"/>
      <point x="310" y="515" type="curve"/>
      <point x="367" y="515"/>
      <point x="422" y="490"/>
      <point x="466" y="457" type="curve"/>
      <point x="481" y="473"/>
      <point x="466" y="457"/>
    </contour>
    <contour>
      <point x="307" y="670" type="move" name="top"/>
    </contour>
    <contour>
      <point x="315" y="-3" type="move" name="bottom"/>
    </contour>
  </outline>
</glyph>
<glyph name="g" format="1">
  <advance width="561"/>
  <unicode hex="0067"/>
  <outline>
    <contour>
      <point x="385" y="499" type="curve"/>
      <point x="539" y="577" type="line"/>
      <point x="533" y="586"/>
      <point x="532" y="590"/>
      <point x="525" y="599" type="curve"/>
      <point x="371" y="517" type="line"/>
      <point x="385" y="499"/>
      <point x="371" y="517"/>
    </contour>
    <contour>
      <point x="116" y="358" type="curve"/>
      <point x="116" y="454"/>
      <point x="186" y="516"/>
      <point x="287" y="516" type="curve"/>
      <point x="387" y="516"/>
      <point x="453" y="458"/>
      <point x="453" y="361" type="curve"/>
      <point x="453" y="268"/>
      <point x="385" y="210"/>
      <point x="285" y="210" type="curve"/>
      <point x="188" y="210"/>
      <point x="116" y="264"/>
      <point x="116" y="358" type="curve"/>
      <point x="91" y="357"/>
      <point x="116" y="358"/>
      <point x="91" y="357" type="curve"/>
      <point x="91" y="249"/>
      <point x="171" y="188"/>
      <point x="283" y="188" type="curve"/>
      <point x="397" y="188"/>
      <point x="479" y="251"/>
      <point x="479" y="362" type="curve"/>
      <point x="479" y="472"/>
      <point x="400" y="538"/>
      <point x="287" y="538" type="curve"/>
      <point x="171" y="538"/>
      <point x="91" y="470"/>
      <point x="91" y="357" type="curve"/>
      <point x="116" y="358"/>
      <point x="91" y="357"/>
    </contour>
    <contour>
      <point x="175" y="228" type="curve"/>
      <point x="127" y="200"/>
      <point x="95" y="165"/>
      <point x="95" y="109" type="curve"/>
      <point x="95" y="20"/>
      <point x="181" y="-5"/>
      <point x="280" y="-13" type="curve"/>
      <point x="400" y="-23"/>
      <point x="512" y="-38"/>
      <point x="512" y="-144" type="curve"/>
      <point x="512" y="-247"/>
      <point x="405" y="-282"/>
      <point x="282" y="-282" type="curve"/>
      <point x="166" y="-282"/>
      <point x="70" y="-236"/>
      <point x="70" y="-134" type="curve"/>
      <point x="70" y="-62"/>
      <point x="116" y="-18"/>
      <point x="183" y="10" type="curve"/>
      <point x="171" y="24"/>
      <point x="183" y="10"/>
      <point x="171" y="24" type="curve"/>
      <point x="96" y="-7"/>
      <point x="45" y="-54"/>
      <point x="45" y="-135" type="curve"/>
      <point x="45" y="-254"/>
      <point x="150" y="-304"/>
      <point x="281" y="-304" type="curve"/>
      <point x="418" y="-304"/>
      <point x="538" y="-266"/>
      <point x="536" y="-142" type="curve"/>
      <point x="536" y="-23"/>
      <point x="415" y="-2"/>
      <point x="284" y="9" type="curve"/>
      <point x="197" y="14"/>
      <point x="121" y="33"/>
      <point x="121" y="112" type="curve"/>
      <point x="121" y="159"/>
      <point x="146" y="189"/>
      <point x="188" y="214" type="curve"/>
      <point x="175" y="228"/>
      <point x="188" y="214"/>
    </contour>
    <contour>
      <point x="288" y="670" type="move" name="top"/>
    </contour>
  </outline>
</glyph>
<glyph name="h" format="1">
  <advance width="684"/>
  <unicode hex="0068"/>
  <outline>
    <contour>
      <point x="537" y="0" type="curve"/>
      <point x="586" y="0"/>
      <point x="631" y="0"/>
      <point x="680" y="0" type="curve"/>
      <point x="680" y="23"/>
      <point x="680" y="0"/>
      <point x="680" y="23" type="curve"/>
      <point x="533" y="23"/>
      <point x="684" y="23"/>
      <point x="537" y="23" type="curve"/>
      <point x="537" y="0"/>
      <point x="537" y="23"/>
    </contour>
    <contour>
      <point x="150" y="0" type="curve"/>
      <point x="193" y="0"/>
      <point x="146" y="0"/>
      <point x="277" y="0" type="curve"/>
      <point x="277" y="23"/>
      <point x="277" y="0"/>
      <point x="277" y="23" type="curve"/>
      <point x="146" y="23"/>
      <point x="281" y="23"/>
      <point x="150" y="23" type="curve"/>
      <point x="150" y="0"/>
      <point x="150" y="23"/>
    </contour>
    <contour>
      <point x="150" y="800" type="curve"/>
      <point x="101" y="800"/>
      <point x="56" y="800"/>
      <point x="7" y="800" type="curve"/>
      <point x="7" y="777"/>
      <point x="7" y="800"/>
      <point x="7" y="777" type="curve"/>
      <point x="154" y="777"/>
      <point x="3" y="777"/>
      <point x="150" y="777" type="curve"/>
      <point x="150" y="800"/>
      <point x="150" y="777"/>
    </contour>
    <contour>
      <point x="150" y="23" type="curve"/>
      <point x="3" y="23"/>
      <point x="154" y="23"/>
      <point x="7" y="23" type="curve"/>
      <point x="7" y="0"/>
      <point x="7" y="23"/>
      <point x="7" y="0" type="curve"/>
      <point x="56" y="0"/>
      <point x="101" y="0"/>
      <point x="150" y="0" type="curve"/>
      <point x="150" y="23"/>
      <point x="150" y="0"/>
    </contour>
    <contour>
      <point x="156" y="353" type="curve"/>
      <point x="189" y="443"/>
      <point x="273" y="515"/>
      <point x="369" y="515" type="curve"/>
      <point x="475" y="515"/>
      <point x="526" y="449"/>
      <point x="526" y="341" type="curve"/>
      <point x="526" y="228"/>
      <point x="526" y="114"/>
      <point x="526" y="0" type="curve"/>
      <point x="551" y="0"/>
      <point x="526" y="0"/>
      <point x="551" y="0" type="curve"/>
      <point x="551" y="115"/>
      <point x="551" y="229"/>
      <point x="551" y="344" type="curve"/>
      <point x="551" y="466"/>
      <point x="492" y="538"/>
      <point x="372" y="538" type="curve"/>
      <point x="266" y="538"/>
      <point x="174" y="467"/>
      <point x="144" y="367" type="curve"/>
      <point x="158" y="354"/>
      <point x="142" y="366"/>
    </contour>
    <contour>
      <point x="162" y="0" type="curve"/>
      <point x="162" y="267"/>
      <point x="162" y="533"/>
      <point x="162" y="800" type="curve"/>
      <point x="137" y="800"/>
      <point x="162" y="800"/>
      <point x="137" y="800" type="curve"/>
      <point x="137" y="533"/>
      <point x="137" y="267"/>
      <point x="137" y="0" type="curve"/>
      <point x="162" y="0"/>
      <point x="137" y="0"/>
    </contour>
  </outline>
</glyph>
<glyph name="i" format="1">
  <advance width="319"/>
  <unicode hex="0069"/>
  <outline>
    <contour>
      <point x="177" y="23" type="curve"/>
      <point x="31" y="23"/>
      <point x="182" y="23"/>
      <point x="35" y="23" type="curve"/>
      <point x="35" y="0"/>
      <point x="35" y="23"/>
      <point x="35" y="0" type="curve"/>
      <point x="84" y="0"/>
      <point x="129" y="0"/>
      <point x="177" y="0" type="curve"/>
      <point x="177" y="23"/>
      <point x="177" y="0"/>
    </contour>
    <contour>
      <point x="177" y="0" type="curve"/>
      <point x="222" y="0"/>
      <point x="264" y="0"/>
      <point x="309" y="0" type="curve"/>
      <point x="309" y="23"/>
      <point x="309" y="0"/>
      <point x="309" y="23" type="curve"/>
      <point x="173" y="23"/>
      <point x="314" y="23"/>
      <point x="177" y="23" type="curve"/>
      <point x="177" y="0"/>
      <point x="177" y="23"/>
    </contour>
    <contour>
      <point x="177" y="533" type="curve"/>
      <point x="129" y="533"/>
      <point x="84" y="533"/>
      <point x="35" y="533" type="curve"/>
      <point x="35" y="510"/>
      <point x="35" y="533"/>
      <point x="35" y="510" type="curve"/>
      <point x="182" y="510"/>
      <point x="31" y="510"/>
      <point x="177" y="510" type="curve"/>
      <point x="177" y="533"/>
      <point x="177" y="510"/>
    </contour>
    <contour>
      <point x="192" y="0" type="curve"/>
      <point x="192" y="178"/>
      <point x="192" y="355"/>
      <point x="192" y="533" type="curve"/>
      <point x="164" y="533"/>
      <point x="192" y="533"/>
      <point x="164" y="533" type="curve"/>
      <point x="164" y="355"/>
      <point x="164" y="178"/>
      <point x="164" y="0" type="curve"/>
      <point x="192" y="0"/>
      <point x="164" y="0"/>
    </contour>
    <contour>
      <point x="196" y="684" type="curve"/>
      <point x="196" y="696"/>
      <point x="188" y="703"/>
      <point x="176" y="703" type="curve"/>
      <point x="164" y="703"/>
      <point x="158" y="695"/>
      <point x="158" y="684" type="curve"/>
      <point x="183" y="684"/>
      <point x="170" y="684"/>
      <point x="196" y="684" type="curve"/>
      <point x="196" y="673"/>
      <point x="188" y="666"/>
      <point x="176" y="666" type="curve"/>
      <point x="164" y="666"/>
      <point x="158" y="673"/>
      <point x="158" y="684" type="curve"/>
      <point x="183" y="684"/>
      <point x="170" y="684"/>
    </contour>
    <contour>
      <point x="177" y="669" type="move" name="top"/>
    </contour>
    <contour>
      <point x="191" y="0" type="move" name="bottom"/>
    </contour>
  </outline>
</glyph>
<glyph name="j" format="1">
  <advance width="309"/>
  <unicode hex="006A"/>
  <outline>
    <contour>
      <point x="191" y="533" type="curve"/>
      <point x="142" y="533"/>
      <point x="97" y="533"/>
      <point x="48" y="533" type="curve"/>
      <point x="48" y="510"/>
      <point x="48" y="533"/>
      <point x="48" y="510" type="curve"/>
      <point x="195" y="510"/>
      <point x="44" y="510"/>
      <point x="191" y="510" type="curve"/>
      <point x="191" y="533"/>
      <point x="191" y="510"/>
    </contour>
    <contour>
      <point x="7" y="-301" type="curve"/>
      <point x="16" y="-301"/>
      <point x="27" y="-304"/>
      <point x="39" y="-304" type="curve"/>
      <point x="136" y="-304"/>
      <point x="205" y="-241"/>
      <point x="205" y="-142" type="curve"/>
      <point x="205" y="83"/>
      <point x="205" y="308"/>
      <point x="205" y="533" type="curve"/>
      <point x="179" y="533"/>
      <point x="205" y="533"/>
      <point x="179" y="533" type="curve"/>
      <point x="179" y="308"/>
      <point x="179" y="83"/>
      <point x="179" y="-142" type="curve"/>
      <point x="179" y="-223"/>
      <point x="121" y="-279"/>
      <point x="39" y="-279" type="curve"/>
      <point x="30" y="-279"/>
      <point x="18" y="-278"/>
      <point x="12" y="-277" type="curve"/>
      <point x="8" y="-299"/>
      <point x="11" y="-279"/>
    </contour>
    <contour>
      <point x="212" y="684" type="curve"/>
      <point x="212" y="696"/>
      <point x="204" y="702"/>
      <point x="192" y="702" type="curve"/>
      <point x="181" y="702"/>
      <point x="174" y="695"/>
      <point x="174" y="684" type="curve"/>
      <point x="199" y="684"/>
      <point x="187" y="684"/>
      <point x="212" y="684" type="curve"/>
      <point x="212" y="673"/>
      <point x="204" y="666"/>
      <point x="192" y="666" type="curve"/>
      <point x="181" y="666"/>
      <point x="174" y="673"/>
      <point x="174" y="684" type="curve"/>
      <point x="199" y="684"/>
      <point x="187" y="684"/>
    </contour>
  </outline>
</glyph>
<glyph name="k" format="1">
  <advance width="620"/>
  <unicode hex="006B"/>
  <outline>
    <contour>
      <point x="149" y="23" type="curve"/>
      <point x="3" y="23"/>
      <point x="154" y="23"/>
      <point x="7" y="23" type="curve"/>
      <point x="7" y="0"/>
      <point x="7" y="23"/>
      <point x="7" y="0" type="curve"/>
      <point x="56" y="0"/>
      <point x="100" y="0"/>
      <point x="149" y="0" type="curve"/>
      <point x="149" y="23"/>
      <point x="149" y="0"/>
    </contour>
    <contour>
      <point x="468" y="0" type="curve"/>
      <point x="514" y="0"/>
      <point x="558" y="0"/>
      <point x="605" y="0" type="curve"/>
      <point x="605" y="23"/>
      <point x="605" y="0"/>
      <point x="605" y="23" type="curve"/>
      <point x="464" y="23"/>
      <point x="609" y="23"/>
      <point x="468" y="23" type="curve"/>
      <point x="468" y="0"/>
      <point x="468" y="23"/>
    </contour>
    <contour>
      <point x="441" y="510" type="curve"/>
      <point x="569" y="510"/>
      <point x="437" y="510"/>
      <point x="565" y="510" type="curve"/>
      <point x="565" y="533"/>
      <point x="565" y="510"/>
      <point x="565" y="533" type="curve"/>
      <point x="522" y="533"/>
      <point x="483" y="533"/>
      <point x="441" y="533" type="curve"/>
      <point x="441" y="510"/>
      <point x="441" y="533"/>
    </contour>
    <contour>
      <point x="149" y="0" type="curve"/>
      <point x="192" y="0"/>
      <point x="146" y="0"/>
      <point x="274" y="0" type="curve"/>
      <point x="274" y="23"/>
      <point x="274" y="0"/>
      <point x="274" y="23" type="curve"/>
      <point x="146" y="23"/>
      <point x="278" y="23"/>
      <point x="149" y="23" type="curve"/>
      <point x="149" y="0"/>
      <point x="149" y="23"/>
    </contour>
    <contour>
      <point x="441" y="533" type="curve"/>
      <point x="395" y="533"/>
      <point x="353" y="533"/>
      <point x="308" y="533" type="curve"/>
      <point x="308" y="510"/>
      <point x="308" y="533"/>
      <point x="308" y="510" type="curve"/>
      <point x="445" y="510"/>
      <point x="303" y="510"/>
      <point x="441" y="510" type="curve"/>
      <point x="441" y="533"/>
      <point x="441" y="510"/>
    </contour>
    <contour>
      <point x="151" y="800" type="curve"/>
      <point x="102" y="800"/>
      <point x="58" y="800"/>
      <point x="9" y="800" type="curve"/>
      <point x="9" y="777"/>
      <point x="9" y="800"/>
      <point x="9" y="777" type="curve"/>
      <point x="156" y="777"/>
      <point x="4" y="777"/>
      <point x="151" y="777" type="curve"/>
      <point x="151" y="800"/>
      <point x="151" y="777"/>
    </contour>
    <contour>
      <point x="162" y="0" type="curve"/>
      <point x="162" y="800" type="line"/>
      <point x="137" y="800"/>
      <point x="162" y="800"/>
      <point x="137" y="800" type="curve"/>
      <point x="137" y="533"/>
      <point x="137" y="267"/>
      <point x="137" y="0" type="curve"/>
      <point x="162" y="0"/>
      <point x="137" y="0"/>
    </contour>
    <contour>
      <point x="439" y="533" type="curve"/>
      <point x="150" y="275" type="line"/>
      <point x="191" y="275"/>
      <point x="148" y="275"/>
      <point x="189" y="275" type="curve"/>
      <point x="478" y="533" type="line"/>
      <point x="437" y="533"/>
      <point x="480" y="533"/>
    </contour>
    <contour>
      <point x="506" y="1" type="curve"/>
      <point x="189" y="275" type="line"/>
      <point x="148" y="275"/>
      <point x="191" y="275"/>
      <point x="150" y="275" type="curve"/>
      <point x="464" y="0" type="line"/>
      <point x="508" y="0"/>
      <point x="462" y="1"/>
    </contour>
    <contour>
      <point x="366" y="-36" type="move" name="bottom"/>
    </contour>
  </outline>
</glyph>
<glyph name="m" format="1">
  <advance width="1019"/>
  <unicode hex="006D"/>
  <outline>
    <contour>
      <point x="524" y="0" type="curve"/>
      <point x="645" y="0"/>
      <point x="525" y="0"/>
      <point x="645" y="0" type="curve"/>
      <point x="645" y="23"/>
      <point x="645" y="0"/>
      <point x="645" y="23" type="curve"/>
      <point x="525" y="23"/>
      <point x="645" y="23"/>
      <point x="524" y="23" type="curve"/>
      <point x="524" y="0"/>
      <point x="524" y="23"/>
    </contour>
    <contour>
      <point x="872" y="0" type="curve"/>
      <point x="921" y="0"/>
      <point x="966" y="0"/>
      <point x="1014" y="0" type="curve"/>
      <point x="1014" y="23"/>
      <point x="1014" y="0"/>
      <point x="1014" y="23" type="curve"/>
      <point x="868" y="23"/>
      <point x="1019" y="23"/>
      <point x="872" y="23" type="curve"/>
      <point x="872" y="0"/>
      <point x="872" y="23"/>
    </contour>
    <contour>
      <point x="177" y="23" type="curve"/>
      <point x="31" y="23"/>
      <point x="182" y="23"/>
      <point x="35" y="23" type="curve"/>
      <point x="35" y="0"/>
      <point x="35" y="23"/>
      <point x="35" y="0" type="curve"/>
      <point x="84" y="0"/>
      <point x="129" y="0"/>
      <point x="177" y="0" type="curve"/>
      <point x="177" y="23"/>
      <point x="177" y="0"/>
    </contour>
    <contour>
      <point x="177" y="0" type="curve"/>
      <point x="219" y="0"/>
      <point x="169" y="0"/>
      <point x="294" y="0" type="curve"/>
      <point x="294" y="23"/>
      <point x="294" y="0"/>
      <point x="294" y="23" type="curve"/>
      <point x="169" y="23"/>
      <point x="303" y="23"/>
      <point x="177" y="23" type="curve"/>
      <point x="177" y="0"/>
      <point x="177" y="23"/>
    </contour>
    <contour>
      <point x="177" y="533" type="curve"/>
      <point x="129" y="533"/>
      <point x="84" y="533"/>
      <point x="35" y="533" type="curve"/>
      <point x="35" y="510"/>
      <point x="35" y="533"/>
      <point x="35" y="510" type="curve"/>
      <point x="182" y="510"/>
      <point x="31" y="510"/>
      <point x="177" y="510" type="curve"/>
      <point x="177" y="533"/>
      <point x="177" y="510"/>
    </contour>
    <contour>
      <point x="531" y="353" type="curve"/>
      <point x="568" y="446"/>
      <point x="630" y="515"/>
      <point x="721" y="515" type="curve"/>
      <point x="827" y="515"/>
      <point x="858" y="453"/>
      <point x="858" y="341" type="curve"/>
      <point x="858" y="228"/>
      <point x="858" y="114"/>
      <point x="858" y="0" type="curve"/>
      <point x="884" y="0"/>
      <point x="858" y="0"/>
      <point x="884" y="0" type="curve"/>
      <point x="884" y="115"/>
      <point x="884" y="229"/>
      <point x="884" y="344" type="curve"/>
      <point x="884" y="469"/>
      <point x="845" y="538"/>
      <point x="726" y="538" type="curve"/>
      <point x="621" y="538"/>
      <point x="551" y="468"/>
      <point x="519" y="365" type="curve"/>
      <point x="531" y="353"/>
      <point x="519" y="365"/>
    </contour>
    <contour>
      <point x="185" y="353" type="curve"/>
      <point x="220" y="445"/>
      <point x="281" y="516"/>
      <point x="374" y="516" type="curve"/>
      <point x="479" y="516"/>
      <point x="512" y="453"/>
      <point x="512" y="341" type="curve"/>
      <point x="512" y="228"/>
      <point x="512" y="114"/>
      <point x="512" y="0" type="curve"/>
      <point x="537" y="0"/>
      <point x="512" y="0"/>
      <point x="537" y="0" type="curve"/>
      <point x="537" y="115"/>
      <point x="537" y="229"/>
      <point x="537" y="344" type="curve"/>
      <point x="537" y="469"/>
      <point x="498" y="538"/>
      <point x="380" y="538" type="curve"/>
      <point x="272" y="538"/>
      <point x="205" y="469"/>
      <point x="172" y="365" type="curve"/>
      <point x="185" y="353"/>
      <point x="172" y="365"/>
    </contour>
    <contour>
      <point x="190" y="0" type="curve"/>
      <point x="190" y="178"/>
      <point x="190" y="355"/>
      <point x="190" y="533" type="curve"/>
      <point x="165" y="533"/>
      <point x="190" y="533"/>
      <point x="165" y="533" type="curve"/>
      <point x="165" y="355"/>
      <point x="165" y="178"/>
      <point x="165" y="0" type="curve"/>
      <point x="190" y="0"/>
      <point x="165" y="0"/>
    </contour>
  </outline>
</glyph>
<glyph name="n" format="1">
  <advance width="711"/>
  <unicode hex="006E"/>
  <outline>
    <contour>
      <point x="184" y="346" type="curve"/>
      <point x="215" y="447"/>
      <point x="301" y="515"/>
      <point x="395" y="515" type="curve"/>
      <point x="500" y="515"/>
      <point x="553" y="449"/>
      <point x="553" y="341" type="curve"/>
      <point x="553" y="228"/>
      <point x="553" y="114"/>
      <point x="553" y="0" type="curve"/>
      <point x="578" y="0"/>
      <point x="553" y="0"/>
      <point x="579" y="0" type="curve"/>
      <point x="579" y="115"/>
      <point x="579" y="229"/>
      <point x="579" y="344" type="curve"/>
      <point x="579" y="466"/>
      <point x="520" y="538"/>
      <point x="400" y="538" type="curve"/>
      <point x="294" y="538"/>
      <point x="199" y="472"/>
      <point x="172" y="361" type="curve"/>
      <point x="184" y="349"/>
      <point x="171" y="359"/>
    </contour>
    <contour>
      <point x="565" y="0" type="curve"/>
      <point x="613" y="0"/>
      <point x="658" y="0"/>
      <point x="707" y="0" type="curve"/>
      <point x="707" y="23"/>
      <point x="707" y="0"/>
      <point x="707" y="23" type="curve"/>
      <point x="560" y="23"/>
      <point x="711" y="23"/>
      <point x="565" y="23" type="curve"/>
      <point x="565" y="0"/>
      <point x="565" y="23"/>
    </contour>
    <contour>
      <point x="177" y="23" type="curve"/>
      <point x="31" y="23"/>
      <point x="182" y="23"/>
      <point x="35" y="23" type="curve"/>
      <point x="35" y="0"/>
      <point x="35" y="23"/>
      <point x="35" y="0" type="curve"/>
      <point x="84" y="0"/>
      <point x="129" y="0"/>
      <point x="177" y="0" type="curve"/>
      <point x="177" y="23"/>
      <point x="177" y="0"/>
    </contour>
    <contour>
      <point x="177" y="0" type="curve"/>
      <point x="221" y="0"/>
      <point x="170" y="0"/>
      <point x="301" y="0" type="curve"/>
      <point x="301" y="23"/>
      <point x="301" y="0"/>
      <point x="301" y="23" type="curve"/>
      <point x="170" y="23"/>
      <point x="309" y="23"/>
      <point x="177" y="23" type="curve"/>
      <point x="177" y="0"/>
      <point x="177" y="23"/>
    </contour>
    <contour>
      <point x="190" y="0" type="curve"/>
      <point x="190" y="178"/>
      <point x="190" y="355"/>
      <point x="190" y="533" type="curve"/>
      <point x="165" y="533"/>
      <point x="190" y="533"/>
      <point x="165" y="533" type="curve"/>
      <point x="165" y="355"/>
      <point x="165" y="178"/>
      <point x="165" y="0" type="curve"/>
      <point x="190" y="0"/>
      <point x="165" y="0"/>
    </contour>
    <contour>
      <point x="177" y="533" type="curve"/>
      <point x="129" y="533"/>
      <point x="84" y="533"/>
      <point x="35" y="533" type="curve"/>
      <point x="35" y="510"/>
      <point x="35" y="533"/>
      <point x="35" y="510" type="curve"/>
      <point x="182" y="510"/>
      <point x="31" y="510"/>
      <point x="177" y="510" type="curve"/>
      <point x="177" y="533"/>
      <point x="177" y="510"/>
    </contour>
    <contour>
      <point x="380" y="669" type="move" name="top"/>
    </contour>
    <contour>
      <point x="404" y="-37" type="move" name="bottom"/>
    </contour>
  </outline>
</glyph>
<glyph name="o" format="1">
  <advance width="606"/>
  <unicode hex="006F"/>
  <outline>
    <contour>
      <point x="91" y="268" type="curve"/>
      <point x="91" y="418"/>
      <point x="161" y="516"/>
      <point x="300" y="516" type="curve"/>
      <point x="444" y="516"/>
      <point x="515" y="417"/>
      <point x="515" y="266" type="curve"/>
      <point x="515" y="116"/>
      <point x="444" y="18"/>
      <point x="304" y="18" type="curve"/>
      <point x="158" y="18"/>
      <point x="91" y="118"/>
      <point x="91" y="268" type="curve"/>
      <point x="66" y="268"/>
      <point x="90" y="268"/>
      <point x="65" y="268" type="curve"/>
      <point x="65" y="104"/>
      <point x="144" y="-5"/>
      <point x="303" y="-5" type="curve"/>
      <point x="461" y="-5"/>
      <point x="541" y="102"/>
      <point x="541" y="266" type="curve"/>
      <point x="541" y="430"/>
      <point x="460" y="538"/>
      <point x="301" y="538" type="curve"/>
      <point x="144" y="538"/>
      <point x="65" y="430"/>
      <point x="65" y="268" type="curve"/>
      <point x="90" y="268"/>
      <point x="66" y="268"/>
    </contour>
    <contour>
      <point x="299" y="670" type="move" name="top"/>
    </contour>
  </outline>
</glyph>
<glyph name="p" format="1">
  <advance width="674"/>
  <unicode hex="0070"/>
  <outline>
    <contour>
      <point x="154" y="-277" type="curve"/>
      <point x="2" y="-277"/>
      <point x="158" y="-277"/>
      <point x="6" y="-277" type="curve"/>
      <point x="6" y="-299"/>
      <point x="6" y="-277"/>
      <point x="6" y="-299" type="curve"/>
      <point x="57" y="-299"/>
      <point x="104" y="-299"/>
      <point x="154" y="-299" type="curve"/>
      <point x="154" y="-277"/>
      <point x="154" y="-299"/>
    </contour>
    <contour>
      <point x="154" y="-300" type="curve"/>
      <point x="201" y="-300"/>
      <point x="244" y="-300"/>
      <point x="291" y="-300" type="curve"/>
      <point x="291" y="-277"/>
      <point x="291" y="-300"/>
      <point x="291" y="-277" type="curve"/>
      <point x="149" y="-278"/>
      <point x="295" y="-277"/>
      <point x="154" y="-278" type="curve"/>
      <point x="154" y="-300"/>
      <point x="154" y="-278"/>
    </contour>
    <contour>
      <point x="155" y="533" type="curve"/>
      <point x="105" y="533"/>
      <point x="58" y="533"/>
      <point x="8" y="533" type="curve"/>
      <point x="8" y="510"/>
      <point x="8" y="533"/>
      <point x="8" y="510" type="curve"/>
      <point x="160" y="511"/>
      <point x="3" y="510"/>
      <point x="155" y="511" type="curve"/>
      <point x="155" y="533"/>
      <point x="155" y="511"/>
    </contour>
    <contour>
      <point x="160" y="413" type="curve"/>
      <point x="198" y="464"/>
      <point x="281" y="516"/>
      <point x="374" y="516" type="curve"/>
      <point x="510" y="516"/>
      <point x="584" y="415"/>
      <point x="584" y="276" type="curve"/>
      <point x="587" y="128"/>
      <point x="512" y="17"/>
      <point x="375" y="18" type="curve"/>
      <point x="285" y="18"/>
      <point x="223" y="59"/>
      <point x="162" y="123" type="curve"/>
      <point x="146" y="111"/>
      <point x="162" y="122"/>
      <point x="146" y="111" type="curve"/>
      <point x="210" y="38"/>
      <point x="277" y="-5"/>
      <point x="375" y="-5" type="curve"/>
      <point x="531" y="-5"/>
      <point x="609" y="116"/>
      <point x="609" y="277" type="curve"/>
      <point x="609" y="429"/>
      <point x="526" y="538"/>
      <point x="376" y="538" type="curve"/>
      <point x="274" y="538"/>
      <point x="191" y="487"/>
      <point x="148" y="432" type="curve"/>
      <point x="162" y="415"/>
      <point x="146" y="431"/>
    </contour>
    <contour>
      <point x="167" y="-300" type="curve"/>
      <point x="167" y="-22"/>
      <point x="167" y="255"/>
      <point x="167" y="533" type="curve"/>
      <point x="142" y="533"/>
      <point x="167" y="533"/>
      <point x="142" y="533" type="curve"/>
      <point x="142" y="255"/>
      <point x="142" y="-22"/>
      <point x="142" y="-300" type="curve"/>
      <point x="167" y="-300"/>
      <point x="142" y="-300"/>
    </contour>
  </outline>
</glyph>
<glyph name="q" format="1">
  <advance width="662"/>
  <unicode hex="0071"/>
  <outline>
    <contour>
      <point x="523" y="510" type="curve"/>
      <point x="658" y="510"/>
      <point x="519" y="510"/>
      <point x="654" y="510" type="curve"/>
      <point x="654" y="533"/>
      <point x="654" y="510"/>
      <point x="654" y="533" type="curve"/>
      <point x="609" y="533"/>
      <point x="568" y="533"/>
      <point x="523" y="533" type="curve"/>
      <point x="523" y="510"/>
      <point x="523" y="533"/>
    </contour>
    <contour>
      <point x="523" y="-278" type="curve"/>
      <point x="377" y="-277"/>
      <point x="526" y="-278"/>
      <point x="380" y="-277" type="curve"/>
      <point x="380" y="-300"/>
      <point x="380" y="-277"/>
      <point x="380" y="-300" type="curve"/>
      <point x="429" y="-300"/>
      <point x="474" y="-300"/>
      <point x="523" y="-300" type="curve"/>
      <point x="523" y="-278"/>
      <point x="523" y="-300"/>
    </contour>
    <contour>
      <point x="523" y="-300" type="curve"/>
      <point x="568" y="-300"/>
      <point x="609" y="-300"/>
      <point x="654" y="-300" type="curve"/>
      <point x="654" y="-277"/>
      <point x="654" y="-300"/>
      <point x="654" y="-277" type="curve"/>
      <point x="519" y="-278"/>
      <point x="658" y="-277"/>
      <point x="523" y="-278" type="curve"/>
      <point x="523" y="-300"/>
      <point x="523" y="-278"/>
    </contour>
    <contour>
      <point x="528" y="439" type="curve"/>
      <point x="471" y="503"/>
      <point x="384" y="538"/>
      <point x="299" y="538" type="curve"/>
      <point x="144" y="538"/>
      <point x="63" y="423"/>
      <point x="63" y="264" type="curve"/>
      <point x="64" y="105"/>
      <point x="148" y="-5"/>
      <point x="303" y="-5" type="curve"/>
      <point x="395" y="-5"/>
      <point x="478" y="48"/>
      <point x="527" y="121" type="curve"/>
      <point x="512" y="135"/>
      <point x="530" y="126"/>
      <point x="515" y="140" type="curve"/>
      <point x="466" y="68"/>
      <point x="388" y="17"/>
      <point x="303" y="17" type="curve"/>
      <point x="165" y="17"/>
      <point x="90" y="120"/>
      <point x="90" y="265" type="curve"/>
      <point x="90" y="410"/>
      <point x="162" y="515"/>
      <point x="300" y="515" type="curve"/>
      <point x="380" y="515"/>
      <point x="461" y="479"/>
      <point x="517" y="420" type="curve"/>
      <point x="530" y="435"/>
      <point x="516" y="424"/>
    </contour>
    <contour>
      <point x="534" y="-300" type="curve"/>
      <point x="534" y="-22"/>
      <point x="534" y="255"/>
      <point x="534" y="533" type="curve"/>
      <point x="508" y="533"/>
      <point x="534" y="533"/>
      <point x="507" y="533" type="curve"/>
      <point x="507" y="255"/>
      <point x="507" y="-22"/>
      <point x="507" y="-300" type="curve"/>
      <point x="534" y="-300"/>
      <point x="508" y="-300"/>
    </contour>
  </outline>
</glyph>
<glyph name="u" format="1">
  <advance width="670"/>
  <unicode hex="0075"/>
  <outline>
    <contour>
      <point x="530" y="533" type="curve"/>
      <point x="482" y="533"/>
      <point x="436" y="533"/>
      <point x="388" y="533" type="curve"/>
      <point x="388" y="510"/>
      <point x="388" y="533"/>
      <point x="388" y="510" type="curve"/>
      <point x="534" y="510"/>
      <point x="384" y="510"/>
      <point x="530" y="510" type="curve"/>
      <point x="530" y="533"/>
      <point x="530" y="510"/>
    </contour>
    <contour>
      <point x="149" y="533" type="curve"/>
      <point x="100" y="533"/>
      <point x="55" y="533"/>
      <point x="6" y="533" type="curve"/>
      <point x="6" y="510"/>
      <point x="6" y="533"/>
      <point x="6" y="510" type="curve"/>
      <point x="152" y="510"/>
      <point x="3" y="510"/>
      <point x="149" y="510" type="curve"/>
      <point x="149" y="533"/>
      <point x="149" y="510"/>
    </contour>
    <contour>
      <point x="530" y="0" type="curve"/>
      <point x="576" y="0"/>
      <point x="617" y="0"/>
      <point x="662" y="0" type="curve"/>
      <point x="662" y="23"/>
      <point x="662" y="0"/>
      <point x="662" y="23" type="curve"/>
      <point x="527" y="23"/>
      <point x="665" y="23"/>
      <point x="530" y="23" type="curve"/>
      <point x="530" y="0"/>
      <point x="530" y="23"/>
    </contour>
    <contour>
      <point x="543" y="0" type="curve"/>
      <point x="543" y="178"/>
      <point x="543" y="355"/>
      <point x="543" y="533" type="curve"/>
      <point x="518" y="533"/>
      <point x="542" y="533"/>
      <point x="518" y="533" type="curve"/>
      <point x="518" y="355"/>
      <point x="518" y="178"/>
      <point x="518" y="0" type="curve"/>
      <point x="542" y="0"/>
      <point x="518" y="0"/>
    </contour>
    <contour>
      <point x="521" y="168" type="curve"/>
      <point x="483" y="88"/>
      <point x="410" y="18"/>
      <point x="328" y="18" type="curve"/>
      <point x="219" y="18"/>
      <point x="161" y="77"/>
      <point x="161" y="187" type="curve"/>
      <point x="161" y="302"/>
      <point x="161" y="418"/>
      <point x="161" y="533" type="curve"/>
      <point x="137" y="533"/>
      <point x="161" y="533"/>
      <point x="136" y="533" type="curve"/>
      <point x="136" y="417"/>
      <point x="136" y="301"/>
      <point x="136" y="185" type="curve"/>
      <point x="136" y="61"/>
      <point x="202" y="-5"/>
      <point x="327" y="-5" type="curve"/>
      <point x="421" y="-5"/>
      <point x="498" y="69"/>
      <point x="538" y="156" type="curve"/>
      <point x="521" y="167"/>
      <point x="538" y="157"/>
    </contour>
    <contour>
      <point x="324" y="670" type="move" name="top"/>
    </contour>
    <contour>
      <point x="543" y="0" type="move" name="bottom"/>
    </contour>
  </outline>
</glyph>
<glyph name="v" format="1">
  <advance width="710"/>
  <unicode hex="0076"/>
  <outline>
    <contour>
      <point x="143" y="533" type="curve"/>
      <point x="95" y="533"/>
      <point x="50" y="533"/>
      <point x="1" y="533" type="curve"/>
      <point x="1" y="510"/>
      <point x="1" y="533"/>
      <point x="1" y="510" type="curve"/>
      <point x="147" y="510"/>
      <point x="-3" y="510"/>
      <point x="143" y="510" type="curve"/>
      <point x="143" y="533"/>
      <point x="143" y="510"/>
    </contour>
    <contour>
      <point x="143" y="510" type="curve"/>
      <point x="276" y="510"/>
      <point x="139" y="510"/>
      <point x="272" y="510" type="curve"/>
      <point x="272" y="533"/>
      <point x="272" y="510"/>
      <point x="272" y="533" type="curve"/>
      <point x="228" y="533"/>
      <point x="188" y="533"/>
      <point x="143" y="533" type="curve"/>
      <point x="143" y="510"/>
      <point x="143" y="533"/>
    </contour>
    <contour>
      <point x="571" y="533" type="curve"/>
      <point x="525" y="533"/>
      <point x="483" y="533"/>
      <point x="438" y="533" type="curve"/>
      <point x="438" y="510"/>
      <point x="438" y="533"/>
      <point x="438" y="510" type="curve"/>
      <point x="575" y="510"/>
      <point x="433" y="510"/>
      <point x="571" y="510" type="curve"/>
      <point x="571" y="533"/>
      <point x="571" y="510"/>
    </contour>
    <contour>
      <point x="571" y="510" type="curve"/>
      <point x="712" y="510"/>
      <point x="567" y="510"/>
      <point x="708" y="510" type="curve"/>
      <point x="708" y="533"/>
      <point x="708" y="510"/>
      <point x="708" y="533" type="curve"/>
      <point x="661" y="533"/>
      <point x="618" y="533"/>
      <point x="571" y="533" type="curve"/>
      <point x="571" y="510"/>
      <point x="571" y="533"/>
    </contour>
    <contour>
      <point x="119" y="533" type="curve"/>
      <point x="192" y="355"/>
      <point x="264" y="178"/>
      <point x="336" y="0" type="curve"/>
      <point x="362" y="0"/>
      <point x="336" y="0"/>
      <point x="362" y="0" type="curve"/>
      <point x="290" y="178"/>
      <point x="219" y="355"/>
      <point x="148" y="533" type="curve"/>
      <point x="119" y="533"/>
      <point x="148" y="533"/>
    </contour>
    <contour>
      <point x="568" y="533" type="curve"/>
      <point x="341" y="0" type="line"/>
      <point x="367" y="0"/>
      <point x="341" y="0"/>
      <point x="367" y="0" type="curve"/>
      <point x="443" y="178"/>
      <point x="519" y="355"/>
      <point x="595" y="533" type="curve"/>
      <point x="568" y="533"/>
      <point x="595" y="533"/>
    </contour>
  </outline>
</glyph>
<glyph name="w" format="1">
  <advance width="1055"/>
  <unicode hex="0077"/>
  <outline>
    <contour>
      <point x="910" y="510" type="curve"/>
      <point x="1057" y="510"/>
      <point x="906" y="510"/>
      <point x="1052" y="510" type="curve"/>
      <point x="1052" y="533"/>
      <point x="1052" y="510"/>
      <point x="1052" y="533" type="curve"/>
      <point x="1004" y="533"/>
      <point x="959" y="533"/>
      <point x="910" y="533" type="curve"/>
      <point x="910" y="510"/>
      <point x="910" y="533"/>
    </contour>
    <contour>
      <point x="910" y="533" type="curve"/>
      <point x="862" y="533"/>
      <point x="826" y="533"/>
      <point x="777" y="533" type="curve"/>
      <point x="777" y="510"/>
      <point x="777" y="533"/>
      <point x="777" y="510" type="curve"/>
      <point x="923" y="510"/>
      <point x="765" y="510"/>
      <point x="910" y="510" type="curve"/>
      <point x="910" y="533"/>
      <point x="910" y="510"/>
    </contour>
    <contour>
      <point x="143" y="533" type="curve"/>
      <point x="95" y="533"/>
      <point x="50" y="533"/>
      <point x="1" y="533" type="curve"/>
      <point x="1" y="510"/>
      <point x="1" y="533"/>
      <point x="1" y="510" type="curve"/>
      <point x="148" y="510"/>
      <point x="-3" y="510"/>
      <point x="143" y="510" type="curve"/>
      <point x="143" y="533"/>
      <point x="143" y="510"/>
    </contour>
    <contour>
      <point x="143" y="510" type="curve"/>
      <point x="289" y="510"/>
      <point x="135" y="510"/>
      <point x="281" y="510" type="curve"/>
      <point x="281" y="533"/>
      <point x="281" y="510"/>
      <point x="281" y="533" type="curve"/>
      <point x="232" y="533"/>
      <point x="192" y="533"/>
      <point x="143" y="533" type="curve"/>
      <point x="143" y="510"/>
      <point x="143" y="533"/>
    </contour>
    <contour>
      <point x="332" y="0" type="curve"/>
      <point x="403" y="178"/>
      <point x="474" y="355"/>
      <point x="544" y="533" type="curve"/>
      <point x="517" y="533"/>
      <point x="544" y="533"/>
      <point x="517" y="533" type="curve"/>
      <point x="447" y="355"/>
      <point x="377" y="178"/>
      <point x="308" y="0" type="curve"/>
      <point x="332" y="0"/>
      <point x="308" y="0"/>
    </contour>
    <contour>
      <point x="911" y="533" type="curve"/>
      <point x="845" y="355"/>
      <point x="780" y="178"/>
      <point x="715" y="0" type="curve"/>
      <point x="740" y="0"/>
      <point x="715" y="0"/>
      <point x="740" y="0" type="curve"/>
      <point x="806" y="178"/>
      <point x="872" y="355"/>
      <point x="938" y="533" type="curve"/>
      <point x="911" y="533"/>
      <point x="938" y="533"/>
    </contour>
    <contour>
      <point x="523" y="533" type="curve"/>
      <point x="587" y="355"/>
      <point x="650" y="178"/>
      <point x="714" y="0" type="curve"/>
      <point x="738" y="0"/>
      <point x="714" y="0"/>
      <point x="738" y="0" type="curve"/>
      <point x="675" y="178"/>
      <point x="612" y="355"/>
      <point x="550" y="533" type="curve"/>
      <point x="523" y="533"/>
      <point x="550" y="533"/>
    </contour>
    <contour>
      <point x="116" y="533" type="curve"/>
      <point x="180" y="355"/>
      <point x="244" y="178"/>
      <point x="307" y="0" type="curve"/>
      <point x="331" y="0"/>
      <point x="307" y="0"/>
      <point x="331" y="0" type="curve"/>
      <point x="268" y="178"/>
      <point x="206" y="355"/>
      <point x="143" y="533" type="curve"/>
      <point x="116" y="533"/>
      <point x="143" y="533"/>
    </contour>
  </outline>
</glyph>
<glyph name="x" format="1">
  <advance width="726"/>
  <unicode hex="0078"/>
  <outline>
    <contour>
      <point x="147" y="23" type="curve"/>
      <point x="1" y="23"/>
      <point x="151" y="23"/>
      <point x="5" y="23" type="curve"/>
      <point x="5" y="0"/>
      <point x="5" y="23"/>
      <point x="5" y="0" type="curve"/>
      <point x="54" y="0"/>
      <point x="98" y="0"/>
      <point x="147" y="0" type="curve"/>
      <point x="147" y="23"/>
      <point x="147" y="0"/>
    </contour>
    <contour>
      <point x="578" y="23" type="curve"/>
      <point x="436" y="23"/>
      <point x="585" y="23"/>
      <point x="444" y="23" type="curve"/>
      <point x="444" y="0"/>
      <point x="444" y="23"/>
      <point x="444" y="0" type="curve"/>
      <point x="491" y="0"/>
      <point x="530" y="0"/>
      <point x="578" y="0" type="curve"/>
      <point x="578" y="23"/>
      <point x="578" y="0"/>
    </contour>
    <contour>
      <point x="577" y="0" type="curve"/>
      <point x="626" y="0"/>
      <point x="671" y="0"/>
      <point x="719" y="0" type="curve"/>
      <point x="719" y="23"/>
      <point x="719" y="0"/>
      <point x="719" y="23" type="curve"/>
      <point x="573" y="23"/>
      <point x="724" y="23"/>
      <point x="577" y="23" type="curve"/>
      <point x="577" y="0"/>
      <point x="577" y="23"/>
    </contour>
    <contour>
      <point x="147" y="0" type="curve"/>
      <point x="194" y="0"/>
      <point x="139" y="0"/>
      <point x="280" y="0" type="curve"/>
      <point x="280" y="23"/>
      <point x="280" y="0"/>
      <point x="280" y="23" type="curve"/>
      <point x="139" y="23"/>
      <point x="288" y="23"/>
      <point x="147" y="23" type="curve"/>
      <point x="147" y="0"/>
      <point x="147" y="23"/>
    </contour>
    <contour>
      <point x="560" y="510" type="curve"/>
      <point x="707" y="510"/>
      <point x="556" y="510"/>
      <point x="703" y="510" type="curve"/>
      <point x="703" y="533"/>
      <point x="703" y="510"/>
      <point x="703" y="533" type="curve"/>
      <point x="654" y="533"/>
      <point x="609" y="533"/>
      <point x="560" y="533" type="curve"/>
      <point x="560" y="510"/>
      <point x="560" y="533"/>
    </contour>
    <contour>
      <point x="168" y="533" type="curve"/>
      <point x="119" y="533"/>
      <point x="75" y="533"/>
      <point x="26" y="533" type="curve"/>
      <point x="26" y="510"/>
      <point x="26" y="533"/>
      <point x="26" y="510" type="curve"/>
      <point x="172" y="510"/>
      <point x="22" y="510"/>
      <point x="168" y="510" type="curve"/>
      <point x="168" y="533"/>
      <point x="168" y="510"/>
    </contour>
    <contour>
      <point x="168" y="510" type="curve"/>
      <point x="308" y="510"/>
      <point x="156" y="510"/>
      <point x="296" y="510" type="curve"/>
      <point x="296" y="533"/>
      <point x="296" y="510"/>
      <point x="296" y="533" type="curve"/>
      <point x="249" y="533"/>
      <point x="215" y="533"/>
      <point x="168" y="533" type="curve"/>
      <point x="168" y="510"/>
      <point x="168" y="533"/>
    </contour>
    <contour>
      <point x="560" y="533" type="curve"/>
      <point x="513" y="533"/>
      <point x="478" y="533"/>
      <point x="432" y="533" type="curve"/>
      <point x="432" y="510"/>
      <point x="432" y="533"/>
      <point x="432" y="510" type="curve"/>
      <point x="572" y="510"/>
      <point x="420" y="510"/>
      <point x="560" y="510" type="curve"/>
      <point x="560" y="533"/>
      <point x="560" y="510"/>
    </contour>
    <contour>
      <point x="607" y="0" type="curve"/>
      <point x="462" y="177"/>
      <point x="315" y="357"/>
      <point x="170" y="533" type="curve"/>
      <point x="141" y="533"/>
      <point x="171" y="532"/>
      <point x="141" y="532" type="curve"/>
      <point x="284" y="356"/>
      <point x="432" y="176"/>
      <point x="574" y="0" type="curve"/>
      <point x="607" y="0"/>
      <point x="574" y="0"/>
    </contour>
    <contour>
      <point x="560" y="533" type="curve"/>
      <point x="414" y="357"/>
      <point x="264" y="177"/>
      <point x="119" y="1" type="curve"/>
      <point x="151" y="1"/>
      <point x="119" y="0"/>
      <point x="151" y="0" type="curve"/>
      <point x="296" y="176"/>
      <point x="444" y="356"/>
      <point x="589" y="532" type="curve"/>
      <point x="559" y="532"/>
      <point x="589" y="533"/>
    </contour>
  </outline>
</glyph>
<glyph name="z" format="1">
  <advance width="541"/>
  <unicode hex="007A"/>
  <outline>
    <contour>
      <point x="70" y="510" type="curve"/>
      <point x="199" y="510"/>
      <point x="325" y="510"/>
      <point x="455" y="510" type="curve"/>
      <point x="453" y="513"/>
      <point x="450" y="515"/>
      <point x="447" y="517" type="curve"/>
      <point x="445" y="519"/>
      <point x="444" y="521"/>
      <point x="442" y="523" type="curve"/>
      <point x="439" y="519"/>
      <point x="436" y="516"/>
      <point x="432" y="512" type="curve"/>
      <point x="55" y="23" type="line"/>
      <point x="55" y="10"/>
      <point x="55" y="23"/>
      <point x="55" y="10" type="curve"/>
      <point x="55" y="0"/>
      <point x="55" y="10"/>
      <point x="55" y="0" type="curve"/>
      <point x="61" y="0"/>
      <point x="55" y="0"/>
      <point x="61" y="0" type="curve"/>
      <point x="491" y="0"/>
      <point x="346" y="0"/>
      <point x="490" y="0" type="curve"/>
      <point x="490" y="23"/>
      <point x="490" y="0"/>
      <point x="490" y="23" type="curve"/>
      <point x="346" y="23"/>
      <point x="204" y="23"/>
      <point x="61" y="23" type="curve"/>
      <point x="63" y="21"/>
      <point x="66" y="19"/>
      <point x="68" y="17" type="curve"/>
      <point x="70" y="15"/>
      <point x="73" y="12"/>
      <point x="75" y="10" type="curve"/>
      <point x="78" y="14"/>
      <point x="80" y="17"/>
      <point x="83" y="21" type="curve"/>
      <point x="462" y="510" type="line"/>
      <point x="462" y="523"/>
      <point x="462" y="510"/>
      <point x="462" y="523" type="curve"/>
      <point x="462" y="533"/>
      <point x="462" y="523"/>
      <point x="462" y="533" type="curve"/>
      <point x="455" y="533"/>
      <point x="462" y="533"/>
      <point x="455" y="533" type="curve"/>
      <point x="325" y="533"/>
      <point x="199" y="533"/>
      <point x="70" y="533" type="curve"/>
      <point x="70" y="510"/>
      <point x="70" y="533"/>
    </contour>
    <contour>
      <point x="70" y="522" type="curve"/>
      <point x="70" y="402"/>
      <point x="70" y="526"/>
      <point x="70" y="406" type="curve"/>
      <point x="92" y="406"/>
      <point x="70" y="406"/>
      <point x="92" y="406" type="curve"/>
      <point x="92" y="526"/>
      <point x="92" y="402"/>
      <point x="92" y="522" type="curve"/>
      <point x="70" y="522"/>
      <point x="92" y="522"/>
    </contour>
    <contour>
      <point x="490" y="11" type="curve"/>
      <point x="490" y="131"/>
      <point x="490" y="7"/>
      <point x="490" y="127" type="curve"/>
      <point x="467" y="127"/>
      <point x="490" y="127"/>
      <point x="467" y="127" type="curve"/>
      <point x="467" y="7"/>
      <point x="467" y="131"/>
      <point x="467" y="11" type="curve"/>
      <point x="490" y="11"/>
      <point x="467" y="11"/>
    </contour>
    <contour>
      <point x="268" y="669" type="move" name="top"/>
    </contour>
  </outline>
</glyph>
<glyph name="braceleft" format="1">
  <advance width="330"/>
  <unicode hex="007B"/>
  <outline>
    <contour>
      <point x="282" y="-101" type="curve"/>
      <point x="208" y="-101"/>
      <point x="172" y="-50"/>
      <point x="172" y="26" type="curve"/>
      <point x="172" y="85"/>
      <point x="172" y="144"/>
      <point x="172" y="203" type="curve"/>
      <point x="172" y="291"/>
      <point x="126" y="351"/>
      <point x="40" y="351" type="curve"/>
      <point x="40" y="327"/>
      <point x="40" y="351"/>
      <point x="40" y="327" type="curve"/>
      <point x="111" y="327"/>
      <point x="149" y="279"/>
      <point x="149" y="205" type="curve"/>
      <point x="149" y="146"/>
      <point x="149" y="86"/>
      <point x="149" y="27" type="curve"/>
      <point x="149" y="-63"/>
      <point x="194" y="-123"/>
      <point x="282" y="-123" type="curve"/>
      <point x="282" y="-101"/>
      <point x="282" y="-123"/>
    </contour>
    <contour>
      <point x="282" y="800" type="curve"/>
      <point x="194" y="800"/>
      <point x="149" y="740"/>
      <point x="149" y="650" type="curve"/>
      <point x="149" y="590"/>
      <point x="149" y="530"/>
      <point x="149" y="470" type="curve"/>
      <point x="149" y="397"/>
      <point x="111" y="351"/>
      <point x="40" y="351" type="curve"/>
      <point x="40" y="327"/>
      <point x="40" y="351"/>
      <point x="40" y="327" type="curve"/>
      <point x="125" y="327"/>
      <point x="171" y="385"/>
      <point x="171" y="473" type="curve"/>
      <point x="171" y="532"/>
      <point x="171" y="591"/>
      <point x="171" y="650" type="curve"/>
      <point x="171" y="726"/>
      <point x="207" y="777"/>
      <point x="282" y="777" type="curve"/>
      <point x="282" y="800"/>
      <point x="282" y="777"/>
    </contour>
  </outline>
</glyph>
<glyph name="braceright" format="1">
  <advance width="330"/>
  <unicode hex="007D"/>
  <outline>
    <contour>
      <point x="48" y="-124" type="curve"/>
      <point x="136" y="-124"/>
      <point x="181" y="-63"/>
      <point x="181" y="27" type="curve"/>
      <point x="181" y="86"/>
      <point x="181" y="146"/>
      <point x="181" y="205" type="curve"/>
      <point x="181" y="278"/>
      <point x="219" y="327"/>
      <point x="290" y="327" type="curve"/>
      <point x="290" y="350"/>
      <point x="290" y="327"/>
      <point x="290" y="350" type="curve"/>
      <point x="205" y="350"/>
      <point x="158" y="290"/>
      <point x="158" y="203" type="curve"/>
      <point x="158" y="144"/>
      <point x="158" y="85"/>
      <point x="158" y="26" type="curve"/>
      <point x="158" y="-50"/>
      <point x="123" y="-101"/>
      <point x="48" y="-101" type="curve"/>
      <point x="48" y="-124"/>
      <point x="48" y="-101"/>
    </contour>
    <contour>
      <point x="48" y="777" type="curve"/>
      <point x="123" y="777"/>
      <point x="158" y="726"/>
      <point x="158" y="650" type="curve"/>
      <point x="158" y="591"/>
      <point x="158" y="532"/>
      <point x="158" y="473" type="curve"/>
      <point x="158" y="384"/>
      <point x="205" y="327"/>
      <point x="290" y="327" type="curve"/>
      <point x="290" y="350"/>
      <point x="290" y="327"/>
      <point x="290" y="350" type="curve"/>
      <point x="219" y="350"/>
      <point x="181" y="396"/>
      <point x="181" y="470" type="curve"/>
      <point x="181" y="530"/>
      <point x="181" y="590"/>
      <point x="181" y="650" type="curve"/>
      <point x="181" y="740"/>
      <point x="135" y="799"/>
      <point x="48" y="799" type="curve"/>
      <point x="48" y="777"/>
      <point x="48" y="799"/>
    </contour>
  </outline>
</glyph>
<glyph name="asciitilde" format="1">
  <advance width="701"/>
  <unicode hex="007E"/>
  <outline>
    <contour>
      <point x="589" y="344" type="curve"/>
      <point x="570" y="294"/>
      <point x="544" y="242"/>
      <point x="481" y="242" type="curve"/>
      <point x="431" y="242"/>
      <point x="398" y="258"/>
      <point x="358" y="290" type="curve"/>
      <point x="317" y="324"/>
      <point x="283" y="345"/>
      <point x="230" y="345" type="curve"/>
      <point x="148" y="345"/>
      <point x="112" y="300"/>
      <point x="91" y="226" type="curve"/>
      <point x="111" y="219"/>
      <point x="92" y="226"/>
      <point x="111" y="219" type="curve"/>
      <point x="129" y="278"/>
      <point x="159" y="323"/>
      <point x="228" y="323" type="curve"/>
      <point x="273" y="323"/>
      <point x="302" y="307"/>
      <point x="336" y="279" type="curve"/>
      <point x="383" y="242"/>
      <point x="419" y="220"/>
      <point x="479" y="220" type="curve"/>
      <point x="557" y="220"/>
      <point x="587" y="271"/>
      <point x="611" y="338" type="curve"/>
      <point x="590" y="344"/>
      <point x="610" y="339"/>
    </contour>
  </outline>
</glyph>
<glyph name="exclamdown" format="1">
  <advance width="222"/>
  <unicode hex="00A1"/>
  <outline>
    <contour>
      <point x="98" y="307" type="line"/>
      <point x="94" y="-186" type="line"/>
      <point x="127" y="-186" type="line"/>
      <point x="123" y="307" type="line"/>
    </contour>
    <contour>
      <point x="91" y="524" type="curve"/>
      <point x="91" y="512"/>
      <point x="99" y="506"/>
      <point x="111" y="506" type="curve"/>
      <point x="122" y="506"/>
      <point x="129" y="513"/>
      <point x="129" y="524" type="curve"/>
      <point x="104" y="524"/>
      <point x="116" y="524"/>
      <point x="91" y="524" type="curve"/>
      <point x="91" y="535"/>
      <point x="99" y="542"/>
      <point x="111" y="542" type="curve"/>
      <point x="122" y="542"/>
      <point x="129" y="535"/>
      <point x="129" y="524" type="curve"/>
      <point x="104" y="524"/>
      <point x="116" y="524"/>
    </contour>
  </outline>
</glyph>
<glyph name="cent" format="1">
  <advance width="648"/>
  <unicode hex="00A2"/>
  <outline>
    <contour>
      <point x="349" y="-53" type="curve"/>
      <point x="349" y="-13"/>
      <point x="349" y="27"/>
      <point x="349" y="67" type="curve"/>
      <point x="324" y="67"/>
      <point x="349" y="67"/>
      <point x="324" y="67" type="curve"/>
      <point x="324" y="27"/>
      <point x="324" y="-13"/>
      <point x="324" y="-53" type="curve"/>
      <point x="349" y="-53"/>
      <point x="324" y="-53"/>
    </contour>
    <contour>
      <point x="345" y="778" type="curve"/>
      <point x="345" y="742"/>
      <point x="345" y="706"/>
      <point x="345" y="670" type="curve"/>
      <point x="370" y="670"/>
      <point x="345" y="670"/>
      <point x="370" y="670" type="curve"/>
      <point x="370" y="706"/>
      <point x="370" y="742"/>
      <point x="370" y="778" type="curve"/>
      <point x="345" y="778"/>
      <point x="370" y="778"/>
    </contour>
    <contour>
      <point x="586" y="606" type="curve"/>
      <point x="513" y="658"/>
      <point x="451" y="679"/>
      <point x="362" y="679" type="curve"/>
      <point x="172" y="679"/>
      <point x="61" y="558"/>
      <point x="61" y="366" type="curve"/>
      <point x="61" y="181"/>
      <point x="154" y="54"/>
      <point x="334" y="54" type="curve"/>
      <point x="435" y="54"/>
      <point x="504" y="85"/>
      <point x="584" y="147" type="curve"/>
      <point x="568" y="164"/>
      <point x="584" y="147"/>
      <point x="568" y="164" type="curve"/>
      <point x="494" y="106"/>
      <point x="431" y="77"/>
      <point x="336" y="77" type="curve"/>
      <point x="172" y="77"/>
      <point x="86" y="195"/>
      <point x="86" y="367" type="curve"/>
      <point x="86" y="544"/>
      <point x="188" y="656"/>
      <point x="360" y="656" type="curve"/>
      <point x="445" y="656"/>
      <point x="503" y="636"/>
      <point x="571" y="589" type="curve"/>
      <point x="586" y="606"/>
      <point x="571" y="589"/>
    </contour>
    <contour>
      <point x="563" y="606" type="curve"/>
      <point x="563" y="486"/>
      <point x="563" y="606"/>
      <point x="563" y="486" type="curve"/>
      <point x="586" y="486"/>
      <point x="563" y="486"/>
      <point x="586" y="486" type="curve"/>
      <point x="586" y="606"/>
      <point x="586" y="486"/>
      <point x="586" y="606" type="curve"/>
      <point x="563" y="606"/>
      <point x="586" y="606"/>
    </contour>
  </outline>
</glyph>
<glyph name="sterling" format="1">
  <advance width="538"/>
  <unicode hex="00A3"/>
  <outline>
    <contour>
      <point x="468" y="23" type="curve"/>
      <point x="326" y="23"/>
      <point x="187" y="23"/>
      <point x="47" y="23" type="curve"/>
      <point x="47" y="1"/>
      <point x="47" y="23"/>
      <point x="47" y="1" type="curve"/>
      <point x="187" y="1"/>
      <point x="327" y="1"/>
      <point x="468" y="1" type="curve"/>
      <point x="468" y="23"/>
      <point x="468" y="1"/>
    </contour>
    <contour>
      <point x="419" y="388" type="curve"/>
      <point x="307" y="388"/>
      <point x="195" y="388"/>
      <point x="84" y="388" type="curve"/>
      <point x="84" y="366"/>
      <point x="84" y="388"/>
      <point x="84" y="366" type="curve"/>
      <point x="195" y="366"/>
      <point x="307" y="366"/>
      <point x="419" y="366" type="curve"/>
      <point x="419" y="388"/>
      <point x="419" y="366"/>
    </contour>
    <contour>
      <point x="479" y="675" type="curve"/>
      <point x="432" y="707"/>
      <point x="395" y="724"/>
      <point x="339" y="724" type="curve"/>
      <point x="181" y="724"/>
      <point x="141" y="564"/>
      <point x="182" y="375" type="curve"/>
      <point x="221" y="189"/>
      <point x="198" y="23"/>
      <point x="47" y="23" type="curve"/>
      <point x="47" y="1"/>
      <point x="47" y="23"/>
      <point x="47" y="1" type="curve"/>
      <point x="221" y="1"/>
      <point x="248" y="177"/>
      <point x="206" y="379" type="curve"/>
      <point x="171" y="551"/>
      <point x="205" y="702"/>
      <point x="337" y="702" type="curve"/>
      <point x="389" y="702"/>
      <point x="424" y="687"/>
      <point x="465" y="658" type="curve"/>
      <point x="479" y="675"/>
      <point x="465" y="658"/>
    </contour>
  </outline>
</glyph>
<glyph name="currency" format="1">
  <advance width="644"/>
  <unicode hex="00A4"/>
  <outline>
    <contour>
      <point x="181" y="310" type="curve"/>
      <point x="181" y="400"/>
      <point x="234" y="457"/>
      <point x="324" y="457" type="curve"/>
      <point x="413" y="457"/>
      <point x="462" y="400"/>
      <point x="462" y="310" type="curve"/>
      <point x="462" y="219"/>
      <point x="415" y="157"/>
      <point x="327" y="157" type="curve"/>
      <point x="233" y="157"/>
      <point x="181" y="216"/>
      <point x="181" y="310" type="curve"/>
      <point x="156" y="310"/>
      <point x="181" y="310"/>
      <point x="156" y="310" type="curve"/>
      <point x="156" y="202"/>
      <point x="219" y="135"/>
      <point x="326" y="135" type="curve"/>
      <point x="430" y="135"/>
      <point x="488" y="206"/>
      <point x="488" y="311" type="curve"/>
      <point x="488" y="414"/>
      <point x="427" y="480"/>
      <point x="326" y="480" type="curve"/>
      <point x="220" y="480"/>
      <point x="156" y="415"/>
      <point x="156" y="310" type="curve"/>
      <point x="181" y="310"/>
      <point x="156" y="310"/>
    </contour>
    <contour>
      <point x="440" y="417" type="line"/>
      <point x="575" y="547" type="line"/>
      <point x="554" y="570" type="line"/>
      <point x="422" y="435" type="line"/>
    </contour>
    <contour>
      <point x="422" y="185" type="line"/>
      <point x="553" y="49" type="line"/>
      <point x="575" y="72" type="line"/>
      <point x="440" y="202" type="line"/>
    </contour>
    <contour>
      <point x="202" y="203" type="line"/>
      <point x="66" y="72" type="line"/>
      <point x="88" y="50" type="line"/>
      <point x="220" y="185" type="line"/>
    </contour>
    <contour>
      <point x="222" y="435" type="line"/>
      <point x="90" y="570" type="line"/>
      <point x="68" y="548" type="line"/>
      <point x="204" y="417" type="line"/>
    </contour>
  </outline>
</glyph>
<glyph name="yen" format="1">
  <advance width="864"/>
  <unicode hex="00A5"/>
  <outline>
    <contour>
      <point x="663" y="372" type="curve"/>
      <point x="589" y="372"/>
      <point x="516" y="372"/>
      <point x="442" y="372" type="curve"/>
      <point x="442" y="347"/>
      <point x="442" y="372"/>
      <point x="442" y="347" type="curve"/>
      <point x="516" y="347"/>
      <point x="589" y="347"/>
      <point x="663" y="347" type="curve"/>
      <point x="663" y="372"/>
      <point x="663" y="347"/>
    </contour>
    <contour>
      <point x="412" y="372" type="curve"/>
      <point x="340" y="372"/>
      <point x="268" y="372"/>
      <point x="196" y="372" type="curve"/>
      <point x="196" y="347"/>
      <point x="196" y="372"/>
      <point x="196" y="347" type="curve"/>
      <point x="268" y="347"/>
      <point x="340" y="347"/>
      <point x="412" y="347" type="curve"/>
      <point x="412" y="372"/>
      <point x="412" y="347"/>
    </contour>
    <contour>
      <point x="663" y="252" type="curve"/>
      <point x="507" y="252"/>
      <point x="351" y="252"/>
      <point x="196" y="252" type="curve"/>
      <point x="196" y="228"/>
      <point x="196" y="252"/>
      <point x="196" y="228" type="curve"/>
      <point x="351" y="228"/>
      <point x="507" y="228"/>
      <point x="663" y="228" type="curve"/>
      <point x="663" y="252"/>
      <point x="663" y="228"/>
    </contour>
    <contour>
      <point x="425" y="23" type="curve"/>
      <point x="263" y="23"/>
      <point x="429" y="23"/>
      <point x="267" y="23" type="curve"/>
      <point x="267" y="1"/>
      <point x="267" y="23"/>
      <point x="267" y="1" type="curve"/>
      <point x="321" y="1"/>
      <point x="371" y="1"/>
      <point x="425" y="1" type="curve"/>
      <point x="425" y="23"/>
      <point x="425" y="1"/>
    </contour>
    <contour>
      <point x="425" y="0" type="curve"/>
      <point x="479" y="0"/>
      <point x="530" y="0"/>
      <point x="583" y="0" type="curve"/>
      <point x="583" y="23"/>
      <point x="583" y="0"/>
      <point x="583" y="23" type="curve"/>
      <point x="421" y="22"/>
      <point x="587" y="23"/>
      <point x="425" y="22" type="curve"/>
      <point x="425" y="0"/>
      <point x="425" y="22"/>
    </contour>
    <contour>
      <point x="671" y="722" type="curve"/>
      <point x="617" y="722"/>
      <point x="567" y="722"/>
      <point x="513" y="722" type="curve"/>
      <point x="513" y="700"/>
      <point x="513" y="722"/>
      <point x="513" y="700" type="curve"/>
      <point x="676" y="700"/>
      <point x="509" y="700"/>
      <point x="671" y="700" type="curve"/>
      <point x="671" y="722"/>
      <point x="671" y="700"/>
    </contour>
    <contour>
      <point x="193" y="722" type="curve"/>
      <point x="139" y="722"/>
      <point x="89" y="722"/>
      <point x="35" y="722" type="curve"/>
      <point x="35" y="700"/>
      <point x="35" y="722"/>
      <point x="35" y="700" type="curve"/>
      <point x="197" y="700"/>
      <point x="31" y="700"/>
      <point x="193" y="700" type="curve"/>
      <point x="193" y="722"/>
      <point x="193" y="700"/>
    </contour>
    <contour>
      <point x="193" y="700" type="curve"/>
      <point x="355" y="700"/>
      <point x="189" y="700"/>
      <point x="351" y="700" type="curve"/>
      <point x="351" y="722"/>
      <point x="351" y="700"/>
      <point x="351" y="722" type="curve"/>
      <point x="297" y="722"/>
      <point x="247" y="722"/>
      <point x="193" y="722" type="curve"/>
      <point x="193" y="700"/>
      <point x="193" y="722"/>
    </contour>
    <contour>
      <point x="672" y="700" type="curve"/>
      <point x="833" y="700"/>
      <point x="667" y="700"/>
      <point x="829" y="700" type="curve"/>
      <point x="829" y="722"/>
      <point x="829" y="700"/>
      <point x="829" y="722" type="curve"/>
      <point x="775" y="722"/>
      <point x="725" y="722"/>
      <point x="672" y="722" type="curve"/>
      <point x="672" y="700"/>
      <point x="672" y="722"/>
    </contour>
    <contour>
      <point x="166" y="722" type="curve"/>
      <point x="248" y="593"/>
      <point x="330" y="464"/>
      <point x="412" y="336" type="curve"/>
      <point x="438" y="336"/>
      <point x="412" y="336"/>
      <point x="438" y="336" type="curve"/>
      <point x="356" y="464"/>
      <point x="274" y="593"/>
      <point x="193" y="722" type="curve"/>
      <point x="166" y="722"/>
      <point x="193" y="722"/>
    </contour>
    <contour>
      <point x="670" y="721" type="curve"/>
      <point x="584" y="593"/>
      <point x="498" y="464"/>
      <point x="412" y="336" type="curve"/>
      <point x="438" y="336"/>
      <point x="412" y="336"/>
      <point x="438" y="336" type="curve"/>
      <point x="524" y="464"/>
      <point x="611" y="593"/>
      <point x="697" y="721" type="curve"/>
      <point x="670" y="721"/>
      <point x="697" y="721"/>
    </contour>
    <contour>
      <point x="438" y="0" type="curve"/>
      <point x="438" y="113"/>
      <point x="438" y="227"/>
      <point x="438" y="340" type="curve"/>
      <point x="412" y="340"/>
      <point x="438" y="340"/>
      <point x="412" y="340" type="curve"/>
      <point x="412" y="227"/>
      <point x="412" y="113"/>
      <point x="412" y="0" type="curve"/>
      <point x="438" y="0"/>
      <point x="412" y="0"/>
    </contour>
  </outline>
</glyph>
<glyph name="section" format="1">
  <advance width="501"/>
  <unicode hex="00A7"/>
  <outline>
    <contour>
      <point x="405" y="709" type="curve"/>
      <point x="352" y="737"/>
      <point x="312" y="752"/>
      <point x="252" y="752" type="curve"/>
      <point x="163" y="752"/>
      <point x="105" y="707"/>
      <point x="105" y="627" type="curve"/>
      <point x="105" y="549"/>
      <point x="159" y="511"/>
      <point x="234" y="484" type="curve"/>
      <point x="322" y="455"/>
      <point x="411" y="446"/>
      <point x="411" y="361" type="curve"/>
      <point x="411" y="287"/>
      <point x="361" y="244"/>
      <point x="282" y="229" type="curve"/>
      <point x="297" y="211"/>
      <point x="282" y="229"/>
      <point x="297" y="211" type="curve"/>
      <point x="382" y="232"/>
      <point x="436" y="277"/>
      <point x="436" y="361" type="curve"/>
      <point x="435" y="459"/>
      <point x="344" y="475"/>
      <point x="247" y="505" type="curve"/>
      <point x="180" y="528"/>
      <point x="130" y="560"/>
      <point x="130" y="627" type="curve"/>
      <point x="130" y="693"/>
      <point x="176" y="730"/>
      <point x="250" y="730" type="curve"/>
      <point x="306" y="730"/>
      <point x="344" y="716"/>
      <point x="393" y="691" type="curve"/>
      <point x="405" y="709"/>
      <point x="393" y="691"/>
    </contour>
    <contour>
      <point x="201" y="513" type="curve"/>
      <point x="122" y="489"/>
      <point x="69" y="447"/>
      <point x="69" y="367" type="curve"/>
      <point x="69" y="274"/>
      <point x="150" y="249"/>
      <point x="244" y="220" type="curve"/>
      <point x="317" y="194"/>
      <point x="381" y="172"/>
      <point x="381" y="100" type="curve"/>
      <point x="381" y="32"/>
      <point x="329" y="-7"/>
      <point x="254" y="-7" type="curve"/>
      <point x="189" y="-7"/>
      <point x="147" y="11"/>
      <point x="94" y="45" type="curve"/>
      <point x="79" y="28"/>
      <point x="94" y="45"/>
      <point x="79" y="28" type="curve"/>
      <point x="136" y="-11"/>
      <point x="184" y="-29"/>
      <point x="253" y="-29" type="curve"/>
      <point x="343" y="-29"/>
      <point x="406" y="13"/>
      <point x="406" y="100" type="curve"/>
      <point x="404" y="182"/>
      <point x="341" y="215"/>
      <point x="259" y="240" type="curve"/>
      <point x="174" y="268"/>
      <point x="95" y="287"/>
      <point x="95" y="367" type="curve"/>
      <point x="95" y="439"/>
      <point x="142" y="474"/>
      <point x="213" y="497" type="curve"/>
      <point x="201" y="513"/>
      <point x="213" y="497"/>
    </contour>
    <contour>
      <point x="102" y="28" type="curve"/>
      <point x="102" y="148"/>
      <point x="102" y="28"/>
      <point x="102" y="148" type="curve"/>
      <point x="79" y="148"/>
      <point x="102" y="148"/>
      <point x="79" y="148" type="curve"/>
      <point x="79" y="28"/>
      <point x="79" y="148"/>
      <point x="79" y="28" type="curve"/>
      <point x="102" y="28"/>
      <point x="79" y="28"/>
    </contour>
    <contour>
      <point x="405" y="589" type="curve"/>
      <point x="405" y="709"/>
      <point x="405" y="589"/>
      <point x="405" y="709" type="curve"/>
      <point x="382" y="709"/>
      <point x="405" y="709"/>
      <point x="382" y="709" type="curve"/>
      <point x="382" y="589"/>
      <point x="382" y="709"/>
      <point x="382" y="589" type="curve"/>
      <point x="405" y="589"/>
      <point x="382" y="589"/>
    </contour>
  </outline>
</glyph>
<glyph name="dieresis" format="1">
  <advance width="373"/>
  <unicode hex="00A8"/>
  <outline>
    <contour>
      <point x="92" y="668" type="curve"/>
      <point x="92" y="680"/>
      <point x="84" y="687"/>
      <point x="72" y="687" type="curve"/>
      <point x="61" y="687"/>
      <point x="54" y="679"/>
      <point x="54" y="668" type="curve"/>
      <point x="80" y="668"/>
      <point x="67" y="668"/>
      <point x="92" y="668" type="curve"/>
      <point x="92" y="657"/>
      <point x="84" y="650"/>
      <point x="72" y="650" type="curve"/>
      <point x="61" y="650"/>
      <point x="54" y="657"/>
      <point x="54" y="668" type="curve"/>
      <point x="80" y="668"/>
      <point x="67" y="668"/>
    </contour>
    <contour>
      <point x="219" y="668" type="curve"/>
      <point x="219" y="680"/>
      <point x="211" y="687"/>
      <point x="199" y="687" type="curve"/>
      <point x="187" y="687"/>
      <point x="181" y="679"/>
      <point x="181" y="668" type="curve"/>
      <point x="206" y="668"/>
      <point x="193" y="668"/>
      <point x="219" y="668" type="curve"/>
      <point x="219" y="657"/>
      <point x="211" y="650"/>
      <point x="199" y="650" type="curve"/>
      <point x="187" y="650"/>
      <point x="181" y="657"/>
      <point x="181" y="668" type="curve"/>
      <point x="206" y="668"/>
      <point x="193" y="668"/>
    </contour>
    <contour>
      <point x="137" y="652" type="move" name="_top"/>
    </contour>
  </outline>
</glyph>
<glyph name="copyright" format="1">
  <advance width="789"/>
  <unicode hex="00A9"/>
  <outline>
    <contour>
      <point x="91" y="319" type="curve"/>
      <point x="91" y="503"/>
      <point x="213" y="624"/>
      <point x="398" y="624" type="curve"/>
      <point x="579" y="624"/>
      <point x="698" y="501"/>
      <point x="698" y="318" type="curve"/>
      <point x="698" y="139"/>
      <point x="582" y="18"/>
      <point x="405" y="18" type="curve"/>
      <point x="220" y="18"/>
      <point x="91" y="134"/>
      <point x="91" y="319" type="curve"/>
      <point x="66" y="319"/>
      <point x="91" y="319"/>
      <point x="66" y="319" type="curve"/>
      <point x="66" y="123"/>
      <point x="203" y="-4"/>
      <point x="403" y="-4" type="curve"/>
      <point x="596" y="-4"/>
      <point x="722" y="126"/>
      <point x="722" y="319" type="curve"/>
      <point x="722" y="515"/>
      <point x="593" y="645"/>
      <point x="398" y="645" type="curve"/>
      <point x="200" y="645"/>
      <point x="66" y="517"/>
      <point x="66" y="319" type="curve"/>
      <point x="91" y="319"/>
      <point x="66" y="319"/>
    </contour>
    <contour>
      <point x="500" y="452" type="curve"/>
      <point x="500" y="429"/>
      <point x="500" y="405"/>
      <point x="500" y="381" type="curve"/>
      <point x="522" y="381"/>
      <point x="500" y="381"/>
      <point x="522" y="381" type="curve"/>
      <point x="522" y="409"/>
      <point x="522" y="436"/>
      <point x="522" y="464" type="curve"/>
      <point x="500" y="452"/>
      <point x="522" y="464"/>
    </contour>
    <contour>
      <point x="522" y="464" type="curve"/>
      <point x="483" y="487"/>
      <point x="451" y="496"/>
      <point x="404" y="496" type="curve"/>
      <point x="297" y="496"/>
      <point x="233" y="427"/>
      <point x="233" y="319" type="curve"/>
      <point x="233" y="214"/>
      <point x="290" y="146"/>
      <point x="392" y="146" type="curve"/>
      <point x="449" y="146"/>
      <point x="490" y="158"/>
      <point x="536" y="193" type="curve"/>
      <point x="520" y="209"/>
      <point x="536" y="193"/>
      <point x="520" y="209" type="curve"/>
      <point x="480" y="179"/>
      <point x="444" y="168"/>
      <point x="393" y="168" type="curve"/>
      <point x="304" y="168"/>
      <point x="258" y="229"/>
      <point x="258" y="320" type="curve"/>
      <point x="258" y="414"/>
      <point x="310" y="474"/>
      <point x="403" y="474" type="curve"/>
      <point x="444" y="474"/>
      <point x="470" y="467"/>
      <point x="500" y="452" type="curve"/>
      <point x="522" y="464"/>
      <point x="500" y="452"/>
    </contour>
  </outline>
</glyph>
<glyph name="ordfeminine" format="1">
  <advance width="473"/>
  <unicode hex="00AA"/>
  <outline>
    <contour>
      <point x="94" y="715" type="curve"/>
      <point x="94" y="691"/>
      <point x="94" y="676"/>
      <point x="94" y="652" type="curve"/>
      <point x="103" y="652"/>
      <point x="107" y="652"/>
      <point x="116" y="652" type="curve"/>
      <point x="116" y="676"/>
      <point x="116" y="691"/>
      <point x="116" y="715" type="curve"/>
      <point x="107" y="715"/>
      <point x="103" y="715"/>
    </contour>
    <contour>
      <point x="338" y="428" type="curve"/>
      <point x="338" y="521"/>
      <point x="338" y="587"/>
      <point x="338" y="681" type="curve"/>
      <point x="338" y="743"/>
      <point x="285" y="766"/>
      <point x="217" y="766" type="curve"/>
      <point x="166" y="766"/>
      <point x="124" y="745"/>
      <point x="94" y="715" type="curve"/>
      <point x="98" y="708"/>
      <point x="101" y="705"/>
      <point x="105" y="697" type="curve"/>
      <point x="131" y="720"/>
      <point x="168" y="743"/>
      <point x="214" y="743" type="curve"/>
      <point x="270" y="743"/>
      <point x="313" y="725"/>
      <point x="313" y="674" type="curve"/>
      <point x="313" y="583"/>
      <point x="313" y="519"/>
      <point x="313" y="428" type="curve"/>
      <point x="323" y="428"/>
      <point x="328" y="428"/>
    </contour>
    <contour>
      <point x="327" y="428" type="curve"/>
      <point x="352" y="428"/>
      <point x="368" y="428"/>
      <point x="393" y="428" type="curve"/>
      <point x="393" y="437"/>
      <point x="393" y="442"/>
      <point x="393" y="450" type="curve"/>
      <point x="367" y="450"/>
      <point x="352" y="450"/>
      <point x="327" y="450" type="curve"/>
      <point x="327" y="442"/>
      <point x="327" y="437"/>
    </contour>
    <contour>
      <point x="324" y="631" type="curve"/>
      <point x="274" y="625"/>
      <point x="239" y="623"/>
      <point x="189" y="617" type="curve"/>
      <point x="127" y="608"/>
      <point x="81" y="578"/>
      <point x="81" y="516" type="curve"/>
      <point x="81" y="455"/>
      <point x="126" y="423"/>
      <point x="192" y="423" type="curve"/>
      <point x="257" y="423"/>
      <point x="299" y="464"/>
      <point x="331" y="515" type="curve"/>
      <point x="327" y="519"/>
      <point x="323" y="523"/>
      <point x="319" y="527" type="curve"/>
      <point x="291" y="483"/>
      <point x="254" y="446"/>
      <point x="197" y="446" type="curve"/>
      <point x="144" y="446"/>
      <point x="106" y="469"/>
      <point x="106" y="518" type="curve"/>
      <point x="106" y="566"/>
      <point x="140" y="589"/>
      <point x="188" y="596" type="curve"/>
      <point x="238" y="603"/>
      <point x="275" y="605"/>
      <point x="325" y="612" type="curve"/>
      <point x="325" y="619"/>
      <point x="324" y="624"/>
    </contour>
  </outline>
</glyph>
<glyph name="guillemotleft" format="1">
  <advance width="655"/>
  <unicode hex="00AB"/>
  <outline>
    <contour>
      <point x="321" y="399" type="curve"/>
      <point x="320" y="399"/>
      <point x="77" y="289"/>
      <point x="77" y="289" type="curve"/>
      <point x="77" y="264"/>
      <point x="77" y="289"/>
      <point x="77" y="264" type="curve"/>
      <point x="77" y="264"/>
      <point x="320" y="374"/>
      <point x="321" y="375" type="curve"/>
      <point x="321" y="399"/>
      <point x="321" y="375"/>
    </contour>
    <contour>
      <point x="321" y="178" type="curve"/>
      <point x="320" y="178"/>
      <point x="77" y="288"/>
      <point x="77" y="289" type="curve"/>
      <point x="77" y="264"/>
      <point x="77" y="289"/>
      <point x="77" y="264" type="curve"/>
      <point x="77" y="264"/>
      <point x="320" y="154"/>
      <point x="321" y="154" type="curve"/>
      <point x="321" y="178"/>
      <point x="321" y="154"/>
    </contour>
    <contour>
      <point x="558" y="399" type="curve"/>
      <point x="557" y="399"/>
      <point x="314" y="289"/>
      <point x="314" y="289" type="curve"/>
      <point x="314" y="264"/>
      <point x="314" y="289"/>
      <point x="314" y="264" type="curve"/>
      <point x="314" y="264"/>
      <point x="557" y="374"/>
      <point x="558" y="375" type="curve"/>
      <point x="558" y="399"/>
      <point x="558" y="375"/>
    </contour>
    <contour>
      <point x="558" y="178" type="curve"/>
      <point x="557" y="178"/>
      <point x="314" y="288"/>
      <point x="314" y="289" type="curve"/>
      <point x="314" y="264"/>
      <point x="314" y="289"/>
      <point x="314" y="264" type="curve"/>
      <point x="314" y="264"/>
      <point x="557" y="154"/>
      <point x="558" y="154" type="curve"/>
      <point x="558" y="178"/>
      <point x="558" y="154"/>
    </contour>
  </outline>
</glyph>
<glyph name="registered" format="1">
  <advance width="789"/>
  <unicode hex="00AE"/>
  <outline>
    <contour>
      <point x="91" y="319" type="curve"/>
      <point x="91" y="503"/>
      <point x="213" y="624"/>
      <point x="399" y="624" type="curve"/>
      <point x="580" y="624"/>
      <point x="698" y="501"/>
      <point x="698" y="318" type="curve"/>
      <point x="698" y="139"/>
      <point x="583" y="18"/>
      <point x="405" y="18" type="curve"/>
      <point x="220" y="18"/>
      <point x="91" y="134"/>
      <point x="91" y="319" type="curve"/>
      <point x="67" y="319"/>
      <point x="91" y="319"/>
      <point x="67" y="319" type="curve"/>
      <point x="67" y="123"/>
      <point x="204" y="-4"/>
      <point x="404" y="-4" type="curve"/>
      <point x="597" y="-4"/>
      <point x="722" y="126"/>
      <point x="722" y="319" type="curve"/>
      <point x="722" y="515"/>
      <point x="594" y="645"/>
      <point x="399" y="645" type="curve"/>
      <point x="201" y="645"/>
      <point x="67" y="517"/>
      <point x="67" y="319" type="curve"/>
      <point x="91" y="319"/>
      <point x="67" y="319"/>
    </contour>
    <contour>
      <point x="500" y="149" type="curve"/>
      <point x="523" y="149"/>
      <point x="546" y="149"/>
      <point x="570" y="149" type="curve"/>
      <point x="570" y="170"/>
      <point x="570" y="149"/>
      <point x="570" y="170" type="curve"/>
      <point x="552" y="170"/>
      <point x="535" y="170"/>
      <point x="518" y="170" type="curve"/>
      <point x="500" y="149"/>
      <point x="518" y="170"/>
    </contour>
    <contour>
      <point x="332" y="491" type="curve"/>
      <point x="301" y="491"/>
      <point x="272" y="491"/>
      <point x="242" y="491" type="curve"/>
      <point x="242" y="469"/>
      <point x="242" y="491"/>
      <point x="242" y="469" type="curve"/>
      <point x="264" y="469"/>
      <point x="285" y="469"/>
      <point x="307" y="469" type="curve"/>
      <point x="332" y="491"/>
      <point x="307" y="469"/>
    </contour>
    <contour>
      <point x="332" y="171" type="curve"/>
      <point x="301" y="171"/>
      <point x="272" y="171"/>
      <point x="242" y="171" type="curve"/>
      <point x="242" y="149"/>
      <point x="242" y="171"/>
      <point x="242" y="149" type="curve"/>
      <point x="264" y="149"/>
      <point x="285" y="149"/>
      <point x="307" y="149" type="curve"/>
      <point x="332" y="171"/>
      <point x="307" y="149"/>
    </contour>
    <contour>
      <point x="306" y="149" type="curve"/>
      <point x="333" y="149"/>
      <point x="359" y="149"/>
      <point x="385" y="149" type="curve"/>
      <point x="385" y="170"/>
      <point x="385" y="149"/>
      <point x="385" y="170" type="curve"/>
      <point x="367" y="170"/>
      <point x="349" y="170"/>
      <point x="331" y="170" type="curve"/>
      <point x="306" y="149"/>
      <point x="331" y="170"/>
    </contour>
    <contour>
      <point x="408" y="309" type="curve"/>
      <point x="438" y="256"/>
      <point x="469" y="202"/>
      <point x="500" y="149" type="curve"/>
      <point x="518" y="170"/>
      <point x="500" y="149"/>
      <point x="518" y="170" type="curve"/>
      <point x="491" y="216"/>
      <point x="463" y="262"/>
      <point x="436" y="310" type="curve"/>
      <point x="407" y="309"/>
      <point x="436" y="310"/>
    </contour>
    <contour>
      <point x="332" y="171" type="curve"/>
      <point x="332" y="277"/>
      <point x="332" y="384"/>
      <point x="332" y="491" type="curve"/>
      <point x="307" y="469"/>
      <point x="332" y="491"/>
      <point x="307" y="469" type="curve"/>
      <point x="307" y="362"/>
      <point x="307" y="255"/>
      <point x="307" y="149" type="curve"/>
      <point x="332" y="171"/>
      <point x="307" y="149"/>
    </contour>
    <contour>
      <point x="321" y="295" type="curve"/>
      <point x="343" y="295"/>
      <point x="365" y="295"/>
      <point x="386" y="295" type="curve"/>
      <point x="458" y="295"/>
      <point x="507" y="322"/>
      <point x="507" y="392" type="curve"/>
      <point x="507" y="457"/>
      <point x="462" y="491"/>
      <point x="395" y="491" type="curve"/>
      <point x="374" y="491"/>
      <point x="353" y="491"/>
      <point x="332" y="491" type="curve"/>
      <point x="307" y="469"/>
      <point x="332" y="491"/>
      <point x="307" y="469" type="curve"/>
      <point x="335" y="469"/>
      <point x="363" y="469"/>
      <point x="391" y="469" type="curve"/>
      <point x="445" y="469"/>
      <point x="482" y="443"/>
      <point x="482" y="390" type="curve"/>
      <point x="482" y="336"/>
      <point x="445" y="317"/>
      <point x="390" y="317" type="curve"/>
      <point x="367" y="317"/>
      <point x="344" y="317"/>
      <point x="321" y="317" type="curve"/>
      <point x="321" y="295"/>
      <point x="321" y="317"/>
    </contour>
  </outline>
</glyph>
<glyph name="macron" format="1">
  <advance width="366"/>
  <unicode hex="00AF"/>
  <outline>
    <contour>
      <point x="258" y="680" type="curve"/>
      <point x="179" y="680"/>
      <point x="101" y="680"/>
      <point x="23" y="680" type="curve"/>
      <point x="23" y="658"/>
      <point x="23" y="680"/>
      <point x="23" y="658" type="curve"/>
      <point x="101" y="658"/>
      <point x="179" y="658"/>
      <point x="258" y="658" type="curve"/>
      <point x="258" y="680"/>
      <point x="258" y="658"/>
    </contour>
    <contour>
      <point x="143" y="658" type="move" name="_top"/>
    </contour>
  </outline>
</glyph>
<glyph name="degree" format="1">
  <advance width="488"/>
  <unicode hex="00B0"/>
  <outline>
    <contour>
      <point x="415" y="432" type="curve"/>
      <point x="415" y="553"/>
      <point x="358" y="639"/>
      <point x="243" y="639" type="curve"/>
      <point x="129" y="639"/>
      <point x="73" y="554"/>
      <point x="73" y="434" type="curve"/>
      <point x="97" y="434"/>
      <point x="74" y="434"/>
      <point x="97" y="434" type="curve"/>
      <point x="97" y="540"/>
      <point x="140" y="617"/>
      <point x="241" y="617" type="curve"/>
      <point x="343" y="617"/>
      <point x="391" y="540"/>
      <point x="391" y="432" type="curve"/>
      <point x="391" y="321"/>
      <point x="347" y="240"/>
      <point x="244" y="240" type="curve"/>
      <point x="140" y="240"/>
      <point x="97" y="323"/>
      <point x="97" y="434" type="curve"/>
      <point x="74" y="434"/>
      <point x="97" y="434"/>
      <point x="73" y="434" type="curve"/>
      <point x="73" y="309"/>
      <point x="126" y="218"/>
      <point x="243" y="218" type="curve"/>
      <point x="360" y="218"/>
      <point x="415" y="308"/>
    </contour>
  </outline>
</glyph>
<glyph name="twosuperior" format="1">
  <advance width="502"/>
  <unicode hex="00B2"/>
  <outline>
    <contour>
      <point x="412" y="289" type="curve"/>
      <point x="412" y="324"/>
      <point x="412" y="345"/>
      <point x="412" y="381" type="curve"/>
      <point x="390" y="381"/>
      <point x="412" y="381"/>
      <point x="390" y="381" type="curve"/>
      <point x="390" y="353"/>
      <point x="390" y="339"/>
      <point x="390" y="311" type="curve"/>
      <point x="412" y="289"/>
      <point x="390" y="311"/>
    </contour>
    <contour>
      <point x="82" y="289" type="curve"/>
      <point x="197" y="289"/>
      <point x="304" y="289"/>
      <point x="412" y="289" type="curve"/>
      <point x="390" y="311"/>
      <point x="412" y="289"/>
      <point x="390" y="311" type="curve"/>
      <point x="287" y="311"/>
      <point x="185" y="311"/>
      <point x="82" y="311" type="curve"/>
      <point x="82" y="289"/>
      <point x="82" y="311"/>
    </contour>
    <contour>
      <point x="132" y="607" type="curve"/>
      <point x="162" y="653"/>
      <point x="198" y="681"/>
      <point x="257" y="681" type="curve"/>
      <point x="323" y="681"/>
      <point x="367" y="648"/>
      <point x="367" y="584" type="curve"/>
      <point x="367" y="527"/>
      <point x="329" y="501"/>
      <point x="286" y="464" type="curve"/>
      <point x="218" y="413"/>
      <point x="150" y="362"/>
      <point x="82" y="311" type="curve"/>
      <point x="92" y="289"/>
      <point x="82" y="311"/>
      <point x="92" y="289" type="curve"/>
      <point x="162" y="342"/>
      <point x="232" y="394"/>
      <point x="302" y="447" type="curve"/>
      <point x="350" y="489"/>
      <point x="391" y="520"/>
      <point x="391" y="585" type="curve"/>
      <point x="391" y="662"/>
      <point x="337" y="704"/>
      <point x="258" y="704" type="curve"/>
      <point x="190" y="704"/>
      <point x="145" y="676"/>
      <point x="113" y="618" type="curve"/>
      <point x="132" y="607"/>
      <point x="113" y="618"/>
    </contour>
    <contour>
      <point x="270" y="703" type="move" name="_top"/>
    </contour>
    <contour>
      <point x="238" y="288" type="move" name="_bottom"/>
    </contour>
  </outline>
</glyph>
<glyph name="threesuperior" format="1">
  <advance width="447"/>
  <unicode hex="00B3"/>
  <outline>
    <contour>
      <point x="109" y="637" type="curve"/>
      <point x="138" y="663"/>
      <point x="171" y="682"/>
      <point x="212" y="682" type="curve"/>
      <point x="277" y="682"/>
      <point x="326" y="658"/>
      <point x="326" y="596" type="curve"/>
      <point x="326" y="525"/>
      <point x="247" y="513"/>
      <point x="166" y="508" type="curve"/>
      <point x="166" y="489"/>
      <point x="166" y="508"/>
      <point x="166" y="489" type="curve"/>
      <point x="265" y="491"/>
      <point x="350" y="511"/>
      <point x="350" y="598" type="curve"/>
      <point x="350" y="672"/>
      <point x="294" y="703"/>
      <point x="215" y="703" type="curve"/>
      <point x="167" y="703"/>
      <point x="124" y="682"/>
      <point x="93" y="651" type="curve"/>
      <point x="109" y="637"/>
      <point x="93" y="651"/>
    </contour>
    <contour>
      <point x="87" y="317" type="curve"/>
      <point x="124" y="295"/>
      <point x="161" y="284"/>
      <point x="204" y="284" type="curve"/>
      <point x="297" y="281"/>
      <point x="369" y="312"/>
      <point x="366" y="397" type="curve"/>
      <point x="366" y="491"/>
      <point x="271" y="498"/>
      <point x="166" y="501" type="curve"/>
      <point x="166" y="485"/>
      <point x="166" y="501"/>
      <point x="166" y="485" type="curve"/>
      <point x="260" y="480"/>
      <point x="342" y="471"/>
      <point x="342" y="396" type="curve"/>
      <point x="341" y="327"/>
      <point x="284" y="304"/>
      <point x="207" y="306" type="curve"/>
      <point x="168" y="306"/>
      <point x="133" y="315"/>
      <point x="99" y="333" type="curve"/>
      <point x="87" y="317"/>
      <point x="99" y="333"/>
    </contour>
    <contour>
      <point x="230" y="703" type="move" name="_top"/>
    </contour>
    <contour>
      <point x="217" y="284" type="move" name="_bottom"/>
    </contour>
  </outline>
</glyph>
<glyph name="paragraph" format="1">
  <advance width="701"/>
  <unicode hex="00B6"/>
  <outline>
    <contour>
      <point x="438" y="699" type="curve"/>
      <point x="605" y="699"/>
      <point x="438" y="699"/>
      <point x="605" y="699" type="curve"/>
      <point x="605" y="722"/>
      <point x="605" y="699"/>
      <point x="605" y="722" type="curve"/>
      <point x="550" y="722"/>
      <point x="493" y="722"/>
      <point x="438" y="722" type="curve"/>
      <point x="438" y="699"/>
      <point x="438" y="722"/>
    </contour>
    <contour>
      <point x="438" y="0" type="curve"/>
      <point x="493" y="0"/>
      <point x="550" y="0"/>
      <point x="605" y="0" type="curve"/>
      <point x="605" y="23"/>
      <point x="605" y="0"/>
      <point x="605" y="23" type="curve"/>
      <point x="438" y="23"/>
      <point x="605" y="23"/>
      <point x="438" y="23" type="curve"/>
      <point x="438" y="0"/>
      <point x="438" y="23"/>
    </contour>
    <contour>
      <point x="438" y="23" type="curve"/>
      <point x="284" y="23"/>
      <point x="438" y="23"/>
      <point x="284" y="23" type="curve"/>
      <point x="284" y="0"/>
      <point x="284" y="23"/>
      <point x="284" y="0" type="curve"/>
      <point x="438" y="0"/>
      <point x="387" y="0"/>
      <point x="438" y="0" type="curve"/>
      <point x="438" y="23"/>
      <point x="438" y="0"/>
    </contour>
    <contour>
      <point x="432" y="346" type="curve"/>
      <point x="378" y="319"/>
      <point x="336" y="303"/>
      <point x="274" y="303" type="curve"/>
      <point x="153" y="303"/>
      <point x="73" y="373"/>
      <point x="73" y="493" type="curve"/>
      <point x="73" y="625"/>
      <point x="167" y="699"/>
      <point x="304" y="699" type="curve"/>
      <point x="348" y="699"/>
      <point x="391" y="699"/>
      <point x="435" y="699" type="curve"/>
      <point x="435" y="722"/>
      <point x="435" y="699"/>
      <point x="435" y="722" type="curve"/>
      <point x="390" y="722"/>
      <point x="345" y="722"/>
      <point x="301" y="722" type="curve"/>
      <point x="151" y="722"/>
      <point x="47" y="639"/>
      <point x="47" y="494" type="curve"/>
      <point x="47" y="357"/>
      <point x="139" y="282"/>
      <point x="276" y="280" type="curve"/>
      <point x="337" y="280"/>
      <point x="388" y="299"/>
      <point x="440" y="325" type="curve"/>
      <point x="432" y="346"/>
      <point x="440" y="326"/>
    </contour>
    <contour>
      <point x="452" y="0" type="curve"/>
      <point x="452" y="241"/>
      <point x="452" y="481"/>
      <point x="452" y="722" type="curve"/>
      <point x="426" y="722"/>
      <point x="452" y="722"/>
      <point x="426" y="722" type="curve"/>
      <point x="426" y="481"/>
      <point x="426" y="241"/>
      <point x="426" y="0" type="curve"/>
      <point x="452" y="0"/>
      <point x="426" y="0"/>
    </contour>
    <contour>
      <point x="616" y="0" type="curve"/>
      <point x="616" y="241"/>
      <point x="616" y="481"/>
      <point x="616" y="722" type="curve"/>
      <point x="590" y="722"/>
      <point x="616" y="722"/>
      <point x="590" y="722" type="curve"/>
      <point x="590" y="481"/>
      <point x="590" y="241"/>
      <point x="590" y="0" type="curve"/>
      <point x="616" y="0"/>
      <point x="590" y="0"/>
    </contour>
  </outline>
</glyph>
<glyph name="periodcentered" format="1">
  <advance width="214"/>
  <unicode hex="00B7"/>
  <outline>
    <contour>
      <point x="126" y="440" type="curve"/>
      <point x="126" y="451"/>
      <point x="118" y="458"/>
      <point x="106" y="458" type="curve"/>
      <point x="95" y="458"/>
      <point x="88" y="451"/>
      <point x="88" y="440" type="curve"/>
      <point x="113" y="440"/>
      <point x="100" y="440"/>
      <point x="126" y="440" type="curve"/>
      <point x="126" y="429"/>
      <point x="118" y="422"/>
      <point x="106" y="422" type="curve"/>
      <point x="95" y="422"/>
      <point x="88" y="429"/>
      <point x="88" y="440" type="curve"/>
      <point x="113" y="440"/>
      <point x="100" y="440"/>
    </contour>
  </outline>
</glyph>
<glyph name="cedilla" format="1">
  <advance width="343"/>
  <unicode hex="00B8"/>
  <outline>
    <contour>
      <point x="130" y="19" type="curve"/>
      <point x="115" y="-8"/>
      <point x="99" y="-36"/>
      <point x="84" y="-62" type="curve"/>
      <point x="101" y="-80"/>
      <point x="84" y="-62"/>
      <point x="101" y="-80" type="curve"/>
      <point x="116" y="-52"/>
      <point x="134" y="-24"/>
      <point x="149" y="3" type="curve"/>
      <point x="130" y="19"/>
      <point x="149" y="3"/>
    </contour>
    <contour>
      <point x="101" y="-81" type="curve"/>
      <point x="117" y="-71"/>
      <point x="130" y="-68"/>
      <point x="149" y="-68" type="curve"/>
      <point x="184" y="-68"/>
      <point x="204" y="-89"/>
      <point x="204" y="-124" type="curve"/>
      <point x="204" y="-162"/>
      <point x="175" y="-179"/>
      <point x="135" y="-179" type="curve"/>
      <point x="107" y="-179"/>
      <point x="86" y="-176"/>
      <point x="62" y="-162" type="curve"/>
      <point x="52" y="-180"/>
      <point x="62" y="-162"/>
      <point x="52" y="-180" type="curve"/>
      <point x="79" y="-195"/>
      <point x="102" y="-201"/>
      <point x="134" y="-201" type="curve"/>
      <point x="189" y="-201"/>
      <point x="229" y="-177"/>
      <point x="229" y="-124" type="curve"/>
      <point x="229" y="-76"/>
      <point x="199" y="-46"/>
      <point x="151" y="-46" type="curve"/>
      <point x="125" y="-46"/>
      <point x="107" y="-52"/>
      <point x="84" y="-63" type="curve"/>
      <point x="101" y="-81"/>
      <point x="84" y="-63"/>
    </contour>
    <contour>
      <point x="148" y="3" type="move" name="_bottom"/>
    </contour>
  </outline>
</glyph>
<glyph name="onesuperior" format="1">
  <advance width="394"/>
  <unicode hex="00B9"/>
  <outline>
    <contour>
      <point x="219" y="289" type="curve"/>
      <point x="258" y="289"/>
      <point x="284" y="289"/>
      <point x="323" y="289" type="curve"/>
      <point x="323" y="311"/>
      <point x="323" y="289"/>
      <point x="323" y="311" type="curve"/>
      <point x="292" y="311"/>
      <point x="275" y="311"/>
      <point x="244" y="311" type="curve"/>
      <point x="219" y="289"/>
      <point x="244" y="311"/>
    </contour>
    <contour>
      <point x="245" y="311" type="curve"/>
      <point x="204" y="311"/>
      <point x="177" y="311"/>
      <point x="137" y="311" type="curve"/>
      <point x="137" y="289"/>
      <point x="137" y="311"/>
      <point x="137" y="289" type="curve"/>
      <point x="169" y="289"/>
      <point x="188" y="289"/>
      <point x="220" y="289" type="curve"/>
      <point x="245" y="311"/>
      <point x="220" y="289"/>
    </contour>
    <contour>
      <point x="96" y="568" type="line"/>
      <point x="244" y="687" type="line"/>
      <point x="220" y="696" type="line"/>
      <point x="82" y="585" type="line"/>
    </contour>
    <contour>
      <point x="245" y="311" type="curve"/>
      <point x="245" y="696" type="line"/>
      <point x="220" y="696" type="line"/>
      <point x="220" y="289" type="line"/>
      <point x="245" y="311"/>
      <point x="220" y="289"/>
    </contour>
    <contour>
      <point x="233" y="693" type="move" name="_top"/>
    </contour>
    <contour>
      <point x="232" y="291" type="move" name="_bottom"/>
    </contour>
  </outline>
</glyph>
